<svg width="25" height="24" viewBox="0 0 25 24" fill="none" xmlns="http://www.w3.org/2000/svg">
<g clip-path="url(#clip0_3313_1073)">
<path d="M9.77016 20.0362C10.7847 21.0266 12.1252 21.558 13.5383 21.5459L18.8644 21.4855C20.217 21.4734 21.3764 20.5314 21.6663 19.2029L23.2605 12.041C23.4296 11.2802 23.2484 10.4952 22.7532 9.89129C22.2581 9.28742 21.5334 8.94926 20.7605 8.94926L13.345 9.04588C13.1035 9.04588 12.874 8.94926 12.717 8.7681C12.56 8.58694 12.4876 8.34539 12.5117 8.10385L13.0552 3.9251C13.1639 3.14008 12.874 2.3309 12.3064 1.77534C12.1735 1.65457 12.0286 1.65457 11.9562 1.67873C11.8837 1.6908 11.7388 1.75119 11.6784 1.92027L9.79432 7.4396C9.28707 8.9251 7.88611 9.9396 6.31606 9.96375L1.67838 10.0241L1.78708 19.1908L7.4634 19.1183C8.33297 19.1063 9.15422 19.4324 9.77016 20.0362ZM18.8885 23.1401L13.5624 23.2005C11.7025 23.2246 9.93925 22.5241 8.61074 21.2198C8.30881 20.9299 7.92234 20.7729 7.49963 20.7729L0.989979 20.8575C0.531042 20.8575 0.156646 20.4952 0.144569 20.0362L0.0117188 9.20288C0.0117188 8.74394 0.374037 8.36955 0.832974 8.35747L6.29191 8.28501C7.16147 8.28501 7.93442 7.72945 8.21219 6.9082L10.1083 1.35264C10.3619 0.676311 10.9175 0.205296 11.5938 0.0482912C12.2702 -0.0966364 12.9706 0.0966004 13.4658 0.579692C14.4078 1.49757 14.8668 2.82607 14.6977 4.13042L14.2871 7.36713L20.7484 7.28259C22.0407 7.27051 23.2484 7.83815 24.0576 8.82849C24.8668 9.8309 25.1808 11.1232 24.903 12.3913L23.2967 19.5652C22.8378 21.6425 21.0262 23.1159 18.8885 23.1401Z" fill="#ffffff"/>
<path d="M9.77051 20.0364C9.93959 20.2055 10.1328 20.3625 10.3261 20.5074" stroke="#ffffff" stroke-width="0.1" stroke-miterlimit="1" stroke-linecap="square"/>
<path d="M11.5462 21.1837C12.1742 21.4253 12.8384 21.546 13.5389 21.546L18.865 21.4856C20.2177 21.4736 21.3771 20.5315 21.6669 19.203L23.2611 12.0412C23.4302 11.2803 23.2491 10.4953 22.7539 9.89144C22.2587 9.28758 21.5341 8.94941 20.7611 8.94941L13.3457 9.04603C13.1041 9.04603 12.8747 8.94941 12.7177 8.76825C12.5607 8.58709 12.4882 8.34555 12.5123 8.104L13.0558 3.92526C13.1645 3.14023 12.8747 2.33106 12.307 1.7755C12.1742 1.65473 12.0293 1.65473 11.9568 1.67888C11.8843 1.69096 11.7394 1.75135 11.679 1.92043L9.79496 7.43975C9.28771 8.92526 7.88674 9.93975 6.31669 9.96391L3.11621 10.0001" stroke="#ffffff" stroke-width="0.1" stroke-miterlimit="1" stroke-linecap="square" stroke-dasharray="11.69 11.69"/>
<path d="M2.40335 10.0122L1.67871 10.0243L1.69079 10.7489" stroke="#ffffff" stroke-width="0.1" stroke-miterlimit="1" stroke-linecap="square"/>
<path d="M1.71533 12.2949L1.77572 17.6935" stroke="#ffffff" stroke-width="0.1" stroke-miterlimit="1" stroke-linecap="square" stroke-dasharray="12.78 12.78"/>
<path d="M1.7876 18.4663L1.79967 19.1909L2.52431 19.1789" stroke="#ffffff" stroke-width="0.1" stroke-miterlimit="1" stroke-linecap="square"/>
<path d="M3.87646 19.167L7.4755 19.1187C7.86197 19.1187 8.23637 19.179 8.58661 19.2998" stroke="#ffffff" stroke-width="0.1" stroke-miterlimit="1" stroke-linecap="square" stroke-dasharray="11.2 11.2"/>
<path d="M9.20312 19.5894C9.40844 19.7101 9.60168 19.8671 9.77076 20.0362" stroke="#ffffff" stroke-width="0.1" stroke-miterlimit="1" stroke-linecap="square"/>
<path d="M18.8887 23.1399L18.1641 23.152" stroke="#ffffff" stroke-width="0.1" stroke-miterlimit="1" stroke-linecap="square"/>
<path d="M16.7388 23.1763L13.5624 23.2126C11.7025 23.2367 9.93926 22.5362 8.61075 21.2319C8.30882 20.942 7.92235 20.785 7.49964 20.785L0.98998 20.8696C0.531042 20.8696 0.156646 20.5073 0.144569 20.0483L0.0117188 9.20289C0.0117188 8.74395 0.374038 8.36956 0.832975 8.35748L6.29191 8.28502C7.16148 8.28502 7.93442 7.72946 8.2122 6.9082L10.1083 1.35264C10.362 0.676311 10.9175 0.205296 11.5938 0.0482912C12.2702 -0.0966365 12.9707 0.0966005 13.4658 0.579693C14.4079 1.49757 14.8668 2.82607 14.6977 4.13042L14.4682 5.92994" stroke="#ffffff" stroke-width="0.1" stroke-miterlimit="1" stroke-linecap="square" stroke-dasharray="11.81 11.81"/>
<path d="M14.3712 6.64258L14.2866 7.36722L15.0113 7.35514" stroke="#ffffff" stroke-width="0.1" stroke-miterlimit="1" stroke-linecap="square"/>
<path d="M16.3765 7.33097L20.7364 7.28266C22.0286 7.27058 23.2364 7.83822 24.0455 8.82855C24.8547 9.83097 25.1687 11.1232 24.891 12.3914L23.2968 19.5653C22.9344 21.1716 21.775 22.4276 20.2774 22.9228" stroke="#ffffff" stroke-width="0.1" stroke-miterlimit="1" stroke-linecap="square" stroke-dasharray="11.35 11.35"/>
<path d="M19.6133 23.0796C19.3838 23.1158 19.1423 23.14 18.8887 23.14" stroke="#ffffff" stroke-width="0.1" stroke-miterlimit="1" stroke-linecap="square"/>
</g>
<defs>
<clipPath id="clip0_3313_1073">
<rect width="25" height="23.2126" fill="white"/>
</clipPath>
</defs>
</svg>
