<svg width="27" height="20" viewBox="0 0 27 20" fill="none" xmlns="http://www.w3.org/2000/svg">
<path d="M2.67793 5.2733V16.4153C2.67793 17.1033 3.24529 17.6707 3.93337 17.6707H23.0787C23.7668 17.6707 24.3341 17.1033 24.3341 16.4153V6.43216C24.3341 5.74408 23.7668 5.17673 23.0787 5.17673H13.506C13.2405 5.17673 12.999 5.05601 12.8421 4.8508L11.635 3.25736C11.5987 3.22115 11.5746 3.17286 11.5505 3.12458C11.4056 2.84693 11.128 2.67793 10.8141 2.67793H3.95751C3.58329 2.67793 3.25736 2.93143 3.16079 3.29358L2.67793 5.2733ZM23.0787 19.3366H3.93337C2.31579 19.3366 1 18.0208 1 16.4153V5.17673C1 5.1043 1.01207 5.04394 1.02414 4.97151L1.54322 2.88315C1.82086 1.77257 2.81072 1 3.95751 1H10.8141C11.7315 1 12.5645 1.49493 12.999 2.29165L13.9165 3.49879H23.0787C24.6842 3.49879 26 4.81458 26 6.42009V16.4032C26 18.0208 24.6842 19.3366 23.0787 19.3366Z" fill="#ffffff"/>
<path d="M2.67773 5.27334V16.4153C2.67773 17.1034 3.24509 17.6707 3.93317 17.6707H23.0785C23.7666 17.6707 24.3339 17.1034 24.3339 16.4153V6.4322C24.3339 5.74413 23.7666 5.17677 23.0785 5.17677H13.5058C13.2403 5.17677 12.9988 5.05605 12.8419 4.85084L11.6348 3.25741C11.5985 3.22119 11.5744 3.17291 11.5503 3.12462C11.4054 2.84698 11.1278 2.67798 10.8139 2.67798H3.95731C3.58309 2.67798 3.25716 2.93148 3.16059 3.29362L2.67773 5.27334Z" stroke="#ffffff" stroke-width="0.1" stroke-miterlimit="1" stroke-linecap="square" stroke-dasharray="12.01 12.01"/>
<path d="M23.0793 19.3367H22.355" stroke="#ffffff" stroke-width="0.1" stroke-miterlimit="1" stroke-linecap="square"/>
<path d="M20.9176 19.3366H3.93301C2.32751 19.3366 1.01172 18.0208 1.01172 16.4153V5.17673C1.01172 5.1043 1.02379 5.04394 1.03586 4.97151L1.55493 2.88315C1.83258 1.77257 2.82244 1 3.96923 1H10.8258C11.7433 1 12.5762 1.49493 13.0108 2.29165L13.059 2.352" stroke="#ffffff" stroke-width="0.1" stroke-miterlimit="1" stroke-linecap="square" stroke-dasharray="11.88 11.88"/>
<path d="M13.4819 2.9314L13.9165 3.51083H14.6408" stroke="#ffffff" stroke-width="0.1" stroke-miterlimit="1" stroke-linecap="square"/>
<path d="M16.0532 3.51074H23.0788C24.6843 3.51074 26.0001 4.82653 26.0001 6.43204V16.4151C26.0001 17.5257 25.3724 18.5035 24.455 18.9864" stroke="#ffffff" stroke-width="0.1" stroke-miterlimit="1" stroke-linecap="square" stroke-dasharray="11.72 11.72"/>
<path d="M23.7908 19.24C23.5615 19.3003 23.32 19.3245 23.0786 19.3245" stroke="#ffffff" stroke-width="0.1" stroke-miterlimit="1" stroke-linecap="square"/>
</svg>
