<svg width="25" height="25" viewBox="0 0 25 25" fill="none" xmlns="http://www.w3.org/2000/svg">
<g clip-path="url(#clip0_3313_1121)">
<path d="M19.5676 25H5.4319C3.81432 25 2.49854 23.6842 2.49854 22.0667V7.50847C2.49854 7.04975 2.87275 6.67554 3.33147 6.67554C3.79018 6.67554 4.1644 7.04975 4.1644 7.50847V22.0787C4.1644 22.7789 4.73176 23.3462 5.4319 23.3462H19.5676C20.2677 23.3462 20.8351 22.7789 20.8351 22.0787V7.50847C20.8351 7.04975 21.2093 6.67554 21.668 6.67554C22.1267 6.67554 22.5009 7.04975 22.5009 7.50847V22.0787C22.5009 23.6842 21.1852 25 19.5676 25Z" fill="#ffffff"/>
<path d="M19.5676 25H18.8433" stroke="#ffffff" stroke-width="0.1" stroke-miterlimit="1" stroke-linecap="square"/>
<path d="M17.3826 25H5.4319C3.81432 25 2.49854 23.6842 2.49854 22.0667V7.50847C2.49854 7.04975 2.87275 6.67554 3.33147 6.67554C3.79018 6.67554 4.1644 7.04975 4.1644 7.50847V22.0787C4.1644 22.7789 4.73176 23.3462 5.4319 23.3462H19.5676C20.2677 23.3462 20.8351 22.7789 20.8351 22.0787V7.50847C20.8351 7.04975 21.2093 6.67554 21.668 6.67554C22.1267 6.67554 22.5009 7.04975 22.5009 7.50847V22.0787C22.5009 23.1893 21.8732 24.155 20.9679 24.65" stroke="#ffffff" stroke-width="0.1" stroke-miterlimit="1" stroke-linecap="square" stroke-dasharray="12.07 12.07"/>
<path d="M20.2918 24.9153C20.0624 24.9756 19.821 24.9998 19.5796 24.9998" stroke="#ffffff" stroke-width="0.1" stroke-miterlimit="1" stroke-linecap="square"/>
<path d="M10.0072 23.334H15.0048V17.9139C15.0048 17.2258 14.4495 16.6705 13.7614 16.6705H11.2505C10.5625 16.6705 10.0072 17.2258 10.0072 17.9139V23.334ZM15.8377 24.9998H9.17424C8.71552 24.9998 8.34131 24.6256 8.34131 24.1669V17.9139C8.34131 16.3084 9.64503 15.0046 11.2505 15.0046H13.7614C15.3669 15.0046 16.6706 16.3084 16.6706 17.9139V24.1669C16.6706 24.6256 16.2964 24.9998 15.8377 24.9998Z" fill="#ffffff"/>
<path d="M10.0073 22.6096V23.3339H10.7316" stroke="#ffffff" stroke-width="0.1" stroke-miterlimit="1" stroke-linecap="square"/>
<path d="M11.915 23.334H13.6895" stroke="#ffffff" stroke-width="0.1" stroke-miterlimit="1" stroke-linecap="square" stroke-dasharray="9.8 9.8"/>
<path d="M14.2808 23.3339H15.0051V22.6096" stroke="#ffffff" stroke-width="0.1" stroke-miterlimit="1" stroke-linecap="square"/>
<path d="M15.0049 21.1731V17.9138C15.0049 17.2257 14.4496 16.6704 13.7615 16.6704H11.2507C10.5626 16.6704 10.0073 17.2257 10.0073 17.9138V21.8974" stroke="#ffffff" stroke-width="0.1" stroke-miterlimit="1" stroke-linecap="square" stroke-dasharray="11.91 11.91"/>
<path d="M15.8376 24.9998H15.1133" stroke="#ffffff" stroke-width="0.1" stroke-miterlimit="1" stroke-linecap="square"/>
<path d="M13.7252 24.9998H9.17424C8.71552 24.9998 8.34131 24.6256 8.34131 24.1669V17.9139C8.34131 16.3084 9.64503 15.0046 11.2505 15.0046H13.7614C15.3669 15.0046 16.6706 16.3084 16.6706 17.9139V24.0582" stroke="#ffffff" stroke-width="0.1" stroke-miterlimit="1" stroke-linecap="square" stroke-dasharray="11.52 11.52"/>
<path d="M16.4772 24.698C16.3203 24.8791 16.0909 24.9998 15.8374 24.9998" stroke="#ffffff" stroke-width="0.1" stroke-miterlimit="1" stroke-linecap="square"/>
<path d="M24.1668 10.0073C23.9978 10.0073 23.8288 9.959 23.6839 9.85036L12.5058 1.85905L1.32759 9.85036C0.953374 10.1159 0.434301 10.0314 0.168729 9.65722C-0.0968437 9.283 -0.0123434 8.76393 0.361872 8.49836L12.0229 0.169048C12.3126 -0.036167 12.6989 -0.036167 12.9886 0.169048L24.6497 8.49836C25.0239 8.76393 25.1084 9.283 24.8428 9.65722C24.6859 9.88658 24.4203 10.0073 24.1668 10.0073Z" fill="#ffffff"/>
<path d="M24.1665 10.0071C23.9975 10.0071 23.8285 9.95885 23.6836 9.85021L23.5146 9.72949" stroke="#ffffff" stroke-width="0.1" stroke-miterlimit="1" stroke-linecap="square"/>
<path d="M22.3556 8.89663L13.6763 2.69189" stroke="#ffffff" stroke-width="0.1" stroke-miterlimit="1" stroke-linecap="square" stroke-dasharray="11.79 11.79"/>
<path d="M13.0971 2.28163L12.5056 1.85913L11.9141 2.28163" stroke="#ffffff" stroke-width="0.1" stroke-miterlimit="1" stroke-linecap="square"/>
<path d="M10.7675 3.10241L1.32759 9.85036C0.953374 10.1159 0.434301 10.0314 0.168729 9.65722C-0.0968437 9.283 -0.0123434 8.76393 0.361872 8.49836L12.0229 0.169048C12.3126 -0.036167 12.6989 -0.036167 12.9886 0.169048L24.6497 8.49836C24.8428 8.63114 24.9635 8.83636 24.9877 9.05364" stroke="#ffffff" stroke-width="0.1" stroke-miterlimit="1" stroke-linecap="square" stroke-dasharray="11.72 11.72"/>
<path d="M24.8063 9.70557C24.6494 9.89871 24.4079 9.99528 24.1665 9.99528" stroke="#ffffff" stroke-width="0.1" stroke-miterlimit="1" stroke-linecap="square"/>
</g>
<defs>
<clipPath id="clip0_3313_1121">
<rect width="25" height="25" fill="white"/>
</clipPath>
</defs>
</svg>
