<svg width="480" height="591" viewBox="0 0 480 591" fill="none" xmlns="http://www.w3.org/2000/svg">
<path d="M428.796 205.056C384.03 170.013 303.924 152.791 239.515 183.478C175.036 214.107 99.2897 279.468 111.945 295.081C124.603 310.726 146.724 295.205 131.054 295.533C115.384 295.86 59.6346 321.858 69.8553 299.876C69.8553 299.876 106.286 268.042 103.376 270.513C100.466 272.984 81.3026 242.415 81.3026 242.415L308.169 63.1935C308.169 63.1935 60.627 165.04 59.4485 165.247C58.27 165.454 43.1047 210.805 43.1047 210.805L282.255 77.6114L35.1682 244.449C35.1682 244.449 61.3182 227.356 59.49 224.064C57.6619 220.772 44.5868 217.332 49.2736 213.433C53.9924 209.531 103.694 181.508 103.694 181.508C103.694 181.508 120.041 170.732 122.599 171.432C125.16 172.164 129.409 173.645 127.047 177.132C124.682 180.588 100.916 198.947 104.06 193.769C107.203 188.591 115.124 181.188 113.003 178.926C110.883 176.665 82.5203 169.666 79.4976 161.891C76.4748 154.116 78.6594 131.006 77.865 128.039C77.0676 125.039 71.1971 121.445 72.4773 123.72C73.7605 126.027 83.021 122.576 83.6655 118.374C84.3069 114.141 81.6279 110.055 81.6279 110.055C81.6279 110.055 94.0427 109.189 96.9951 107.523C99.9505 105.889 104.876 103.165 104.876 103.165C104.876 103.165 156.426 132.496 163.429 135.047C170.432 137.597 175.803 141.044 176.203 142.56C176.601 144.043 167.238 148.831 167.238 148.831C167.238 148.831 170.008 154.59 172.421 155.822C174.835 157.053 183.465 154.825 183.448 150.135C183.4 145.448 173.967 140.795 171.997 141.884C170.027 142.974 163.778 146.435 163.778 146.435C163.778 146.435 132.511 135.015 125.409 133.833C118.303 132.618 92.4213 121.667 98.1735 121.908C103.894 122.151 88.9482 149.363 94.0404 154.68C99.1325 159.997 119.498 168.032 112.745 167.464C105.994 166.929 86.2558 153.82 88.3091 146.672C90.3623 139.525 95.8248 130.054 94.19 127.1C92.5551 124.146 87.4335 122.682 88.3139 119.623C89.1943 116.565 97.2793 113.353 95.5559 112.575C93.8325 111.797 80.3707 107.681 78.5456 104.421C76.7174 101.129 73.9834 91.9366 74.104 81.766C74.2568 71.5925 80.6976 61.1566 76.5611 59.1478C72.4246 57.1389 66.4576 58.7626 63.6926 60.7026C60.9305 62.6747 52.5211 84.2946 49.0234 88.7942C45.5286 93.3259 29.9895 101.309 29.9895 101.309C29.9895 101.309 20.4309 101.909 18.2794 104.18C16.0958 106.454 27.1939 103.964 27.0597 105.303C26.9576 106.639 24.8293 110.202 26.6451 109.192C28.4609 108.181 31.1573 106.895 31.4431 105.445C31.7288 103.994 30.3732 101.953 30.9181 102.938C31.463 103.922 32.7165 107.3 33.7838 106.941C34.848 106.551 54.1465 97.5703 56.6629 94.0033C59.2113 90.4334 64.0699 81.0832 65.2617 78.9338C66.4213 76.7874 65.3944 70.2828 64.4187 75.0975C63.4429 79.9121 63.3131 88.5952 64.3035 95.7504C65.2968 102.938 69.4777 115.846 70.3316 116.672C71.2146 117.463 79.5521 116.266 79.0501 112.268C78.5482 108.271 76.4932 105.324 74.1242 97.6179C71.7874 89.9087 68.7108 73.5651 69.1243 73.1384C69.5377 72.7116 72.5978 73.5912 72.6178 72.0687C72.6379 70.5462 72.2836 66.0495 73.8672 64.2843C75.4859 62.5481 78.7082 57.5241 79.4076 58.4296C80.1071 59.335 81.6224 68.9973 83.9605 66.6441C86.2986 64.2908 88.3356 59.0537 88.3356 59.0537C88.3356 59.0537 92.4277 56.7635 93.0356 53.2126C93.6436 49.6617 89.6666 37.8992 87.0655 37.4298C84.4323 36.9633 79.9133 38.8403 80.3964 40.8984C80.9145 42.9855 80.3077 43.0744 79.2235 44.9872C78.1362 46.868 79.0881 49.7883 78.6611 49.3751C78.2342 48.962 75.385 45.8302 75.5286 48.7611C75.6401 51.6949 78.2989 54.5209 77.6518 54.8724C77.0048 55.2239 72.7168 53.3262 70.4714 50.0735C68.2261 46.8207 68.5815 41.255 73.5608 36.3261C78.5721 31.3943 88.7912 31.2834 86.2292 34.0134C83.6672 36.7434 79.0838 35.8439 75.9606 39.4998C72.8375 43.1556 73.3506 54.9172 75.3503 56.5751C77.3529 58.2651 88.0337 62.4144 88.4174 63.0581C88.769 63.7047 90.6295 69.7758 89.3651 69.4083C88.1008 69.0408 83.6785 68.4822 83.4182 69.5094C83.1257 70.5397 79.0174 74.7403 83.1756 85.321C87.3339 95.9018 95.4041 101.912 95.4041 101.912L94.6446 105.574C94.6446 105.574 89.621 106.204 88.8103 105.147C87.9997 104.09 77.8289 94.2961 77.3613 83.3715C76.8968 72.4789 79.4064 68.492 80.3915 67.9472C81.3767 67.4025 88.9232 60.8432 91.4519 61.5782C94.0128 62.3102 107.658 69.0952 112.435 70.3325C117.209 71.5378 135.898 58.796 137.655 58.8912C139.412 58.9863 142.103 64.5917 141.269 65.0253C140.439 65.491 150.549 63.5137 150.192 61.7674C149.867 60.0182 142.722 61.8487 144.16 60.6146C145.631 59.3775 155.766 55.2302 154.229 54.3703C152.692 53.5105 143.413 55.0222 140.875 56.6176C138.339 58.245 140.499 63.7058 139.074 65.7799C137.648 67.854 124.477 76.2316 119.308 77.3925C114.14 78.5535 107.332 80.1908 102.477 78.799C97.6206 77.4072 95.9899 71.0235 97.1254 73.8296C98.2609 76.6358 94.7017 78.391 98.8276 86.1923C102.953 93.9936 110.288 98.7134 109.076 99.6028C107.864 100.492 100.403 104.843 103.378 107.931C106.382 110.984 93.1052 116.848 109.716 122.45C126.356 128.018 154.482 131.092 158.789 137.711C163.096 144.331 170.653 155.598 163.096 161.705C155.54 167.813 37.5812 244.289 35.0553 250.186C32.5295 256.083 15.2882 306.254 28.7524 296.846C42.2165 287.438 89.742 238.49 90.5915 239.964C91.4089 241.441 92.9007 269.612 105.704 262.499C118.508 255.385 303.721 66.8757 310.345 62.5702C316.968 58.2647 173.534 210.85 173.534 210.85C173.534 210.85 152.806 253.127 167.454 253.995C182.102 254.863 209.506 211.964 217.218 222.472C224.928 232.948 223.972 258.824 242.358 251.514C260.744 244.203 283.997 205.055 272.994 207.181C261.995 209.338 268.453 254.68 251.19 261.885C233.928 269.091 214.565 254.103 211.066 264.491C207.537 274.915 229.53 294.155 223.787 304.785C218.044 315.414 169.149 332.297 165.755 343.808C162.328 355.322 179.51 395.2 185.788 402.477C192.063 409.722 138.145 384.494 152.443 405.584C166.742 426.673 166.859 440.089 185.762 438.328C204.665 436.567 235.954 423.557 245.602 430.52C255.215 437.454 269.148 466.44 297.147 466.064C325.146 465.688 347.491 464.738 334.051 477.185C320.643 489.629 305.7 497.751 305.924 512.322C306.146 526.861 312.989 552.01 291.976 555.1C270.963 558.19 229.198 555.352 228.044 530.805C226.89 506.258 232.601 495.632 210.761 489.837C188.92 484.042 184.65 474.345 180.38 464.648C176.11 454.952 167.22 455.78 150.723 447.222C134.225 438.665 118.543 426.699 112.423 409.312C106.307 391.958 98.3179 294.053 110.817 319.807C123.314 345.53 118.391 413.254 130.021 453.649C141.619 494.046 258.386 579.551 349.826 562.07C441.266 544.588 476.316 487.517 471.427 471.18C466.536 454.811 439.819 444.974 447.158 427.498C454.493 409.99 460.119 385.944 458.479 380.5C456.839 375.055 436.017 368.033 423.288 375.949C410.559 383.864 376.861 407.161 383.889 386.349C390.914 365.505 402.936 362.153 391.21 356.516C379.484 350.878 345.12 355.212 355.899 338.516C366.677 321.82 384.041 315.705 385.253 304.397C386.434 293.093 333.21 316.553 315.077 295.081C324.158 284.14 335.122 260.549 321.077 253.995C307.003 247.477 332.655 245.398 337.26 222.547C341.864 199.696 361.741 184.417 375.815 190.936C389.889 197.454 411.025 207.845 413.547 210.942C416.072 214.072 421.316 194.113 410.577 187.251" stroke="url(#paint0_linear_3743_1218)" stroke-width="3" stroke-miterlimit="10" stroke-linecap="round" stroke-linejoin="round"/>
<defs>
<linearGradient id="paint0_linear_3743_1218" x1="316.36" y1="7.49851" x2="368.979" y2="572.255" gradientUnits="userSpaceOnUse">
<stop stop-color="#FFD24A"/>
<stop offset="0.2231" stop-color="#FED048"/>
<stop offset="0.3338" stop-color="#FCCA40"/>
<stop offset="0.4198" stop-color="#F8BF33"/>
<stop offset="0.4926" stop-color="#F2B020"/>
<stop offset="0.5559" stop-color="#EB9D09"/>
<stop offset="0.8116" stop-color="#DF8803"/>
<stop offset="1" stop-color="#D97E00"/>
</linearGradient>
</defs>
</svg>
