<svg width="614" height="597" viewBox="0 0 614 597" fill="none" xmlns="http://www.w3.org/2000/svg">
<path d="M539.48 487.86C485.53 497.78 476.8 451.38 471.98 440.51C467.16 429.64 463.71 431.81 463.71 439.79C463.71 447.77 457.51 459.36 439.6 460.81C421.69 462.26 387.25 462.26 390.69 452.11C394.13 441.96 405.16 416.6 396.89 421.67C388.62 426.74 378.98 439.79 378.98 449.21C378.98 458.63 377.6 465.88 412.04 465.88C446.48 465.88 470.59 455.01 463.01 416.59C455.43 378.17 454.74 349.91 454.74 331.79C454.74 313.67 454.74 297 456.81 289.75C458.88 282.5 461.63 238.29 464.39 232.49C467.15 226.69 460.95 212.2 457.5 203.5C454.06 194.8 443.03 190.45 439.59 190.45C436.15 190.45 434.08 192.62 437.52 177.4C440.96 162.18 448.54 144.06 440.96 143.34C433.38 142.62 426.49 143.34 423.74 151.31C420.98 159.28 417.54 180.3 413.41 186.1C409.28 191.9 397.57 192.62 397.57 199.15C397.57 205.67 396.19 217.27 400.33 215.09C404.46 212.92 414.8 210.74 424.44 210.74C434.08 210.74 436.84 212.91 434.08 210.74C431.32 208.57 398.26 212.91 398.26 223.06C398.26 233.21 392.75 240.45 407.21 237.56C421.67 234.67 446.47 228.14 440.96 227.41C435.45 226.69 396.19 239.73 395.5 242.63C394.81 245.53 393.43 254.95 399.63 257.13C405.83 259.3 420.3 260.03 427.87 257.13C435.45 254.23 442.33 247.71 438.89 249.88C435.45 252.05 423.05 256.4 414.78 255.68C406.51 254.96 397.56 260.75 396.18 263.65C394.8 266.55 396.18 278.15 403.07 278.15C409.96 278.15 418.22 277.43 423.05 282.5C427.87 287.57 434.76 286.12 439.58 286.12C444.4 286.12 448.53 282.5 442.34 283.22C436.14 283.94 432.7 285.39 426.5 281.77C420.3 278.15 405.83 275.97 407.21 281.05C408.59 286.12 414.1 296.27 412.72 328.89C411.34 361.51 406.52 404.99 404.45 408.62C402.38 412.24 383.1 439.78 383.78 447.76C384.46 455.74 385.39 507.42 350.49 500.67C315.59 493.92 322.48 444.86 320.41 452.11C318.34 459.36 302.5 472.4 282.52 471.68C262.54 470.96 223.28 465.16 230.17 437.62C237.06 410.08 249.46 364.42 261.86 344.85C274.26 325.28 285.28 300.64 285.28 290.49C285.28 280.34 279.08 265.12 275.64 254.98C272.2 244.83 275.64 238.31 272.2 231.06C268.76 223.81 270.13 215.11 272.2 211.49C274.27 207.87 268.07 195.54 275.64 190.47C283.22 185.4 290.11 183.22 290.79 175.97C291.48 168.72 299.75 160.75 310.08 160.75C320.41 160.75 332.12 168 328.68 154.95C325.24 141.9 314.21 107.11 325.24 107.11C336.26 107.11 345.9 114.36 347.28 127.4C348.66 140.44 347.28 163.64 352.1 167.26C356.92 170.88 362.43 177.41 361.05 184.65C359.67 191.9 362.43 198.42 356.23 195.52C350.03 192.62 330.74 188.27 321.1 187.55C311.46 186.83 304.57 183.2 310.08 183.93C315.59 184.65 356.92 190.45 356.23 209.3C355.54 228.14 358.3 238.29 353.47 240.47C348.65 242.64 344.52 245.54 344.52 238.3C344.52 231.05 350.72 216.56 336.94 216.56C323.16 216.56 296.99 211.49 303.19 211.49C309.39 211.49 349.34 212.94 348.65 222.36C347.96 231.78 346.58 247 343.83 249.9C341.07 252.8 336.25 249.18 334.88 245.55C333.51 241.92 325.24 239.75 314.9 239.75C304.56 239.75 292.17 236.13 298.37 236.85C304.57 237.57 334.19 238.3 336.94 242.65C339.7 247 341.76 252.8 339.7 257.87C337.63 262.94 332.81 263.67 325.92 264.39C319.03 265.11 313.52 265.84 309.39 270.19C305.26 274.54 305.95 265.12 316.28 262.94C326.61 260.77 349.34 257.87 352.1 235.4C354.86 212.93 358.99 194.81 359.68 202.06C360.37 209.31 363.12 234.68 357.61 247C352.1 259.32 312.84 315.85 315.59 363.69C318.35 411.53 321.79 465.88 314.9 472.41C308.01 478.93 263.93 488.35 246.02 476.76C228.11 465.16 226.2 444.5 223.98 455.02C209.05 525.82 92.4 535.49 120.83 430.34C124.26 417.65 113.48 411.49 114.4 416.81C115.32 422.13 113.94 439.52 91.44 433.72C68.94 427.92 29 410.02 39.56 391.66C50.12 373.3 100.64 291.15 110.28 273.27C119.92 255.39 123.6 242.83 122.22 235.1C120.84 227.37 113.95 197.41 118.09 191.13C122.22 184.85 120.85 183.88 120.85 178.08C120.85 172.28 122.69 169.38 124.98 167.45C127.28 165.52 128.65 159.24 129.57 154.4C130.49 149.57 134.62 143.77 139.21 143.77C143.8 143.77 147.94 137.97 148.85 136.04C149.77 134.11 157.58 131.21 164.92 133.62C172.27 136.04 195.23 144.25 196.61 154.88C197.99 165.51 197.53 174.69 193.4 177.59C189.27 180.49 187.89 182.91 186.97 178.56C186.05 174.21 177.79 164.55 170.44 161.16C163.09 157.78 156.66 153.43 159.42 154.4C162.18 155.37 181.92 164.55 184.68 170.83C187.44 177.11 188.35 182.91 186.98 188.71C185.6 194.51 184.22 199.82 181.01 197.41C177.8 194.99 168.61 189.2 160.8 184.85C152.99 180.5 147.94 174.7 150.7 176.64C153.46 178.57 180.55 188.72 181.01 194.52C181.47 200.32 181.93 206.6 181.01 209.98C180.09 213.36 175.04 219.16 169.99 214.81C164.94 210.46 152.08 208.05 145.19 201.76C138.3 195.48 133.25 191.61 136.92 193.55C140.59 195.49 152.08 202.25 158.96 206.11C165.85 209.98 175.49 219.16 174.57 221.57C173.65 223.99 164.01 235.1 158.96 230.75C153.91 226.4 142.89 225.43 138.29 225.92C133.7 226.4 132.78 218.19 135.08 219.64C137.38 221.09 161.26 231.72 165.39 226.89C169.52 222.06 190.65 188.72 192.49 173.25C194.33 157.78 189.28 145.71 182.85 142.81C176.42 139.91 181.01 136.53 181.01 125.41C181.01 114.29 181.01 94.4795 185.14 93.5195C189.27 92.5495 198 91.5895 199.84 106.08C201.68 120.57 200.3 154.4 201.22 160.68C202.14 166.96 203.06 196.92 199.84 206.59C196.63 216.25 177.8 235.1 166.31 258.29C154.83 281.48 124.52 353.97 121.3 377.64C118.09 401.32 122.22 425.96 114.41 432.73C106.6 439.5 55.63 431.28 47.36 421.13C39.09 410.98 27.15 399.39 33.58 393.1C40.01 386.82 35.42 384.4 32.66 387.78" stroke="url(#paint0_linear_3784_5208)" stroke-width="4" stroke-miterlimit="10" stroke-linecap="round" stroke-linejoin="round"/>
<defs>
<linearGradient id="paint0_linear_3784_5208" x1="285.623" y1="91.0349" x2="285.623" y2="510.76" gradientUnits="userSpaceOnUse">
<stop stop-color="#FFD24A"/>
<stop offset="0.2231" stop-color="#FED048"/>
<stop offset="0.3338" stop-color="#FCCA40"/>
<stop offset="0.4198" stop-color="#F8BF33"/>
<stop offset="0.4926" stop-color="#F2B020"/>
<stop offset="0.5559" stop-color="#EB9D09"/>
<stop offset="0.8116" stop-color="#DF8803"/>
<stop offset="1" stop-color="#D97E00"/>
</linearGradient>
</defs>
</svg>
