<svg width="609" height="597" viewBox="0 0 609 597" fill="none" xmlns="http://www.w3.org/2000/svg">
<path d="M451.62 556.65C451.04 555.84 450.77 554.95 450.56 554.12L450.52 553.97C449.78 550.87 447.91 539.5 446.71 526.02C445.83 516.18 445.49 507.27 445.68 499.54C445.86 492.33 447.05 484.82 448.01 478.79L448.16 477.85C447.12 475.68 446.39 473.46 446.02 471.4C445.63 469.22 445.65 467.26 446.09 465.73C446.77 463.32 448.4 461.93 450.57 461.93C451.64 461.93 453.18 462.28 454.1 464.1C454.28 463.57 454.51 463.06 454.76 462.57C454.41 462.53 454.11 462.49 453.86 462.45C453.06 462.34 452.25 462.06 451.47 461.63C449.33 460.47 447.32 458.15 445.95 455.27C444.57 452.38 443.99 449.23 444.37 446.64C444.53 445.52 444.86 444.51 445.34 443.62C445.68 443 446.18 442.45 446.88 441.98C446.34 441.72 445.81 441.36 445.3 440.93C443.84 439.67 442.66 437.79 441.97 435.63C441.24 433.34 441.11 430.96 441.6 428.75C442.01 426.92 442.83 425.28 444.03 423.88C444.66 423.15 445.6 422.5 446.86 421.91C445.59 420.79 444.63 419.22 444.09 417.37C443.53 415.45 443.46 413.33 443.88 411.23C444.37 408.8 445.52 406.45 447.22 404.44C448.16 403.33 449.63 402.32 451.7 401.36C453.75 400.41 456.35 399.54 459.39 398.78C458.6 398.48 458.15 398.21 457.84 398C455.44 396.29 456.08 392.64 458.44 381.38C460.08 373.59 462.11 363.9 461.59 356.02C461.53 355.14 461.5 354.22 461.5 353.29C461.5 346.28 463.35 339.03 466.58 333.41C469.86 327.7 473.94 324.41 478.08 324.13C478.24 324.12 478.41 324.11 478.61 324.11C481.02 324.11 485.17 325.29 485.85 333.23C486.27 338.08 485.4 344.17 484.59 348.94C483.48 355.53 483.98 359.28 484.99 366.76C485.43 370.06 485.98 374.11 486.47 379.26C487.36 388.48 491.84 392.22 496.57 396.19C499.79 398.88 503.11 401.67 504.54 406.19C505.62 409.6 507.63 412.06 510.19 415.18C514.82 420.84 520.07 427.25 521.12 441.66C521.4 445.5 521.45 449.36 521.27 453.13C520.89 461.02 519.27 472.34 513.74 481.48C508.07 490.83 499.58 495.98 488.49 496.79C487.21 496.88 485.91 496.92 484.6 496.9H484.54C484.96 497.73 485.19 498.51 485.26 499.06C486.35 508.19 489.2 521.12 501.32 528.1C504.11 529.7 507.49 530.18 511.25 529.5C516.16 528.62 521.5 525.87 526.71 521.57C531.91 517.28 536.48 511.83 539.94 505.83C545.07 496.91 547.12 487.66 545.7 479.78C543.31 466.53 539.9 459.02 536.28 451.06C532.6 442.97 528.8 434.61 525.59 419.63C522.84 406.79 519.05 396.5 515.38 386.54C510.36 372.9 505.62 360.03 503.18 341.16C501.23 326.06 498.9 313.67 496.26 304.35C492.71 291.82 489.75 289.11 488.64 288.52C488.36 288.37 488.08 288.28 487.81 288.23L486.58 288.04L486.06 286.9C485.47 285.61 484.52 284.82 482.98 284.33C477.09 282.48 466.8 278.68 452.41 273.04C445.09 270.17 436.92 266.91 427.58 263.12C429.96 265.85 430.24 267.13 430.1 268.07C429.54 272 423.48 272.73 413.57 273.47C412.25 273.57 410.9 273.67 409.65 273.77C410.72 274.22 411.91 274.71 413.16 275.23C424.76 280.03 433.68 284.14 434.11 289.58C434.44 293.71 432.6 303.72 412.9 342.81C399.95 368.5 382.52 400.45 367.15 428.65C354.19 452.41 339.59 472.93 327.86 489.41C324.41 494.26 321.14 498.85 318.39 502.87C322.36 509.99 324.51 515.7 325.34 521.29C326.12 526.52 324.32 530.95 320.42 533.43C318.62 534.57 316.51 535.18 314.33 535.18H314.04C311.71 535.12 309.51 534.38 307.68 533.03C305.41 531.35 301.84 527.31 303.39 519.06C304.05 515.56 306.61 510.63 311.91 502.65C310.19 499.75 308.32 496.82 306.36 493.74C303.29 488.93 300.15 484.01 297.28 478.77C292.04 469.22 272.44 428.83 255.2 388.87C242.98 360.55 234.77 338.88 231.46 326.2C226.62 307.63 223.76 295.2 222.48 287.09C220.98 277.59 221.73 273.08 225 271.99C226.18 271.6 228.65 271.19 232.57 270.55C236 269.99 241.52 269.1 244.74 268.41C244.37 268.19 244.02 267.98 243.74 267.81C240.59 265.95 236.67 263.63 237.27 260.01C237.63 257.87 240.44 256.31 249.69 252.96C242.07 255.48 233.84 257.91 226.01 259.92C221.48 261.09 217.09 262.16 212.84 263.2C208.28 264.32 203.75 265.28 199.37 266.21C189.68 268.27 179.66 270.4 177.38 272.84C176.87 273.41 176.05 275.87 175.25 279.75C175.66 280.36 176.05 281.02 176.44 281.75C179.87 288.3 182.35 300.65 177.11 307.61C176.58 308.31 174.98 310.45 172.8 310.11C171.9 309.97 170.68 309.36 169.95 307.25C168.42 302.82 169.23 290.17 170.98 280.76C170.14 279.82 169.4 279.43 168.91 279.41C168.34 279.43 167.41 280.23 166.49 282.41C164.43 287.26 162.91 291.36 161.58 294.97C158.77 302.57 156.55 308.57 151.26 316.21C142.9 328.29 139.02 342.03 135.28 355.31C130.82 371.13 126.22 387.48 114.15 401.9C101.83 416.63 93.47 429.83 88.59 442.26C82.81 456.99 82.24 470.46 86.88 482.29C91.98 495.3 99.2 501.9 108.34 501.9C111.05 501.9 113.92 501.31 116.89 500.15C121.12 498.49 125.57 495.66 129.77 491.96C130.37 491.43 130.98 490.87 131.57 490.3C130.68 489.76 129.79 489.19 128.92 488.59C122.09 483.86 117.15 477.51 113.81 469.17C110.93 461.97 109.25 453.19 108.66 442.32C107.98 429.83 113.23 421.6 118.3 413.64C121.42 408.75 124.36 404.13 125.76 398.75C128.54 388.05 134.77 384.43 140.26 381.25C142.52 379.94 144.85 378.59 146.95 376.8C148.56 375.42 151.13 371.8 154.23 362.4C158.05 350.8 160.73 336.37 161.47 332.22C161.83 330.16 162.35 328.29 163.01 326.65C164.14 323.82 165.67 321.69 167.54 320.32C169.62 318.81 172.12 318.27 174.8 318.75C175.69 318.91 176.62 319.18 177.55 319.55L177.64 319.59C181.66 321.31 183.65 327.44 183.6 337.83C183.56 345.54 182.26 354.33 180.5 358.73L180.37 359.04C178.37 363.71 178.93 375.39 179.31 383.11C179.57 388.42 179.67 390.8 179.36 391.94C179.24 392.37 179.03 392.74 178.74 393.02C180.68 394.41 182.17 395.75 183.13 396.96C183.96 398.01 184.68 399.25 185.28 400.64C186.66 403.86 187.28 407.76 186.97 411.32C186.63 415.22 185.24 418.33 183.05 420.06C182.55 420.46 181.99 420.79 181.41 421.04C180.49 421.43 179.29 421.62 177.7 421.61C179.09 422.65 179.47 423.11 179.64 423.32C180.05 423.81 180.41 424.41 180.71 425.11C181.59 427.14 181.92 429.86 181.6 432.39C181.21 435.36 179.95 437.87 178.05 439.46C177.43 439.98 176.74 440.4 175.98 440.73C175.85 440.78 175.73 440.83 175.59 440.88V441.17H175.5C176.14 442.01 176.62 442.85 176.92 443.68C177.12 444.22 177.24 444.78 177.29 445.35C177.49 447.61 176.53 450.18 174.6 452.58C172.94 454.65 170.77 456.31 168.81 457.03C168.26 457.23 167.74 457.35 167.25 457.4C166.79 457.44 166.31 457.47 165.81 457.48C165.81 457.48 165.81 457.49 165.82 457.49C166.89 458.92 167.38 460.79 167.2 462.76C167.01 464.76 166.15 466.55 164.83 467.68C162.18 469.94 158.46 471.38 153.78 471.95C151.87 472.18 149.82 472.26 147.71 472.2C147.38 475.71 144.92 480.04 142.9 483.07C141.53 485.13 139.91 487.22 138.15 489.23C142.16 490.99 146.13 491.89 149.97 491.89C150.59 491.89 151.22 491.87 151.85 491.82C158.32 491.31 163.89 488.17 167.97 482.73C174.04 474.64 177.47 461.81 181.1 448.24C183.1 440.78 185.15 433.11 187.72 426.02C187.63 421.72 187.53 417.7 187.44 413.95C186.78 387.22 186.48 375.02 192.86 374.48C193.38 374.43 194.06 374.52 194.63 374.75C196.11 375.35 197.23 376.91 197.95 379.37C198.45 381.08 198.82 383.32 199.04 386.01C199.94 396.86 198.44 414.04 194.37 424.03C193.99 424.96 193.61 425.94 193.23 426.95C193.47 438.94 193.67 454.89 193.16 473.25L193 478.83C191.5 533.22 191.09 547.84 185.67 555.06L182.47 552.66C187.12 546.46 187.59 529.39 189 478.72L189.16 473.14C189.58 458.06 189.52 444.6 189.35 433.69C187.75 438.8 186.34 444.07 184.96 449.23C181.21 463.23 177.68 476.41 171.16 485.12C166.38 491.5 159.81 495.19 152.15 495.8C151.42 495.86 150.69 495.88 149.96 495.88C145.33 495.88 140.57 494.76 135.81 492.56L135.27 492.31L135.25 492.33L135.23 492.32L134.84 492.7C134.05 493.48 133.23 494.24 132.41 494.96C127.87 498.97 123 502.05 118.35 503.88C114.92 505.22 111.55 505.91 108.34 505.91C97.39 505.91 88.92 498.46 83.16 483.76C78.14 470.96 78.72 456.51 84.87 440.81C89.91 427.97 98.48 414.4 111.08 399.34C122.59 385.58 127.08 369.64 131.42 354.24C135.25 340.63 139.22 326.57 147.96 313.94C152.96 306.72 155 301.21 157.82 293.59C159.17 289.94 160.7 285.8 162.8 280.86C164.29 277.36 166.29 275.53 168.74 275.43C169.82 275.39 170.89 275.71 171.93 276.36C172.69 273.36 173.55 271.09 174.44 270.14C177.42 266.94 185.54 265.08 198.53 262.32C202.88 261.4 207.37 260.44 211.81 259.36C216.12 258.31 220.5 257.23 225 256.07C234.46 253.63 244.52 250.6 253.32 247.51C262.14 244.42 269.05 241.5 271.81 239.71C277.84 235.78 281.81 227.95 283.65 223.63L285.92 218.29L287.94 223.73C288.28 224.64 288.66 225.51 289.07 226.34C290.77 229.74 294.07 233.43 298.86 237.28C303.04 240.64 308.31 244.13 314.96 247.94C316.68 248.92 318.67 249.99 320.6 251.01C323.21 252.4 325.88 253.83 328.49 255.39L329.62 256.07L333.46 254.29C353.15 245.18 374.77 231.04 376.1 221.34C376.06 219.38 376.11 216.6 376.19 212.72C376.21 211.69 376.23 210.54 376.25 209.41C372.9 214.2 369.34 218.47 367.42 220.06C360.72 225.57 353.28 229.36 345.29 231.31C335.49 233.71 325.9 232.69 317.07 228.33C305.87 222.79 297.96 212.98 293.3 205.72C285.86 194.15 285.1 175.39 284.49 160.31C284.3 155.64 284.12 151.25 283.76 147.77C283.46 144.91 282.97 142.27 282.3 139.88C284.59 157.45 285.23 166.26 281.74 168.75C280.77 169.44 279.77 169.79 278.77 169.79C276.46 169.79 274.66 168.08 273.44 164.69C272.13 161.07 271.52 155.99 271.24 152.37C271.08 150.32 270.15 147.35 269.17 144.2C266.84 136.76 264.21 128.36 269.88 126.06C270.6 125.77 271.33 125.58 272.05 125.5C274.2 125.28 276.24 125.96 278.13 127.51C277.77 124.75 277.42 121.97 277.1 119.26C276.9 118.02 276.54 116.1 276.15 113.96C274.52 105.06 273.18 97.4696 273.33 94.7696C273.61 89.7496 274.52 82.1297 277.3 74.2997C278.32 71.4197 279.64 68.5896 281.21 65.8796C288.21 53.8196 300.09 44.2396 314.67 38.9096C322.41 36.0796 330.39 34.6396 338.37 34.6396C345.41 34.6396 352.18 35.7796 358.49 38.0196C361.66 39.1496 364.73 40.5596 367.6 42.2296C377.98 48.2496 386.09 56.1796 391.73 65.7896C397.38 75.4296 400.55 86.7496 401.14 99.4196C401.68 111.01 400.13 120.61 398.22 129.24C399.44 128.9 400.69 128.94 401.81 129.34C403.31 129.88 404.53 131.03 405.33 132.67C407.29 136.68 406.51 142.69 403.14 149.61C401.3 153.38 400.49 157.69 399.76 161.49C398.77 166.7 397.99 170.81 394.85 171.59C394.53 171.67 394.22 171.71 393.92 171.71C391.53 171.71 390.18 169.79 389.91 165.99C389.69 162.79 390.07 157.99 391.18 149.95C391.78 145.59 392.81 141.2 393.92 136.58C393.11 138.21 392.46 140.17 392.04 142.37C391.22 146.6 390.48 151.84 389.85 157.95C388.98 166.34 388.53 174.22 388.34 178.17C388.08 183.46 386.01 190.98 382.79 198.28C382.1 199.84 381.19 201.57 380.15 203.34C380.32 204.7 380.29 207.44 380.18 212.79C380.12 215.48 380.05 219.11 380.09 221.45H380.1C380.1 221.48 380.09 221.5 380.09 221.53C380.11 222.55 380.16 223.31 380.24 223.63C382.41 230.34 384.88 237.98 385.15 247.64C385.43 257.81 370.48 314.08 357.58 359.18C345.23 402.38 327.97 458.84 319.96 475.79C319.28 477.22 318.53 478.51 317.77 479.51C316.77 480.84 316.43 481.28 315.5 481.46L315.25 481.51L314.95 481.5C313.84 481.43 312.98 480.65 312.76 479.57C312.29 478.74 311.74 477.57 311.14 476.09C307.84 467.88 302.93 450.5 298 429.59C294.67 415.47 289.83 393.29 285.63 367.84C283.16 352.87 281.16 336.73 279.67 319.88C277.63 296.84 277.09 278.4 277.09 271.15C277.09 261.56 277.13 252.49 277.59 246.87C272.6 249.22 264.76 251.94 257.75 254.37C251.83 256.42 243.1 259.45 241.22 260.96C241.61 261.94 244.46 263.63 245.74 264.39C248.92 266.28 250.52 267.22 250.52 269.02C250.52 271.62 248.81 271.98 233.2 274.51C230.21 274.99 227.15 275.49 226.21 275.8C226.21 275.82 224.9 277.11 226.38 286.48C227.64 294.46 230.47 306.76 235.28 325.21C238.54 337.7 246.68 359.17 258.82 387.3C276.02 427.15 295.53 467.37 300.74 476.86C303.55 481.98 306.65 486.84 309.65 491.54C311.62 494.63 313.47 497.53 315.19 500.42C317.93 496.42 321.15 491.89 324.54 487.13C336.22 470.71 350.74 450.3 363.59 426.75C378.95 398.58 396.37 366.66 409.28 341.03C423.53 312.75 430.53 295.56 430.08 289.92C429.8 286.48 417.5 281.39 411.59 278.94C407.4 277.21 404.88 276.15 403.62 275.55C402.62 275.08 401.12 274.36 401.3 272.63C401.49 270.69 403.41 270.42 404.45 270.27C405.76 270.09 408.14 269.87 413.23 269.49C416.54 269.24 424.01 268.69 425.88 267.52C425.5 266.9 424.51 265.57 422 263.13C416.03 260.27 403.57 253.24 397.09 248.84C393.43 246.36 390.37 244.05 388.24 242.16C386.13 240.3 383.47 237.54 384.73 235.06C384.84 234.84 384.97 234.65 385.11 234.48C385.81 233.62 386.85 233.22 388.12 233.4C388.75 233.49 390.73 233.77 399.34 239.8C404.21 243.21 409.99 247.6 415.21 251.84C416.72 253.07 418.16 254.27 419.48 255.41C420.66 255.96 421.77 256.45 422.79 256.86C434.79 261.75 444.95 265.82 453.84 269.31C468.14 274.92 478.34 278.69 484.14 280.51C486.44 281.23 488.16 282.56 489.26 284.47C489.67 284.6 490.07 284.76 490.46 284.97C493.96 286.82 497.09 292.8 500.06 303.24C502.76 312.75 505.13 325.33 507.1 340.63C509.48 359.05 514.14 371.72 519.08 385.13C522.8 395.23 526.64 405.66 529.45 418.77C532.57 433.33 536.28 441.49 539.87 449.38C543.59 457.57 547.11 465.3 549.58 479.05C551.17 487.86 548.95 498.07 543.35 507.81C539.66 514.22 534.77 520.04 529.21 524.63C523.47 529.37 517.49 532.41 511.91 533.42C507.21 534.27 502.89 533.63 499.27 531.55C485.59 523.67 482.43 509.5 481.24 499.51C481.24 499.5 480.49 496.66 477.81 496.32C463.29 494.5 455.54 486.83 451.68 481.01C450.8 486.62 449.81 493.28 449.66 499.6C449.47 507.18 449.81 515.93 450.68 525.62C451.85 538.73 453.7 550.09 454.39 552.99L454.42 553.12C454.52 553.53 454.65 554 454.86 554.29L451.62 556.65ZM315.07 505.16C310.32 512.32 307.85 517 307.32 519.83C306.18 525.94 308.55 528.73 310.06 529.85C311.22 530.71 312.63 531.18 314.14 531.22H314.33C315.75 531.22 317.12 530.83 318.28 530.09C320.83 528.47 321.93 525.57 321.39 521.91C320.65 516.9 318.69 511.69 315.07 505.16ZM453.88 476.94C456.78 482.13 463.66 490.55 478.34 492.39C479.95 492.59 481.25 493.23 482.26 494.07L482.24 493.84C482.11 492.25 482 490.91 481.85 489.95C481.52 487.81 482.07 486.03 482.83 484.67C475.67 484.02 466.88 482.43 464.19 481.93C462.87 481.68 461.61 481.24 460.46 480.61C457.89 479.21 455.88 476.95 454.64 474.07C454.55 473.86 454.47 473.65 454.38 473.43C454.24 474.56 454.06 475.75 453.88 476.94ZM486.45 486.4C485.87 487.34 485.66 488.32 485.81 489.33C485.96 490.3 486.07 491.51 486.18 492.9C486.85 492.89 487.52 492.85 488.19 492.81C497.91 492.1 505.36 487.59 510.31 479.41C515.41 470.99 516.91 460.37 517.27 452.94C517.44 449.33 517.4 445.64 517.13 441.96C516.17 428.81 511.55 423.18 507.09 417.73C504.49 414.55 502.03 411.55 500.72 407.41C499.64 404 497.03 401.81 494 399.27C489.09 395.16 483.53 390.5 482.48 379.65C481.99 374.58 481.45 370.57 481.02 367.35C479.99 359.67 479.42 355.46 480.64 348.28C481.41 343.75 482.24 337.98 481.86 333.58C481.39 328.12 479.29 328.12 478.6 328.12C478.5 328.12 478.4 328.12 478.33 328.13C475.67 328.31 472.57 331.03 470.05 335.41C467.16 340.44 465.5 346.96 465.5 353.29C465.5 354.13 465.53 354.96 465.58 355.75C466.14 364.18 464.04 374.18 462.36 382.2C461.32 387.16 460.03 393.29 460.38 394.86C460.81 395.07 462.01 395.53 465 396.07C467.47 395.64 470 395.29 472.54 395.03C475.37 394.74 478.15 394.59 480.57 394.59C487.65 394.59 489.14 395.85 489.62 396.26C490.03 396.61 490.35 397.02 490.57 397.49C490.94 398.29 490.99 399.14 490.71 399.95C490.21 401.42 488.71 402.35 486.26 402.72C484.98 402.91 483.29 403.01 481.23 403.01H480.83C476.18 402.98 470.08 402.44 465.2 401.62C460.25 402.53 456.2 403.69 453.39 404.99C451.51 405.86 450.66 406.58 450.28 407.02C449.01 408.52 448.16 410.24 447.8 412.01C447.51 413.48 447.55 414.95 447.93 416.25C448.26 417.4 448.83 418.33 449.55 418.95C449.68 419.06 449.81 419.16 449.95 419.24C451.7 418.74 453.74 418.29 456.03 417.91C461.53 416.99 468.53 416.45 474.75 416.45C481.85 416.45 486.26 417.15 487.85 418.52C488.48 419.06 488.88 419.76 489 420.52C489.05 420.8 489.06 421.09 489.03 421.37C488.74 424.4 484.43 425.05 483.01 425.26C480.83 425.59 477.81 425.81 474.04 425.91C472.44 425.96 470.7 425.98 468.88 425.98C461.01 425.98 452.7 425.55 449.84 425.01C447.82 425.72 447.19 426.32 447.04 426.49C446.27 427.38 445.75 428.43 445.49 429.61C445.15 431.13 445.25 432.79 445.76 434.41C446.23 435.88 446.98 437.12 447.89 437.9C448.29 438.24 448.67 438.46 449.02 438.53C449.48 438.63 450.13 438.77 450.89 438.91C454.86 437.9 460.41 437.32 466.27 437.3H466.54C470.28 437.3 473.94 437.52 476.86 437.92C480.55 438.42 482.98 439.19 484.31 440.26C485.83 441.49 485.9 442.93 485.81 443.68L485.76 443.98C484.93 447.65 479.34 447.71 477.5 447.73H477.1C474.16 447.73 470.3 447.43 465.6 446.85C459.15 446.04 453.08 444.94 450.82 444.51C449.1 445.08 448.83 445.53 448.83 445.54C448.58 446.01 448.4 446.57 448.31 447.21C448.05 449.02 448.51 451.39 449.55 453.55C450.55 455.65 451.98 457.36 453.37 458.12C453.74 458.32 454.09 458.44 454.42 458.49C454.97 458.57 455.8 458.66 456.83 458.75C457.2 458.56 457.59 458.38 458.01 458.22C461.46 456.84 467.11 456.05 473.53 456.05H474.09C478.72 456.09 485.02 456.61 487.54 457.99C488.44 458.48 489.05 459.13 489.37 459.92C489.52 460.29 489.59 460.66 489.6 461.04C489.62 462.41 488.86 464.16 485.1 464.74C483.71 464.95 481.73 465.09 479.2 465.14C472.85 465.27 464.02 464.84 458.3 464.39C457.96 465.01 457.72 465.71 457.58 466.48C457.22 468.39 457.48 470.5 458.32 472.44C459.2 474.49 460.6 476.08 462.38 477.05C463.16 477.48 464.02 477.78 464.93 477.95C467.69 478.47 477.02 480.16 484.13 480.72C484.44 480.45 484.77 480.19 485.12 479.95C486.09 479.26 487.15 478.71 488.2 478.36C489.37 477.97 490.51 477.81 491.53 477.93C493.58 478.15 495.07 479.36 495.6 481.23C495.71 481.61 495.76 482.01 495.74 482.4C495.69 483.57 495.05 485.64 491.34 486.21C490.11 486.42 488.48 486.48 486.45 486.4ZM172.92 322.63C171.78 322.63 170.79 322.95 169.88 323.61C168.62 324.53 167.55 326.07 166.71 328.19C166.16 329.57 165.71 331.18 165.4 332.97C164.66 337.18 161.93 351.86 158.02 363.71C155.26 372.08 152.49 377.37 149.55 379.9C147.18 381.93 144.68 383.38 142.27 384.78C136.98 387.85 131.99 390.74 129.63 399.83C128.08 405.82 124.97 410.69 121.68 415.86C116.94 423.29 112.05 430.97 112.66 442.18C113.22 452.6 114.82 460.97 117.53 467.76C120.56 475.35 125.04 481.11 131.2 485.38C132.27 486.12 133.36 486.81 134.45 487.43C136.36 485.33 138.12 483.1 139.57 480.92C141.48 478.05 142.82 475.43 143.41 473.43C141.36 473.18 139.47 472.81 138.31 472.42C136.18 471.71 135.58 470.28 135.4 469.5C135.16 468.38 135.46 467.26 136.25 466.33C136.76 465.73 137.48 465.23 138.33 464.89C139.16 464.56 140.12 464.38 141.11 464.38C142.42 464.38 144.44 464.69 146.64 466.15C147.44 466.68 148.06 467.41 148.48 468.28C150.16 468.31 151.8 468.23 153.31 468.05C157.2 467.58 160.21 466.46 162.24 464.72C162.76 464.27 163.13 463.43 163.22 462.47C163.31 461.49 163.1 460.61 162.63 459.98C162.39 459.66 162.09 459.32 161.72 458.97C155.76 458.52 148.37 456.82 141.79 454.38C137.08 452.64 129.13 449.09 128.77 444.88C128.76 444.73 128.75 444.54 128.76 444.34C128.79 443.63 129.05 442.97 129.52 442.43C130.52 441.27 132.36 440.92 135.17 441.37C136.97 441.66 139.29 442.24 141.87 443.05C149.04 445.3 158.5 449.38 163.86 453.57C164.98 453.6 166 453.58 166.93 453.5C167.01 453.49 167.17 453.47 167.45 453.37C168.72 452.9 170.31 451.64 171.5 450.16C172.76 448.59 173.42 447 173.32 445.78C173.3 445.56 173.25 445.35 173.18 445.15C172.9 444.4 172.3 443.55 171.44 442.66C166.82 442.18 159.3 439.99 151.08 436.73C147.5 435.31 135.71 430.44 134.37 427.35C134.19 426.93 134.09 426.5 134.09 426.07C134.09 425.01 134.59 424.11 135.5 423.52C136.56 422.83 138.28 422.76 140.93 423.24C142.87 423.59 145.32 424.22 148.03 425.04C155.91 427.44 167.18 432.05 173.55 437.25C174.19 437.23 174.39 437.14 174.4 437.14C174.81 436.96 175.17 436.74 175.5 436.47C176.63 435.53 177.39 433.92 177.65 431.95C177.89 430.14 177.66 428.16 177.06 426.78C176.87 426.35 176.7 426.09 176.58 425.96C176.33 425.66 175.08 424.62 172.02 422.63C167.26 421.82 161.42 420.19 156.24 418.24C151.08 416.29 144.63 413.28 143.24 410.02C142.94 409.33 142.83 408.61 142.91 407.9C142.98 407.23 143.22 406.63 143.62 406.11C144.13 405.45 145.13 404.65 147.02 404.65C147.89 404.65 148.91 404.82 150.06 405.15C151.89 405.68 154.29 406.63 157.17 408C163.11 410.81 169.66 414.64 173.93 417.36C174.42 417.43 174.85 417.49 175.26 417.53C176.23 417.64 177.09 417.69 177.82 417.69C179.12 417.69 179.67 417.52 179.84 417.44C180.11 417.32 180.36 417.18 180.58 417C181.88 415.97 182.76 413.8 183 411.05C183.25 408.12 182.75 404.93 181.62 402.29C181.16 401.22 180.62 400.28 180 399.51C179.04 398.3 177.21 396.8 174.83 395.26C173.71 395.26 172.44 395.16 171.05 394.96C169.29 394.71 167.34 394.32 165.43 393.85C163.48 393.37 161.61 392.8 160 392.2C154.99 390.34 152.75 388.07 153.35 385.46C153.49 384.87 153.75 384.35 154.14 383.91C155.31 382.58 157.4 382.22 160.43 382.88C162.38 383.3 164.84 384.13 167.54 385.27C170.25 386.41 173.03 387.81 175.54 389.27C175.52 387.78 175.41 385.56 175.3 383.39C174.86 374.31 174.31 363.05 176.67 357.54L176.77 357.3C178.31 353.45 179.55 344.91 179.58 337.87C179.62 329.97 178.25 324.27 176.08 323.34C175.36 323.05 174.7 322.86 174.08 322.75C173.7 322.66 173.3 322.63 172.92 322.63ZM490.84 481.92C490.44 481.92 489.97 482.01 489.47 482.18C489.26 482.25 489.05 482.33 488.84 482.43C489.59 482.41 490.22 482.36 490.72 482.28C491.13 482.22 491.4 482.14 491.58 482.08C491.49 482.01 491.34 481.96 491.08 481.93C491 481.93 490.92 481.92 490.84 481.92ZM316.72 478.87C316.72 478.88 316.72 478.89 316.72 478.9C316.72 478.89 316.72 478.88 316.72 478.87ZM293.56 389.37C296.6 405.29 299.63 418.93 301.93 428.7C306.81 449.42 311.65 466.59 314.88 474.62C315.08 475.11 315.26 475.54 315.42 475.91C315.74 475.37 316.06 474.77 316.37 474.12C323.47 459.07 338.08 412.11 349.9 371.49L347.5 371.29C347.6 370.13 347.62 365.25 345.72 345.04C344.26 329.43 342.27 311.5 341.11 303.34C341.04 302.88 340.93 302.2 340.79 301.33L340.76 301.13C340.15 297.49 339.57 293.77 339.14 290.2C337.89 290.96 335.81 291.3 332.51 291.3C330.7 291.3 328.82 291.2 327.17 291.11L326.69 291.08L326.76 289.8L326.25 290.57C325.6 291.55 325.15 292.64 324.92 293.8C324.58 295.52 324.15 297.82 323.72 300.29L323.48 301.67L322.14 302.09C321.96 302.15 321.65 302.28 321.21 302.58C320.53 303.05 316.73 306.72 309.08 332.86C301.84 357.58 295.9 385.91 296.15 388.81C296.14 388.74 296.13 388.68 296.11 388.64L293.56 389.37ZM450.56 465.94C450.38 465.96 450.15 466.08 449.94 466.82C449.68 467.74 449.69 469.15 449.96 470.7C450.08 471.36 450.24 472.04 450.45 472.73C450.69 470.95 450.85 469.31 450.85 468.05C450.85 466.72 450.65 466.15 450.56 465.94ZM139.67 468.63C140.55 468.91 142.32 469.26 144.47 469.5C144.45 469.48 144.42 469.47 144.4 469.45C143.03 468.54 141.85 468.35 141.09 468.35C140.61 468.35 140.15 468.43 139.8 468.57C139.76 468.59 139.71 468.61 139.67 468.63ZM463.97 460.78C468.93 461.06 474.65 461.25 479.12 461.16C480.98 461.12 482.5 461.04 483.65 460.91C481.62 460.48 478.29 460.09 474.07 460.06H473.52C470 460.06 466.69 460.32 463.97 460.78ZM133.19 445.14C134.25 446.28 137.27 448.41 143.17 450.59C148.06 452.4 153.4 453.78 158.18 454.5C153.12 451.42 146.2 448.57 140.66 446.83C138.25 446.08 136.13 445.54 134.52 445.28C134.02 445.2 133.57 445.16 133.19 445.14ZM458.17 441.74C460.55 442.13 463.3 442.54 466.11 442.89C470.64 443.46 474.34 443.74 477.1 443.74H477.48C479.81 443.72 480.98 443.42 481.52 443.21C480.97 442.91 479.56 442.35 476.33 441.91C473.59 441.53 470.12 441.33 466.56 441.33H466.29C463.43 441.33 460.67 441.48 458.17 441.74ZM140.1 427.12C142.44 428.52 146.6 430.62 152.54 432.98C158.23 435.24 163.52 436.95 167.61 437.9C161.55 434.07 153.1 430.74 146.85 428.83C144.29 428.05 141.99 427.46 140.2 427.14C140.17 427.13 140.13 427.13 140.1 427.12ZM457.61 421.72C462.58 421.97 469.01 422.07 473.93 421.94C477.54 421.84 480.39 421.63 482.41 421.33C482.9 421.26 483.31 421.18 483.65 421.1C482.08 420.79 479.27 420.47 474.75 420.46C469.08 420.45 462.75 420.92 457.61 421.72ZM193.09 378.49C193.1 378.54 191.8 379.17 191.32 386.83C190.92 393.16 191.15 402.31 191.43 413.89C191.48 415.88 191.53 417.94 191.58 420.07C194.73 410.44 195.84 395.9 195.05 386.4C194.85 383.97 194.53 382 194.1 380.55C193.63 378.91 193.14 378.52 193.09 378.49ZM147.03 408.63C147.67 409.51 150.37 411.72 157.65 414.47C160.3 415.47 163.13 416.38 165.87 417.13C162.58 415.22 158.9 413.22 155.45 411.59C152.76 410.32 150.58 409.44 148.95 408.97C147.98 408.69 147.37 408.63 147.03 408.63ZM475.43 398.79C477.34 398.92 479.18 399 480.83 399.01H481.22C482.76 399.01 484.05 398.95 485.06 398.84C484.03 398.7 482.57 398.59 480.55 398.59C478.98 398.59 477.24 398.66 475.43 398.79ZM157.71 386.54C158.27 387 159.38 387.68 161.39 388.43C162.86 388.97 164.59 389.5 166.39 389.95C167.52 390.23 168.67 390.48 169.77 390.68C168.52 390.05 167.25 389.47 165.99 388.94C163.51 387.89 161.29 387.14 159.59 386.77C158.85 386.61 158.2 386.53 157.71 386.54ZM281.69 246.42C281.69 246.45 281.68 246.48 281.68 246.51C281.17 251.86 281.13 261.23 281.13 271.17C281.13 278.36 281.67 296.64 283.7 319.55C285.18 336.3 287.17 352.34 289.63 367.21C290.61 373.16 291.63 378.93 292.65 384.46C294.34 373.49 300.29 348.62 305.23 331.74C310.83 312.61 315.44 301.69 318.94 299.29C319.28 299.06 319.61 298.86 319.94 298.69C320.32 296.54 320.69 294.55 321 293.02C321.21 291.95 321.55 290.93 322.01 289.96C320.89 288.82 319.99 286.81 318.9 284.38C318.03 282.44 316.45 278.91 315.18 277.03C307.26 289.44 301.79 296.58 297.67 296.58C297.55 296.58 297.44 296.57 297.33 296.56C294.08 296.23 290.63 292.32 286.77 284.6C284.53 280.11 282.78 275.67 281.94 273.42L285.69 272.02C286.5 274.2 288.19 278.49 290.35 282.81C294.97 292.05 297.44 292.55 297.71 292.58C299.09 292.46 302.9 288.99 312.94 273.11L314.09 271.3L315.98 272.3C318.3 273.53 320.17 277.4 322.57 282.75C323.21 284.18 324.14 286.26 324.72 286.99H328.65L328.53 287.17C329.84 287.24 331.22 287.29 332.53 287.29C336.24 287.29 337.05 286.8 337.09 286.77C337.11 286.76 337.11 286.75 337.12 286.75L338.57 283.97C338.16 277.76 338.5 272.54 340.32 269.8L340.71 269.22C339.76 267.95 338.76 266.74 337.73 265.62C335.81 263.55 333.43 261.58 330.47 259.59L329.49 258.93L328.36 259.48C325.45 260.89 323.68 261.89 322.94 262.52C322.13 263.22 319.22 267.84 316.88 271.56L313.49 269.43C317.05 263.77 319.12 260.52 320.33 259.48C321.04 258.87 322.13 258.18 323.8 257.29C322.13 256.35 320.44 255.45 318.79 254.57C316.82 253.52 314.8 252.44 313.03 251.43C306.19 247.51 300.76 243.91 296.41 240.42C291.38 236.37 287.81 232.41 285.8 228.64C284.48 231.28 282.69 234.34 280.42 237.15C282.1 237.06 283.48 238.54 284.33 239.65C285.13 240.69 285.33 241.91 284.91 243.08C284.58 244 283.88 244.86 282.77 245.7C282.42 245.94 282.08 246.18 281.69 246.42ZM342.65 274.98C341.57 281.77 343.85 295.41 344.69 300.41L344.73 300.66C344.88 301.56 345 302.28 345.07 302.76C346.24 310.98 348.24 328.99 349.7 344.65C350.38 351.93 351.13 360.56 351.41 366.26C352.21 363.5 352.99 360.78 353.75 358.11C362.2 328.56 369.29 302.17 374.15 282.49C373.16 284.32 372.05 286.3 370.91 288.24C369.42 290.77 367.21 294.39 365.1 297.33C362.4 301.08 360.35 302.75 358.46 302.75C357.83 302.75 357.23 302.56 356.73 302.19C353.25 299.69 351.31 294.78 348.85 288.56C347.17 284.3 345.3 279.58 342.65 274.98ZM174.14 286.43C174 287.45 173.87 288.51 173.75 289.62C172.82 298.06 173.07 303.55 173.62 305.65C173.71 305.54 173.81 305.41 173.93 305.27C177.07 301.07 176.57 292.81 174.14 286.43ZM342.99 268.08L344.14 269.8C348.04 275.64 350.45 281.72 352.57 287.09C354.65 292.36 356.33 296.59 358.62 298.59C359.09 298.27 360.12 297.39 361.85 294.99C363.87 292.18 366.02 288.67 367.46 286.21C369.29 283.1 371.05 279.88 372.3 277.39C373.23 275.53 373.54 274.48 373.65 274.02L376.07 274.57C379.41 260.49 381.26 250.97 381.17 247.79C380.96 240.22 379.28 233.86 377.51 228.19C368.42 242.22 338.97 256.17 335.14 257.94L335.07 257.97C337.22 259.57 339.05 261.2 340.62 262.9C341.8 264.17 342.94 265.55 344.01 267L344.16 267.21L342.99 268.08ZM390.55 238.85C390.67 238.96 390.79 239.07 390.92 239.19C392.93 240.97 395.86 243.17 399.37 245.56C401.29 246.86 403.73 248.39 406.38 249.98C403.16 247.5 399.95 245.13 397.07 243.12C394.2 241.1 392.07 239.74 390.55 238.85ZM277.08 240.7C276.12 241.58 275.09 242.39 274.01 243.1C271.51 244.73 266.53 246.96 259.76 249.49C266.1 247.28 272.6 244.94 276.58 242.98C276.69 242.28 276.85 241.48 277.08 240.7ZM280.93 241.84C280.91 241.9 280.9 241.96 280.88 242.02C280.92 241.98 280.95 241.94 280.98 241.91C280.96 241.88 280.94 241.86 280.93 241.84ZM282.57 130.39C283.41 131.72 284.15 133.17 284.8 134.77C286.27 138.38 287.26 142.62 287.76 147.38C288.14 150.98 288.32 155.44 288.51 160.16C289.1 174.77 289.83 192.93 296.68 203.59C301.07 210.42 308.49 219.65 318.86 224.78C326.85 228.73 335.47 229.64 344.36 227.46C351.76 225.65 358.67 222.13 364.9 217C367.65 214.73 376 203.91 379.17 196.71C382.16 189.94 384.15 182.77 384.38 178.02C384.57 174.03 385.03 166.06 385.91 157.58C386.56 151.36 387.31 145.99 388.16 141.65C389.15 136.56 391.21 132.45 394 129.99C396 121.23 397.73 111.48 397.18 99.6497C396.62 87.6297 393.64 76.9296 388.32 67.8496C383.04 58.8396 375.41 51.3996 365.64 45.7296C362.98 44.1896 360.13 42.8697 357.19 41.8297C351.31 39.7397 345 38.6796 338.41 38.6796C330.9 38.6796 323.39 40.0296 316.09 42.7096C302.38 47.7196 291.24 56.6796 284.71 67.9296C283.26 70.4296 282.05 73.0296 281.11 75.6796C278.49 83.0597 277.62 90.2796 277.36 95.0296C277.3 96.1396 277.64 98.7796 278.13 101.89C278.23 101.48 278.33 101.07 278.43 100.64C280.06 93.8596 282.28 84.5996 285.84 78.6396C287.85 75.2696 291.51 73.7597 297.71 73.7597C300.99 73.7597 304.74 74.1696 308.72 74.5996C313.47 75.1196 318.36 75.6497 323.39 75.6497C329.31 75.6497 334.33 74.8797 338.73 73.2997C348.99 69.6097 358.56 68.5296 366.68 70.1396C374.88 71.7596 381.58 76.1496 386.04 82.8496C391.43 90.9396 392.8 104.25 393.71 113.06C394.06 116.47 394.54 121.13 395.25 121.97C395.21 121.92 395.01 121.76 394.71 121.74L394.63 125.74L394.36 125.73C390.96 125.42 390.5 120.93 389.73 113.48C388.86 105.05 387.56 92.3296 382.71 85.0596C378.85 79.2696 373.04 75.4696 365.91 74.0596C358.52 72.5996 349.66 73.6296 340.09 77.0596C335.24 78.7996 329.78 79.6497 323.4 79.6497C318.15 79.6497 313.16 79.1096 308.33 78.5797C304.44 78.1597 300.78 77.7597 297.72 77.7597C291.79 77.7597 290.09 79.3196 289.29 80.6796C286.05 86.1196 283.9 95.0396 282.34 101.55C281.59 104.66 280.94 107.36 280.21 109.34C280.43 112.33 280.75 115.51 281.12 118.76C281.19 119.22 281.25 119.59 281.28 119.86H281.25C281.63 123.34 282.1 126.9 282.57 130.39ZM398.87 133.29C398.59 134.47 398.31 135.63 398.04 136.78C396.88 141.6 395.79 146.14 395.18 150.54C394.11 158.29 393.74 162.84 393.94 165.75C394 166.55 394.09 167.06 394.17 167.39C394.83 166.23 395.44 163.01 395.87 160.78C396.64 156.73 397.51 152.14 399.58 147.89C402.32 142.27 403.13 137.25 401.77 134.46C401.54 133.98 401.13 133.36 400.49 133.14C400.04 132.97 399.47 133.02 398.87 133.29ZM272.84 129.49C272.73 129.49 272.61 129.5 272.5 129.51C272.15 129.55 271.79 129.64 271.42 129.79C269.17 130.71 271.57 138.41 273.01 143.01C274.07 146.41 275.07 149.59 275.26 152.09C275.52 155.47 276.07 160.16 277.23 163.36C277.96 165.37 278.62 165.82 278.8 165.82C278.91 165.82 279.14 165.74 279.45 165.52C281.48 163.48 279.18 146.37 277.49 133.88L277.29 132.42C276.83 131.81 276.38 131.31 275.93 130.9C274.89 129.96 273.86 129.49 272.84 129.49Z" fill="url(#paint0_linear_3785_5239)"/>
<defs>
<linearGradient id="paint0_linear_3785_5239" x1="314.953" y1="34.6666" x2="314.953" y2="556.646" gradientUnits="userSpaceOnUse">
<stop stop-color="#FFD24A"/>
<stop offset="0.2231" stop-color="#FED048"/>
<stop offset="0.3338" stop-color="#FCCA40"/>
<stop offset="0.4198" stop-color="#F8BF33"/>
<stop offset="0.4926" stop-color="#F2B020"/>
<stop offset="0.5559" stop-color="#EB9D09"/>
<stop offset="0.8116" stop-color="#DF8803"/>
<stop offset="1" stop-color="#D97E00"/>
</linearGradient>
</defs>
</svg>
