<svg width="222" height="220" viewBox="0 0 222 220" fill="none" xmlns="http://www.w3.org/2000/svg">
<g clip-path="url(#clip0_3984_3612)">
<path d="M2.34533 220C1.98843 220 1.63154 219.796 1.4276 219.439C-0.968696 214.8 -1.58051 207.917 9.02435 201.594C18.7625 195.782 32.7323 193.386 38.2897 192.621C39.4624 192.468 42.3685 192.111 45.6825 191.907C40.8899 179.773 42.7764 154.637 59.8054 136.538C66.3314 129.604 73.0614 123.995 79.0267 118.999C88.5099 111.096 96.0047 104.825 95.7497 98.7068C95.5968 95.0869 92.7416 91.314 86.9803 87.1842C61.6918 69.0846 51.0359 48.6396 51.6478 36.4542C52.0556 29.0104 54.7069 23.4021 59.7544 19.5272C52.6165 19.1194 48.0278 17.8447 46.5493 15.2955C45.6315 13.7149 45.9374 11.8285 47.416 9.73812C52.7184 2.09038 65.4647 0 106.711 0C152.394 0 162.336 3.31402 165.497 9.78911C166.772 12.4403 166.772 14.6837 165.497 16.4681C163.56 19.1703 158.716 20.445 152.19 20.9038C157.645 24.7787 160.348 29.9791 160.654 36.8621C160.959 44.153 157.594 52.8204 150.864 61.9977C144.644 70.4612 135.977 78.9757 125.78 86.5724C120.426 90.5492 117.724 94.3731 117.52 98.248C117.163 105.08 124.607 111.963 132.459 119.203C135.008 121.548 137.659 123.995 140.209 126.596C156.728 143.37 168.148 156.881 164.426 178.549C163.611 183.495 161.265 187.88 157.951 191.295H158.002C162.387 192.519 171.921 195.782 174.623 202.257C178.141 201.492 181.302 200.728 184.209 200.014C199.504 196.241 208.732 193.998 220.816 206.387C221.224 206.795 221.224 207.458 220.816 207.815C220.408 208.171 219.745 208.222 219.388 207.815C208.121 196.241 199.81 198.28 184.718 201.951C181.812 202.665 178.651 203.43 175.235 204.195C175.286 204.552 175.337 204.959 175.388 205.367C175.49 207.713 175.337 210.721 173.145 213.066C167.893 218.623 152.343 219.541 108.445 219.541C59.1425 219.541 42.2155 217.859 38.7996 212.505C37.7289 211.078 37.7289 209.344 38.7486 207.152C41.5018 201.136 70.7161 201.951 127.207 205.622C146.837 206.897 161.316 205.061 172.533 202.767C170.647 198.892 165.293 195.527 157.441 193.386C157.034 193.284 156.575 193.131 156.167 193.08C151.629 196.955 145.613 199.3 139.087 199.351L78.9757 199.657H78.9247C69.6964 199.657 58.1228 189.613 54.4519 184.209C53.2283 182.373 52.8204 181.048 53.2283 180.079C54.9618 175.847 62.3546 173.553 71.7868 170.698C86.0116 166.313 103.754 160.857 103.499 146.531C103.346 138.883 103.397 131.745 103.448 125.423C103.55 112.677 103.601 102.582 102.021 97.5342C100.797 93.7613 95.3928 89.4276 88.5099 83.8702C82.4427 78.9757 74.8459 72.9085 68.0649 65.3627L67.657 64.9548C63.2723 60.1112 60.1113 56.5933 61.029 53.0753C61.7428 50.3731 64.8019 48.2827 70.9711 46.2943C90.2434 39.9212 140.005 36.5562 153.21 44.3569C155.759 45.8355 155.198 47.518 154.79 48.1298C154.076 49.3534 151.986 50.5261 148.927 51.5968C150.61 54.146 150.202 57.1541 147.703 60.6211C142.707 67.606 134.345 74.7439 127.004 81.0151C120.681 86.4195 114.716 91.5689 112.269 95.3928C108.292 101.715 108.445 110.433 108.7 124.862C108.751 129.196 108.853 134.039 108.853 139.546C108.802 164.681 132 166.007 147.346 166.874C154.637 167.282 159.481 167.587 160.144 170.443C161.775 177.682 157.492 185.177 152.241 190.225C153.363 190.429 154.484 190.633 155.606 190.888C159.124 187.625 161.571 183.291 162.387 178.345C165.905 157.645 154.79 144.491 138.73 128.176C136.232 125.627 133.632 123.231 131.082 120.885C122.466 112.932 115.073 106.1 115.481 98.299C115.736 93.7613 118.693 89.4276 124.556 85.0939C145.817 69.2885 159.175 50.4751 158.614 37.117C158.308 29.9282 155.198 24.8297 148.621 21.2097C137.099 21.4647 121.65 19.6292 107.272 17.9467C106.355 17.8447 105.386 17.7428 104.468 17.6408C102.735 17.7937 100.95 17.8957 99.2167 18.0487C84.5331 19.1703 72.2967 19.9861 63.2723 19.7822C57.2051 23.3511 54.197 28.8065 53.7381 36.7092C53.1263 48.3337 63.5273 68.0139 88.204 85.6547C94.6281 90.2433 97.6872 94.4241 97.8401 98.7578C98.095 105.896 90.6512 112.116 80.4033 120.681C74.489 125.627 67.759 131.235 61.3349 138.067C52.7694 147.194 47.2631 159.175 45.8355 171.819C44.8668 180.589 45.9884 187.574 47.9259 191.958C52.6165 191.805 57.4091 192.162 58.6837 193.947C59.1425 194.559 59.5504 195.833 57.511 197.465C54.4519 199.912 51.1889 199.657 48.5887 196.853C47.8749 196.088 47.2631 195.119 46.6512 194.049C44.6118 194.151 42.3175 194.355 39.6663 194.66C28.8065 196.037 18.2526 199.045 11.4716 202.767C3.00813 207.356 0.254943 212.709 3.31404 218.674C3.56896 219.184 3.36502 219.796 2.85517 220.051C2.65123 220 2.49828 220 2.34533 220ZM65.1078 204.756C45.1727 204.756 41.1958 206.744 40.584 207.968C39.6663 209.956 40.0232 210.874 40.3801 211.435C43.2352 215.87 61.6408 217.502 108.343 217.502C149.029 217.502 166.823 216.686 171.564 211.638C172.89 210.262 173.4 208.375 173.247 205.469C173.247 205.214 173.196 204.908 173.145 204.654C161.724 206.999 147.092 208.885 127.004 207.611C106.049 206.234 85.8587 205.01 69.6964 204.756C68.1159 204.806 66.5354 204.756 65.1078 204.756ZM122.466 41.9096C104.519 41.9096 83.4624 44.2549 71.6339 48.1298C66.3824 49.8633 63.5782 51.5968 63.0684 53.4832C62.4056 55.9305 65.4137 59.2445 69.2376 63.4762L69.6454 63.9351C76.3245 71.3279 83.5134 77.1402 89.8865 82.1877C97.0244 87.898 102.684 92.4357 104.06 96.8204C105.794 102.174 105.692 111.912 105.59 125.321C105.539 131.643 105.488 138.781 105.641 146.378C105.947 162.234 87.3882 167.944 72.5006 172.533C64.343 175.031 56.6443 177.428 55.2677 180.742C55.2167 180.946 55.4716 182.067 57.2561 184.26C61.7428 189.817 71.7868 197.516 79.0777 197.516H79.1286L139.24 197.21C144.695 197.21 149.743 195.425 153.771 192.417C152.598 192.162 151.476 192.009 150.406 191.856C148.825 193.131 147.194 194.151 145.664 194.915C142.605 196.394 140.26 196.394 139.087 194.915C137.812 193.335 138.271 192.162 138.628 191.601C139.903 189.664 144.491 189.205 149.794 189.766C155.147 185.228 159.889 177.835 158.308 170.8C158.002 169.423 152.394 169.117 147.397 168.862C132.255 167.995 106.915 166.568 107.017 139.495C107.017 134.039 106.966 129.145 106.864 124.862C106.61 110.076 106.457 101.103 110.739 94.2711C113.289 90.1924 119.101 85.1958 125.831 79.4345C133.071 73.2144 141.33 66.1785 146.174 59.3975C147.958 56.8992 148.468 54.8088 147.601 53.1263C147.448 52.8204 147.245 52.4635 146.939 52.1576C139.036 54.5029 126.647 56.2364 115.838 57.2051C98.5029 58.7856 77.4971 59.0406 70.4102 55.1657C69.1356 54.4519 69.0846 53.5852 69.1356 53.1263C69.2886 51.9027 70.6142 50.4751 78.8737 48.5886C95.5968 44.8158 136.895 41.1448 147.448 49.9143C150.661 48.8946 152.598 47.9258 153.057 47.1101C153.21 46.8552 152.904 46.4983 152.19 46.0904C147.245 43.1842 135.671 41.9096 122.466 41.9096ZM48.8946 193.794C49.2515 194.355 49.6084 194.864 50.0162 195.272C51.9027 197.312 53.9931 197.465 56.1854 195.68C56.7463 195.221 56.8992 194.966 56.8992 194.915C56.4913 194.355 53.8911 193.743 48.8946 193.794ZM145.562 191.601C142.605 191.601 140.565 192.06 140.158 192.723C140.005 192.978 140.362 193.437 140.514 193.641C140.922 194.151 142.35 194.151 144.593 193.08C145.409 192.672 146.327 192.162 147.194 191.601C146.633 191.601 146.072 191.601 145.562 191.601ZM71.226 53.3812C71.277 53.3812 71.277 53.4322 71.3279 53.4322C76.8343 56.4403 94.1692 57.1541 115.583 55.2167C128.533 54.044 138.526 52.3615 144.899 50.628C140.922 48.2318 133.122 46.8042 122.211 46.6002C99.5736 46.1414 73.7752 50.832 71.226 53.3812ZM128.125 14.2248C132.612 14.2248 136.334 14.4797 138.781 15.1425C142.809 16.2132 146.225 17.4878 149.131 19.0684C156.524 18.9154 161.979 17.8447 163.815 15.2955C164.63 14.1228 164.579 12.5933 163.662 10.6559C161.01 5.14948 150.864 1.98841 106.711 1.98841C66.7903 2.0394 53.8401 3.97683 49.0985 10.8088C47.6199 12.9502 48.1298 13.9189 48.2827 14.2248C49.5574 16.4681 55.1147 17.3859 62.6605 17.5388C65.8726 15.7543 69.7984 14.4287 74.54 13.613C79.7405 12.6952 91.0591 13.8679 104.417 15.4484C113.289 14.7856 121.599 14.2248 128.125 14.2248ZM115.583 16.7231C125.423 17.8447 135.671 18.8644 144.236 19.0684C142.452 18.3546 140.464 17.7428 138.271 17.1309C133.988 16.0093 125.627 16.1622 115.583 16.7231ZM79.3326 15.2955C77.5481 15.2955 76.0695 15.3975 74.9479 15.6014C72.1947 16.1112 69.6964 16.774 67.5041 17.5898C75.3558 17.5388 84.584 16.927 93.4044 16.2642C87.898 15.7034 83.0035 15.2955 79.3326 15.2955Z" fill="url(#paint0_linear_3984_3612)"/>
</g>
<defs>
<linearGradient id="paint0_linear_3984_3612" x1="110.536" y1="0" x2="110.536" y2="220.015" gradientUnits="userSpaceOnUse">
<stop stop-color="#00A6D1"/>
<stop offset="1" stop-color="#005970"/>
</linearGradient>
<clipPath id="clip0_3984_3612">
<rect width="221.071" height="220" fill="white"/>
</clipPath>
</defs>
</svg>
