<svg width="270" height="220" viewBox="0 0 270 220" fill="none" xmlns="http://www.w3.org/2000/svg">
<g clip-path="url(#clip0_3984_3603)">
<path d="M29.0853 220C28.8233 220 28.5088 219.895 28.2992 219.685C12.525 202.601 12.4202 186.04 12.3678 176.136C12.3678 174.249 12.3678 172.625 12.2106 171.262C11.8962 167.332 11.3721 161.672 10.324 156.588C7.59889 155.959 5.24062 155.278 3.3016 154.44C1.41499 153.654 0.157246 151.557 2.8112e-05 148.937C-0.104784 146.474 0.786117 144.43 2.30589 143.592C3.19679 143.12 4.66415 142.858 6.65558 144.325C9.27587 146.317 10.9529 150.247 12.0534 154.807C19.5474 156.379 29.2425 157.479 37.1558 158.318C35.8981 151.977 34.1163 141.6 33.4874 130.333C32.9633 121.162 33.0157 108.165 36.3697 98.575C37.5751 95.1163 39.1996 92.0767 41.2435 89.404C40.7194 87.3602 40.405 85.3163 40.3526 83.4297C39.9333 72.3197 40.667 52.8247 49.9429 46.8504C52.3535 45.2782 51.9343 42.6055 50.4669 38.9895C46.9557 42.92 44.1258 44.5445 41.9248 43.8633C38.6756 42.8676 37.5751 37.5222 38.5184 27.5126C39.2521 19.5993 42.1868 15.0924 47.2177 14.1491C51.8819 13.2582 57.3321 15.8785 61.5246 18.8657C62.2582 17.5555 63.0443 16.193 63.8304 14.7256C68.5994 6.13102 76.5651 0.838025 85.7361 0.104343C94.2259 -0.576934 102.506 2.93426 107.38 9.17056C109.948 12.4721 110.786 17.4507 110.472 21.6956C110.839 21.748 111.205 21.8004 111.572 21.9576C113.092 22.5341 114.193 24.1587 114.402 26.1501C114.664 28.1415 114.035 30.4998 113.459 32.8056C113.092 34.2206 112.725 35.5831 112.62 36.7885C112.306 39.7232 113.144 41.8194 114.455 44.4397L114.769 45.0686C116.184 48.0033 117.442 50.5188 116.551 52.091C115.817 53.4536 113.93 53.4011 112.306 53.4011C111.729 53.4011 111.205 53.4011 110.786 53.4536C110 53.5584 109.895 53.768 109.948 54.4493C109.948 54.7113 110 54.9733 110.052 55.2878C110.157 56.0214 110.314 56.8599 109.895 57.646C109.528 58.3273 108.9 58.7465 108.323 59.061C108.061 59.2182 107.799 59.3754 107.694 59.5326C107.485 59.7423 107.432 60.0567 107.432 61V61.5241C107.432 62.4674 107.485 63.6727 107.275 65.0353C107.118 66.031 106.751 69.0705 104.235 69.4898C103.869 69.5422 103.397 69.5422 102.716 69.5422C99.5188 69.4898 96.3745 69.6994 96.1649 73.0534C95.9028 77.1934 96.1125 80.3902 96.2173 83.2201C96.2697 84.2158 96.3221 85.1067 96.3221 85.9452C96.3221 86.3645 96.3221 86.8361 96.3221 87.2554C99.9905 88.2511 103.973 91.1334 106.856 95.2211C108.113 96.9505 109.162 98.8895 110.157 100.828C111.677 98.7847 113.616 97.0553 115.45 95.3259C117.546 93.3869 119.538 91.5527 120.796 89.5612C122.787 86.4169 123.049 82.6436 123.364 79.0276C123.468 77.7175 123.573 76.3549 123.73 75.0448C123.888 73.8395 123.992 71.848 124.097 69.5946C124.464 62.2578 124.988 52.1958 128.237 47.5841C129.705 45.5403 131.224 45.4355 132.168 45.7499C135.993 46.9552 138.142 56.2835 138.142 59.7947C138.142 62.5198 137.723 65.6641 137.303 68.7037C136.937 71.4288 136.57 73.9967 136.57 75.9881C136.57 76.5122 136.622 76.9838 136.675 77.4555C138.09 74.9924 139.924 73.7346 141.234 73.6298C142.02 73.5774 142.701 73.8919 143.068 74.5207C144.064 76.3025 141.758 80.757 139.609 82.0148C138.771 82.4864 137.88 82.5912 137.094 82.2244C136.57 84.2682 136.255 86.7837 135.889 89.3516C135.469 92.3387 135.05 95.3783 134.316 97.9986C132.639 103.816 129.39 107.17 126.141 109.947C125.041 110.89 123.259 112.41 121.215 113.301C122.787 118.018 123.835 124.306 124.412 132.586C124.883 139.347 124.988 146.631 125.093 153.13C125.145 156.326 125.198 159.366 125.303 162.091C125.617 173.253 126.56 175.821 126.927 176.45C127.451 176.083 128.499 174.668 129.285 173.62C129.862 172.834 130.543 171.891 131.277 171.052C132.22 169.899 133.268 168.799 134.159 167.856C133.845 164.921 134.107 162.877 134.893 161.829C135.627 160.833 136.937 160.571 138.09 161.148C139.295 161.724 139.819 163.034 139.452 164.344C139.085 165.602 137.932 166.965 136.36 168.589C136.465 169.323 136.57 170.109 136.779 170.948C136.884 171.576 137.041 172.205 137.199 172.834C137.88 176.136 138.614 179.542 137.723 182.896C136.57 187.246 132.849 191.019 127.242 193.482C124.359 194.792 120.9 195.736 117.546 196.731C116.132 197.151 114.717 197.57 113.406 197.937C113.93 200.085 113.773 202.024 112.935 203.492C112.201 204.802 110.891 205.693 109.319 206.06C107.904 206.374 106.489 206.112 105.493 205.431C104.55 204.749 104.026 203.649 104.131 202.444C104.183 201.395 104.864 199.404 108.218 197.675C108.952 197.308 109.79 196.941 110.734 196.626C110.314 195.631 109.79 194.583 109.004 193.482C108.218 192.329 107.223 191.124 106.174 189.814C103.607 186.669 100.41 182.739 98.2087 177.079C94.9595 168.799 93.9114 157.27 95.536 147.679C96.5841 141.443 98.7852 135.783 100.777 130.752C101.93 127.765 103.03 124.935 103.816 122.263C104.655 119.433 105.126 116.707 105.598 114.035C106.279 110.104 106.908 106.384 108.69 103.187C107.327 102.925 105.86 102.872 104.34 103.03C99.8857 103.554 95.5884 106.121 91.5007 110.576C87.4655 115.03 84.1639 120.795 82.4869 126.507C80.6003 132.848 80.7051 139.347 82.749 148.99C84.7928 158.423 88.828 171.314 91.8152 180.8L93.4398 185.988C96.0601 194.373 97.5274 198.985 99.7285 202.444C102.296 206.426 105.441 208.156 109.371 207.737C114.088 207.265 120.272 203.649 125.722 200.19C126.718 199.561 127.713 198.88 128.709 198.251C133.95 194.845 138.928 191.648 143.225 190.547C144.011 190.338 144.798 190.233 145.531 190.128C145.426 189.29 145.374 188.399 145.426 187.508C145.426 186.198 145.531 184.94 145.741 183.63C143.959 182.844 142.334 181.638 141.234 180.223C138.509 176.765 138.876 171.943 142.282 167.856C144.64 165.026 148.256 162.72 151.506 160.676C152.606 159.995 153.602 159.313 154.493 158.737C155.174 158.265 155.803 157.794 156.327 157.374C155.069 157.112 153.916 156.798 152.711 156.536C147.523 155.331 143.016 154.335 139.505 153.392C133.897 151.924 131.906 150.929 131.539 149.514C131.434 149.147 131.382 148.413 132.168 147.679C133.53 146.369 137.618 145.111 144.116 143.277L146.16 142.701C148.833 141.915 151.61 141.129 154.283 140.29C157.847 139.242 161.201 138.246 163.926 137.46C165.603 136.989 167.018 136.622 168.328 136.307C170.162 135.836 171.577 135.469 172.782 135.05C172.468 133.373 172.677 131.119 173.306 127.87C175.088 118.489 180.276 100.409 182.425 93.0724C185.255 83.3773 186.355 81.0715 197.57 81.3335C208.733 81.5431 230.167 84.111 241.067 85.6308C253.173 87.3602 257.523 88.4607 258.885 94.0157C259.986 98.4178 259.252 105.702 256.527 118.28C256.16 119.957 255.741 122.158 255.269 124.726C254.116 130.962 252.963 136.936 251.601 141.967C256.684 140.028 262.763 139.504 268.423 142.386C268.947 142.648 269.157 143.277 268.895 143.801C268.633 144.325 268.004 144.535 267.48 144.273C261.925 141.443 255.741 142.386 250.867 144.587C249.19 149.985 247.251 153.916 244.736 155.121C243.53 155.697 242.22 155.697 240.962 155.016C239.809 154.44 239.023 152.972 240.176 150.719C241.434 148.308 244.788 145.216 249.138 143.015C250.867 137.041 252.23 129.704 253.225 124.306C253.697 121.738 254.116 119.537 254.483 117.808C256.265 109.633 258.099 99.6232 256.841 94.4874C255.898 90.5045 253.33 89.4564 240.753 87.6746C229.905 86.1548 208.576 83.6394 197.518 83.3773C187.508 83.1677 187.089 84.5827 184.416 93.6489C182.268 100.933 177.08 118.961 175.298 128.237C174.774 131.067 174.512 132.953 174.721 134.263C175.036 134.106 175.298 134.001 175.56 133.897C177.132 133.163 178.704 132.429 180.958 132.324C182.425 132.22 184.102 132.377 185.727 132.586C187.351 132.744 189.028 132.901 190.338 132.796C189.919 132.691 189.5 132.586 189.081 132.482C184.521 131.381 182.006 130.438 180.958 128.342C179.962 126.35 180.486 123.835 181.587 118.751L181.744 118.07C182.006 116.812 182.32 115.397 182.635 113.93C183.63 109.056 184.783 103.554 185.779 99.4659C187.142 93.4917 188.032 91.0286 189.185 89.5612C190.758 87.6222 192.801 87.8318 196.941 88.4083C197.728 88.5131 198.566 88.6179 199.509 88.7751C204.016 89.4564 210.2 90.3473 217.799 90.8714C223.564 91.2906 230.01 91.5002 235.669 91.7099C239.076 91.8147 242.063 91.9195 244.316 92.0767C250.081 92.3911 252.23 92.9152 252.177 96.7932C252.125 99.6232 251.234 104.602 249.505 111.624C248.194 116.865 246.465 123.153 244.893 128.708C244.474 130.333 244.002 131.853 243.635 133.32L243.059 135.416C241.539 140.867 240.491 144.849 239.338 146.946C237.818 149.88 235.931 149.671 231.844 149.304C228.385 148.99 221.205 148.308 210.829 146.526C201.396 144.954 188.504 142.334 180.853 140.447C177.027 139.504 174.721 138.718 173.568 137.041C172.258 137.46 170.738 137.879 168.852 138.351C167.594 138.666 166.179 139.032 164.502 139.504C161.777 140.238 158.423 141.233 154.912 142.282C152.239 143.068 149.462 143.906 146.789 144.692L144.745 145.269C139.976 146.631 134.998 148.046 133.792 149.094C134.212 149.461 135.679 150.195 140.133 151.4C143.592 152.343 148.099 153.339 153.235 154.545C154.912 154.911 156.641 155.331 158.475 155.75C159.89 154.597 161.358 153.549 163.454 152.553C167.28 150.771 173.359 149.252 178.861 150.352C184.312 151.453 189.238 155.173 190.81 158.108C190.915 158.265 190.967 158.423 191.02 158.58C194.478 157.689 199.509 156.798 204.069 156.012C205.536 155.75 206.951 155.488 208.261 155.278C209.624 155.016 210.881 154.807 212.034 154.597C216.384 153.758 219.581 153.182 222.83 153.13C227.18 153.077 231.425 154.02 233.259 154.702C233.835 154.911 235.041 155.331 234.988 156.431C234.936 157.636 233.678 158.161 229.8 159.313C225.607 160.519 218.271 162.353 212.349 163.82L208.628 164.764C203.387 166.074 201.239 166.598 198.514 166.598C195.474 166.598 191.91 165.864 185.831 164.449C182.792 163.768 179.071 162.825 175.141 161.881C170.529 160.781 165.76 159.628 161.201 158.527C160.467 158.37 159.733 158.161 159 158.003C158.004 158.789 157.008 159.576 155.75 160.519C154.807 161.148 153.811 161.829 152.711 162.51C149.619 164.502 146.108 166.703 143.959 169.271C141.182 172.572 140.815 176.293 142.963 178.966C143.802 180.014 145.007 180.905 146.317 181.534C147.313 177.551 149.304 173.882 151.977 171.157C156.589 166.388 163.664 163.663 168.59 163.139C172.835 162.667 175.665 163.716 176.765 164.764C177.446 165.393 177.604 166.074 177.604 166.493C177.551 168.38 174.931 169.113 171 170.214L170.214 170.424C166.546 171.472 163.14 172.625 160.939 175.192C160.1 176.188 159.419 177.446 158.738 178.704C157.48 181.01 156.17 183.42 153.759 184.363C152.082 185.045 149.933 184.992 147.837 184.416C147.68 185.464 147.575 186.512 147.575 187.56C147.575 188.451 147.627 189.342 147.732 190.128C150.981 190.39 153.392 191.91 154.178 193.797C154.755 195.264 154.388 196.993 153.182 198.094C152.187 199.037 150.824 199.299 149.619 198.723C147.942 197.937 146.579 195.421 145.898 192.224C145.217 192.277 144.536 192.382 143.802 192.591C139.819 193.639 134.736 196.889 129.862 200.033C128.866 200.662 127.87 201.343 126.822 201.972C121.162 205.535 114.664 209.309 109.528 209.833C104.812 210.304 100.881 208.208 97.8943 203.544C95.536 199.876 94.0686 195.159 91.3959 186.565L89.7713 181.376C86.7842 171.891 82.6965 158.894 80.6527 149.409C78.5041 139.399 78.4517 132.586 80.4431 125.879C82.2249 119.799 85.5789 113.878 89.8762 109.109C94.3307 104.235 99.0472 101.51 103.973 100.881C105.231 100.724 106.489 100.724 107.642 100.828C106.856 99.3087 105.965 97.789 105.021 96.4264C102.506 92.9152 99.0472 90.2949 95.9552 89.3516C95.6408 91.081 94.8547 92.5484 93.2825 93.8585C91.7104 95.1687 88.6708 96.7932 86.7318 96.2692C86.0505 96.112 85.5265 95.6403 85.3168 95.0114C84.95 94.1205 85.212 92.758 86.0505 91.3954C86.5746 90.5045 88.5136 87.5698 92.1296 86.9409C92.7585 86.8361 93.4398 86.7837 94.121 86.8361C94.121 86.5741 94.121 86.2597 94.121 85.9452C94.121 85.1067 94.0686 84.2158 94.0162 83.2725C93.859 80.5474 93.7018 77.141 93.9638 72.8961C94.2783 67.2363 100.148 67.3935 102.663 67.4459C103.082 67.4459 103.607 67.4459 103.764 67.4459C104.393 67.3411 104.864 66.4502 105.074 64.7732C105.231 63.5679 105.231 62.4674 105.179 61.5765V61.0524C105.179 59.8995 105.231 58.9038 106.122 58.0653C106.436 57.8032 106.751 57.5936 107.118 57.3316C107.38 57.122 107.851 56.8599 107.904 56.7027C108.009 56.5455 107.904 56.0214 107.851 55.6022C107.799 55.2878 107.747 54.9209 107.747 54.5541C107.694 52.7199 108.637 51.6193 110.419 51.3573C110.943 51.3049 111.572 51.3049 112.201 51.3049C112.882 51.3049 114.35 51.3573 114.612 51.0953C114.874 50.4664 113.511 47.5841 112.778 46.0643L112.463 45.4354C111.101 42.5531 110.052 40.09 110.419 36.6313C110.576 35.2687 110.943 33.8013 111.31 32.3864C111.834 30.2901 112.411 28.0891 112.201 26.5169C112.044 25.3116 111.467 24.3683 110.681 24.0014C110.472 23.949 110.314 23.8966 110.105 23.8966C110 24.4731 109.895 24.9971 109.738 25.4688C108.428 30.1329 105.598 34.9019 103.973 36.9981C103.03 38.2558 101.982 39.304 100.881 38.7275C99.7285 38.151 100.095 36.4216 100.567 34.9019C101.405 32.0719 104.131 25.4688 107.065 23.0057C107.432 22.6913 107.799 22.4817 108.166 22.272C108.585 18.3416 107.851 13.5203 105.546 10.5855C101.248 4.71606 93.6494 1.57171 85.8409 2.14817C77.4036 2.82945 70.0143 7.75561 65.6122 15.7213C64.7737 17.2411 63.9352 18.7084 63.1491 20.1234C65.455 22.01 67.1844 23.949 67.8133 25.1544C68.4421 26.4645 68.0229 27.1458 67.6561 27.4602C66.8176 28.2463 65.2454 28.1415 60.4764 25.2592C60.3716 25.2068 60.3192 25.1544 60.2144 25.102C57.1749 30.1329 54.3974 34.1682 51.9343 37.2077C53.7685 41.3478 55.1834 45.9595 51.0434 48.6322C42.344 54.2396 42.1344 74.7828 42.4488 83.3249C42.5012 84.6351 42.6584 85.9976 42.9205 87.3602C45.3835 84.6351 48.4231 82.3292 51.9867 80.3902C54.7642 78.9228 57.6465 77.7175 60.7909 76.4597C65.4026 74.6255 70.1191 72.6865 74.4164 69.6994C75.6742 68.8085 76.9319 67.8128 78.1896 66.6598C77.8228 61.6813 78.3993 57.384 79.8666 53.6108C82.9062 45.9595 90.243 39.304 93.7018 38.5703C95.1168 38.2558 95.8504 38.8847 96.1649 39.304C97.8419 41.5574 94.9071 47.6889 92.9681 51.0953C89.5617 57.2792 85.0548 63.0962 80.3383 67.4459C80.6003 69.9614 81.072 72.6865 81.8057 75.6213C82.0153 76.3549 82.1725 77.0362 82.3821 77.7175C83.7971 82.9057 84.8976 86.9933 80.4431 90.7142C78.3993 92.4436 75.2549 94.0157 71.5865 95.8499C67.0796 98.1034 61.9962 100.619 58.1706 103.92C56.1792 105.65 53.8733 106.017 51.4626 104.969C47.4274 103.187 43.9162 97.6841 41.9772 91.8671C40.4574 94.0681 39.252 96.4788 38.3611 99.2039C35.7933 106.593 34.85 117.284 35.5836 130.176C36.2649 141.705 38.0991 152.291 39.3569 158.527C45.9076 159.209 51.0434 159.785 53.1396 160.466C58.8519 162.405 58.7995 165.445 58.6946 169.009C58.6946 169.48 58.6946 169.952 58.6946 170.424C58.6946 176.712 60.2668 181.167 63.3064 183.577C65.9267 185.674 70.1715 186.669 73.8924 187.56C75.9362 188.032 77.8752 188.504 79.4998 189.132C82.6441 190.338 84.6356 192.172 84.688 194.059C84.7404 195.212 84.0591 196.26 82.8538 196.889C79.919 198.356 73.3159 198.041 67.8133 196.102C62.2058 194.163 57.5417 190.495 53.8209 187.508C50.1001 184.573 46.2744 181.534 43.6017 177.551C41.0863 173.83 39.5141 169.271 37.6799 160.781C37.6275 160.676 37.6275 160.519 37.6275 160.414C29.5046 159.576 20.1239 158.58 12.5774 157.008C13.5732 161.881 13.9924 167.07 14.3068 171C14.4117 172.415 14.4641 174.092 14.4641 176.031C14.5165 185.621 14.6213 201.71 29.8714 218.165C30.2906 218.585 30.2382 219.266 29.819 219.633C29.6094 219.895 29.3473 220 29.0853 220ZM111.415 198.303C110.576 198.618 109.843 198.932 109.214 199.247C107.432 200.138 106.332 201.291 106.279 202.339C106.227 202.81 106.436 203.177 106.803 203.439C107.275 203.806 108.113 203.911 108.952 203.701C109.948 203.492 110.734 202.915 111.153 202.182C111.625 201.343 111.782 199.98 111.415 198.303ZM148.099 191.91C148.676 194.425 149.724 196.102 150.562 196.469C151.086 196.731 151.558 196.417 151.768 196.207C152.239 195.788 152.554 195.002 152.239 194.216C151.82 193.22 150.3 192.224 148.099 191.91ZM39.8285 160.728C41.5579 168.747 43.0777 173.044 45.3835 176.45C47.899 180.171 51.4102 183.001 55.131 185.936C58.9043 188.923 63.2016 192.382 68.4945 194.163C73.7875 195.998 79.8142 196.102 81.9105 195.054C82.3821 194.792 82.6441 194.53 82.6441 194.216C82.5917 193.43 81.3864 192.12 78.7661 191.124C77.2987 190.547 75.4121 190.128 73.4207 189.656C69.4903 188.713 64.9834 187.665 61.9962 185.254C58.3802 182.372 56.5984 177.394 56.5984 170.424C56.5984 169.899 56.5984 169.428 56.5984 168.956C56.6508 165.445 56.7032 163.873 52.4583 162.405C50.6765 161.881 45.7504 161.357 39.8285 160.728ZM109.948 105.021C108.795 107.641 108.271 110.681 107.694 114.087C107.223 116.76 106.751 119.59 105.912 122.525C105.126 125.302 103.973 128.184 102.82 131.224C100.829 136.36 98.7328 141.705 97.737 147.732C96.1649 156.955 97.213 168.118 100.305 176.031C102.401 181.376 105.336 184.992 107.956 188.189C109.057 189.499 110.052 190.757 110.891 192.015C111.729 193.22 112.358 194.478 112.83 195.683C114.14 195.264 115.555 194.845 117.022 194.425C120.272 193.482 123.678 192.539 126.455 191.281C131.486 189.08 134.736 185.778 135.731 182.058C136.517 179.175 135.836 176.031 135.155 172.939C134.998 172.31 134.893 171.629 134.736 171C134.683 170.738 134.631 170.424 134.578 170.162C134.002 170.79 133.478 171.367 132.954 172.048C132.273 172.887 131.644 173.725 131.067 174.564C129.547 176.66 128.447 178.127 127.137 178.284C126.613 178.337 126.141 178.18 125.774 177.865C124.726 176.974 123.678 174.406 123.311 161.881C123.206 159.104 123.154 156.064 123.102 152.868C122.997 146.422 122.892 139.137 122.42 132.429C121.844 124.306 120.848 118.175 119.328 113.668C117.704 113.982 116.079 113.72 114.559 112.41C112.83 110.943 111.467 108.218 109.948 105.021ZM148.256 181.953C149.986 182.477 151.715 182.582 152.973 182.058C154.702 181.376 155.75 179.385 156.851 177.341C157.585 176.031 158.318 174.668 159.262 173.515C161.829 170.476 165.603 169.218 169.533 168.065L170.319 167.856C172.206 167.332 174.721 166.598 175.298 166.074C174.826 165.497 172.468 164.449 168.695 164.921C164.293 165.445 157.637 167.96 153.392 172.31C150.929 174.826 149.147 178.232 148.256 181.953ZM136.884 162.615C136.779 162.615 136.675 162.667 136.57 162.772C136.308 163.087 136.098 163.978 136.151 165.393C136.832 164.606 137.303 163.978 137.461 163.454C137.618 162.982 137.356 162.772 137.199 162.667C137.094 162.667 136.989 162.615 136.884 162.615ZM189.762 162.825C194.164 163.82 196.522 164.135 198.566 164.135C201.029 164.135 203.125 163.611 208.156 162.353L211.877 161.41C217.432 160.047 225.083 158.108 229.223 156.903C230.429 156.536 231.267 156.274 231.844 156.064C229.957 155.488 226.394 154.807 222.83 154.859C219.738 154.911 216.646 155.488 212.401 156.274C211.248 156.484 209.99 156.746 208.628 156.955C207.318 157.217 205.903 157.427 204.435 157.689C199.824 158.475 194.688 159.366 191.386 160.257C191.334 160.781 191.124 161.2 191.02 161.515C190.705 162.039 190.286 162.458 189.762 162.825ZM161.148 155.96C161.358 156.012 161.515 156.064 161.725 156.117C166.336 157.165 171.105 158.37 175.665 159.471C179.281 160.362 182.739 161.2 185.569 161.829C185.412 160.624 186.565 159.628 188.976 158.789V158.737C187.823 156.588 183.526 153.077 178.442 152.029C173.464 150.981 167.909 152.396 164.345 154.073C163.087 154.702 162.091 155.331 161.148 155.96ZM3.77325 145.321C3.61604 145.321 3.40641 145.374 3.3016 145.426C2.51551 145.845 2.04386 147.26 2.09626 148.832C2.14867 150.247 2.72514 151.977 4.08769 152.501C5.65987 153.13 7.59889 153.758 9.74753 154.283C8.75181 150.614 7.38926 147.522 5.39784 146.002C4.92618 145.688 4.34972 145.321 3.77325 145.321ZM248.247 145.688C245.26 147.47 243.006 149.671 242.063 151.453C241.801 151.977 241.539 152.71 241.958 152.92C242.639 153.287 243.216 153.287 243.845 152.972C245.469 152.134 246.937 149.356 248.247 145.688ZM175.665 135.888C176.66 136.936 178.495 137.355 181.377 138.089C188.976 139.976 201.763 142.596 211.196 144.168C221.467 145.898 228.595 146.579 232.053 146.893C236.298 147.313 236.665 147.208 237.504 145.636C238.499 143.697 239.6 139.871 241.067 134.525L241.644 132.429C242.063 130.962 242.482 129.442 242.954 127.818C244.474 122.263 246.255 116.026 247.566 110.786C249.243 104.025 250.133 99.0467 250.186 96.4264C250.186 94.5922 250.238 94.173 244.316 93.8585C242.063 93.7013 239.076 93.6489 235.669 93.4917C229.957 93.282 223.511 93.0724 217.747 92.6532C210.043 92.0767 203.859 91.1858 199.352 90.5045C198.409 90.3473 197.57 90.2425 196.837 90.1377C192.435 89.5088 191.648 89.666 190.967 90.5569C189.919 91.8671 189.028 95.0114 187.98 99.6232C187.037 103.711 185.884 109.213 184.888 114.087C184.574 115.555 184.259 116.97 183.997 118.227L183.84 118.909C182.897 123.363 182.373 125.826 183.054 127.136C183.735 128.499 186.041 129.285 189.762 130.176C191.124 130.49 192.697 130.857 194.426 131.224C194.688 131.067 195.002 130.909 195.264 130.7C195.579 130.49 195.946 130.281 196.26 130.123C197.465 129.442 198.671 128.918 199.981 128.342C200.715 128.027 201.501 127.66 202.287 127.293C202.706 127.084 203.125 126.874 203.545 126.665C200.295 121.843 203.492 115.345 205.222 111.729C205.484 111.205 205.693 110.733 205.903 110.366C204.331 106.069 203.073 101.195 204.645 97.9986C205.379 96.5312 206.689 95.5879 208.471 95.1687C219.214 92.758 224.402 95.8499 226.551 97.8414C229.485 100.619 229.643 105.073 228.28 107.956C227.127 110.419 224.979 111.729 223.04 112.882C222.673 113.091 222.306 113.301 221.991 113.511C221.572 113.773 221.258 114.035 220.891 114.244C220.681 117.022 219.843 118.804 218.533 119.328C217.799 119.59 217.013 119.433 216.489 118.909C215.86 118.28 215.755 117.284 216.122 116.341C216.594 115.24 217.747 114.087 218.847 113.196C218.9 110.419 218.428 107.065 217.275 105.388C216.07 103.658 213.921 103.92 212.349 104.707C210.41 105.702 208.838 107.694 208.261 109.895C208.209 110 208.209 110.157 208.156 110.262C208.733 111.781 209.362 113.196 209.833 114.244C210.934 116.76 211.143 117.336 210.934 117.913C210.672 118.647 210.2 119.118 209.886 119.537C209.781 119.642 209.676 119.747 209.624 119.852C209.676 120.009 209.833 120.219 209.938 120.323C210.095 120.586 210.305 120.848 210.462 121.11C210.986 122.263 210.357 123.153 210.148 123.468L209.991 123.625C209.938 123.677 209.886 123.782 209.833 123.835C209.781 124.411 209.571 125.092 208.523 125.983C208.104 126.298 207.527 126.717 206.846 127.136C208.261 128.499 208.942 128.604 209.204 128.604C209.519 128.604 209.781 128.237 210.2 127.713C210.515 127.293 210.881 126.822 211.353 126.56C211.667 126.35 211.982 126.141 212.296 125.931C213.135 125.302 214.55 124.306 215.808 125.564C216.332 126.141 216.751 127.084 217.275 128.394C217.747 129.547 218.323 130.962 219.109 132.324C219.79 133.477 220.576 134.578 221.467 135.574C225.031 136.15 228.28 136.779 230.481 137.355C233.888 138.246 235.407 139.242 235.407 140.605C235.407 141.024 235.25 141.967 233.626 142.439C231.739 142.963 228.123 142.648 224.874 140.919C223.302 140.081 221.782 138.928 220.419 137.513C218.166 137.146 215.755 136.779 213.344 136.412C211.458 136.15 209.519 135.836 207.737 135.574C202.916 134.788 198.514 134.054 194.793 133.268C193.692 133.844 192.382 134.316 190.705 134.473C189.185 134.578 187.456 134.421 185.727 134.263C184.154 134.106 182.582 133.949 181.272 134.001C179.438 134.106 178.128 134.735 176.608 135.416C176.241 135.626 175.979 135.783 175.665 135.888ZM224.297 138.299C224.769 138.613 225.241 138.928 225.712 139.137C228.49 140.552 231.372 140.814 232.735 140.5C232.263 140.238 231.425 139.871 229.8 139.452C228.333 139.085 226.446 138.718 224.297 138.299ZM197.413 131.8C200.557 132.377 204.069 133.006 207.894 133.635C209.676 133.897 211.615 134.211 213.502 134.473C215.074 134.735 216.646 134.945 218.218 135.207C217.851 134.683 217.485 134.106 217.118 133.53C216.279 132.01 215.65 130.543 215.179 129.285C214.812 128.394 214.445 127.503 214.183 127.189C213.973 127.293 213.607 127.556 213.397 127.713C213.082 127.922 212.716 128.184 212.296 128.446C212.192 128.499 211.93 128.813 211.772 129.075C211.248 129.757 210.515 130.752 209.204 130.805C207.947 130.857 206.637 130.071 204.907 128.289C204.331 128.604 203.754 128.866 203.178 129.18C202.392 129.547 201.606 129.914 200.819 130.228C199.614 130.752 198.461 131.224 197.413 131.8ZM206.899 112.987C205.222 116.498 202.706 121.948 205.326 125.616C206.06 125.145 206.689 124.726 207.108 124.411C207.632 123.992 207.632 123.835 207.685 123.677C207.685 123.625 207.685 123.573 207.685 123.52C207.737 122.996 207.999 122.682 208.209 122.42L208.314 122.263C208.418 122.105 208.418 122.053 208.418 122.053C208.366 121.948 208.209 121.738 208.104 121.581C207.737 121.057 207.265 120.376 207.37 119.59C207.475 119.013 207.842 118.542 208.156 118.175C208.366 117.913 208.576 117.703 208.733 117.441C208.576 117.022 208.156 116.026 207.789 115.135C207.527 114.506 207.213 113.773 206.899 112.987ZM214.655 102.034C216.384 102.034 217.904 102.768 218.9 104.182C220.262 106.121 220.786 109.213 220.891 111.729C221.205 111.519 221.572 111.31 221.887 111.1C223.721 110 225.45 108.951 226.341 107.065C227.389 104.864 227.284 101.405 225.083 99.3611C223.616 97.9462 219.057 94.9066 208.89 97.2125C207.737 97.4745 206.899 98.051 206.479 98.9419C205.484 100.881 206.06 104.13 207.003 107.274C207.999 105.388 209.519 103.816 211.353 102.925C212.454 102.296 213.607 102.034 214.655 102.034ZM111.729 103.868C113.144 106.855 114.507 109.58 115.922 110.838C116.708 111.519 117.546 111.781 118.542 111.677C118.071 110.576 117.546 109.58 116.97 108.689C115.607 106.488 113.826 104.916 111.729 103.868ZM111.991 101.667C114.717 102.82 117.022 104.811 118.752 107.536C119.381 108.585 120.01 109.737 120.534 111.048C121.739 110.471 123.154 109.475 124.831 108.061C128.29 105.126 130.91 102.139 132.377 97.1077C133.059 94.6446 133.478 91.6575 133.897 88.7751C134.316 85.6308 134.736 82.6961 135.522 80.233C134.945 79.1325 134.631 77.6127 134.631 75.7785C134.631 73.6298 134.998 71.0095 135.364 68.1796C135.784 65.2449 136.203 62.1529 136.151 59.585C136.098 55.3926 133.688 48.1606 131.644 47.5317C131.172 47.3745 130.648 47.7413 130.019 48.5798C127.084 52.6675 126.613 62.7818 126.246 69.4374C126.141 71.7432 126.036 73.787 125.827 75.0972C125.669 76.3549 125.565 77.6127 125.46 78.9228C125.145 82.8009 124.831 86.8885 122.577 90.4521C121.162 92.7056 119.066 94.6446 116.865 96.636C115.188 98.2082 113.406 99.8852 111.991 101.667ZM43.5493 89.8757C45.3311 95.9548 48.8947 101.615 52.3535 103.134C53.9781 103.868 55.4455 103.606 56.8604 102.401C60.8957 98.9419 66.0839 96.3216 70.6956 94.0681C74.102 92.3911 77.2987 90.7666 79.1329 89.2468C82.5917 86.3645 81.7532 83.3773 80.3907 78.3988C80.1811 77.7175 80.0238 76.9838 79.8142 76.2501C79.1854 73.787 78.7137 71.4812 78.4517 69.2801C77.5084 70.0662 76.5651 70.7999 75.6218 71.4812C71.1148 74.6255 66.2411 76.617 61.577 78.5036C58.5374 79.7089 55.6551 80.9143 52.9824 82.3292C49.1568 84.3206 46.0124 86.8361 43.5493 89.8757ZM87.4131 94.0681C87.9895 94.2778 90.243 93.5965 92.0772 92.0767C93.1253 91.1858 93.7542 90.1901 94.0162 88.7751C93.4922 88.7227 93.0205 88.7751 92.5489 88.8275C90.4526 89.1944 88.828 90.819 87.9895 92.2339C87.5179 93.1772 87.4131 93.8585 87.4131 94.0681ZM137.828 79.9185C137.88 79.9709 137.932 79.9709 137.932 80.0233C138.037 80.0758 138.247 80.1806 138.666 79.9709C139.976 79.2373 141.286 76.5646 141.339 75.5688C140.657 75.7261 138.98 76.879 137.828 79.9185ZM94.4879 40.6141C94.4879 40.6141 94.3831 40.6141 94.1734 40.6665C91.5531 41.243 84.6356 47.3221 81.8057 54.4493C80.6003 57.4888 80.0763 60.8952 80.1811 64.8256C84.2687 60.738 88.1468 55.6022 91.1339 50.152C94.4879 44.1253 94.8547 41.0858 94.4879 40.6141ZM49.1044 16.0357C49.052 16.0357 48.9471 16.0357 48.8947 16.0357C44.1258 16.1406 41.3483 20.071 40.6146 27.6698C39.4617 39.8804 41.7675 41.6098 42.5536 41.8194C43.2873 42.0291 45.2787 41.8718 49.576 36.8409C49.5236 36.6837 49.4188 36.474 49.314 36.3168C48.2135 33.9586 47.2177 31.7051 47.1653 29.8709C47.1129 26.0977 48.4231 23.2678 50.8338 21.9052C53.1396 20.5951 56.1268 20.7523 59.4807 22.272C59.7952 21.748 60.1096 21.1715 60.4764 20.6475C57.1225 18.2368 52.8776 16.0357 49.1044 16.0357ZM54.2925 23.1105C53.3492 23.1105 52.5107 23.3202 51.7771 23.687C50.0477 24.6827 49.1568 26.7789 49.1568 29.8185C49.1568 31.0762 49.9953 32.9628 50.9386 34.9543C52.93 32.3864 55.3931 28.8752 58.3278 24.0538C56.9128 23.4774 55.4979 23.1105 54.2925 23.1105ZM107.589 25.4164C105.703 27.7747 103.711 32.0719 102.82 35.0067C104.445 32.7008 106.541 28.8752 107.589 25.4164ZM61.3149 23.2678C61.4198 23.3202 61.4722 23.3726 61.577 23.425C63.6732 24.6827 64.9309 25.2592 65.6646 25.5212C65.0358 24.6303 63.778 23.3202 62.101 21.9052C61.839 22.4293 61.577 22.8485 61.3149 23.2678Z" fill="url(#paint0_linear_3984_3603)"/>
</g>
<defs>
<linearGradient id="paint0_linear_3984_3603" x1="134.524" y1="-0.000469049" x2="134.524" y2="219.994" gradientUnits="userSpaceOnUse">
<stop stop-color="#00A6D1"/>
<stop offset="1" stop-color="#005970"/>
</linearGradient>
<clipPath id="clip0_3984_3603">
<rect width="269.052" height="220" fill="white"/>
</clipPath>
</defs>
</svg>
