<svg width="464" height="499" viewBox="0 0 464 499" fill="none" xmlns="http://www.w3.org/2000/svg">
<path d="M255.8 498.6C255.7 498.6 255.6 498.6 255.5 498.6C253.2 498.1 198.3 484.8 200.8 453.7C203.5 421.7 195.8 419.6 193.3 418.9C190 418 186.8 417.1 185.9 414C182.7 403.8 183.1 383.2 190 363.5C195.1 349 193 345.4 190 340.4C189 338.8 188 337.1 187.1 334.9C183.2 325.3 184.9 320.9 198.9 289.4C212.3 259.2 182.5 225.4 182.2 225.1C181.6 224.4 181.6 223.3 182.2 222.6C182.8 221.9 184 221.9 184.7 222.5C184.8 222.6 188.6 225.7 199.9 235C205.2 239.3 210.5 240.3 216.1 241.4C222.3 242.6 228.7 243.8 235.2 249.6C241.5 255.2 255.7 271.9 270.8 289.5C283.9 304.8 297.4 320.6 304.6 327.8C320.9 344.1 346.5 352.3 354.9 354.9C357 355.6 359.3 355.9 361.6 355.9C372.1 355.9 383.6 349.1 391 338.6C400.1 325.5 389.7 297 378.8 283.9C370.1 273.4 351.2 268.2 337.4 264.3C333.3 263.1 329.3 262 326.2 261C311.9 256 279.7 227.1 273.8 221.2C266.9 214.3 252.7 204.6 244.8 199.7C240 196.7 233.8 186.1 228.4 176.7C224.9 170.6 221.3 164.3 219.3 162.5C214.6 158.3 208.3 157.7 202.6 157.1H202.1C199 156.8 196.6 156 194.1 155.2C191.7 154.4 189.2 153.6 185.5 153C182.9 152.6 180.6 152.6 178.1 152.8C176.9 152.9 175.5 152.9 173.9 152.9C170.6 152.9 167 152.5 162.6 151.8C158.7 151.1 154.6 150.8 150.3 150.8C144.3 150.8 139.7 151.4 138 151.7C136.1 153.7 136 154.8 136.1 155.3C136.5 157.2 141.3 158.9 145.5 160.4L145.9 160.5C148.5 161.4 153.9 162.8 162 164.5C162.5 164.5 163 164.5 163.5 164.5C171.2 164.5 183.7 167.6 186.8 169.5C187.6 170 187.9 170.9 187.6 171.8C187.3 172.6 186.4 173.2 185.5 173C185.4 173 173.1 170.7 161.7 168.3C158.3 168.6 152.9 168.2 147.2 167.8C142.3 167.4 136.8 167 132 167C130.7 167 129.5 167 128.4 167.1C125.9 167.2 124.3 167.9 123.5 169.2C122.2 171.3 123.6 174.7 123.6 174.8C123.9 175.4 123.8 176 123.4 176.6C123 177.1 122.5 177.4 121.9 177.4L79.4001 176.1C79.6001 176.6 79.7001 177.1 79.7001 177.6L129.9 178.9C131.2 178.6 132.4 178.7 133.5 179C134.4 179.3 135 180.1 134.8 181.1C134.7 182 133.9 182.7 133 182.7L130.2 182.6C129.6 182.8 129.1 183.1 128.7 183.5C127.6 184.5 127.3 186.1 127.7 187.9C127.9 188.2 129.5 189.7 141.3 193C142.7 192.6 144.3 192.5 146.1 192.5C156.3 192.5 169.5 198.1 171.1 198.8L181.7 202.3C182.6 202.6 183.2 203.6 182.9 204.5C182.7 205.4 181.7 206 180.8 205.9C180.2 205.8 166.9 203.2 153.5 200C148.9 198.9 144.7 197.8 141.2 196.9C140.4 197.2 139.8 197.5 139.3 197.9C138.3 198.7 138 199.2 138.1 199.5C138.5 201.6 146.6 204.6 151.5 206.3C154.5 207.4 157.3 208.4 159.5 209.4C168.2 213.4 178.2 218.2 178.3 218.2C178.9 218.5 179.3 219.1 179.4 219.8C179.4 220.5 179.1 221.2 178.4 221.5C178.4 221.5 173.3 224.5 167.8 231C163.3 236.4 156.4 241.8 152.9 244.4C157.7 249.1 160.8 256.8 162.2 267.3C164.7 273.7 166.4 281.4 167.2 290.2C168.4 303 167.5 315.1 166.9 321C167.3 320.8 167.7 320.5 168 320.3C170.7 318.7 173.4 317.1 176.1 317.1C176.9 317.1 177.6 317.2 178.3 317.5C180.3 318.4 181.7 320.4 182.5 323.8C183.7 329 182.9 345.1 181.9 363.8C180.9 384 179.7 406.8 181.2 416.6C184.3 436.2 182.6 472.8 182.5 474.4C182.5 475.4 181.6 476.2 180.7 476.2C180.2 476.2 179.7 476 179.4 475.6C179 475.2 178.9 474.8 178.9 474.3C179 472.8 180.5 436.2 177.6 417.3C176 407.1 177.2 384.1 178.2 363.8C179.1 346.1 180 329.4 178.9 324.8C178.4 322.8 177.7 321.5 176.9 321.1C175.5 320.5 172.5 322.2 170 323.7C168.5 324.6 166.9 325.5 165.4 326.1C164.8 326.3 164.1 326.2 163.5 325.8C162.9 325.4 162.7 324.7 162.8 324.1C162.8 323.9 165.5 305.1 163 286.3C162.3 306.6 157.9 326.2 157.7 327.1C157.6 327.4 157.5 327.6 157.3 327.9C154.1 331.8 149.6 333.8 143.7 333.8C133.8 333.8 123.6 328 123.2 327.8C122.6 327.5 122.3 326.8 122.3 326.2C122.3 325.5 122.7 324.9 123.3 324.6C138 316.5 138.1 281 129.8 264.1C128.1 260.6 125.2 256.4 121.5 256.4C120.7 256.4 119.9 256.6 119.1 256.9C116 258.2 112.8 259 109.4 259.2C118.5 264.1 130.6 272.9 130.2 285.2C129.7 301.3 128.9 325.5 113.8 326.9C109.6 327.3 105.9 328.2 102.4 329.1C98.2001 330.2 94.2001 331.2 89.8001 331.2C86.3001 331.2 82.9001 330.5 79.5001 329.2C75.6001 327.6 50.6001 305.3 41.5001 283.6C40.3001 280.8 39.2001 277.9 38.0001 275.1C31.4001 258.5 24.0001 240.3 19.0001 238C11.5001 234.4 2.7001 217.2 1.0001 210.8C-0.599899 204.9 -0.5999 188.4 3.1001 183.9C4.2001 182.6 5.1001 179.3 5.9001 176.5C7.0001 172.5 8.1001 168.4 10.3001 166.2C12.6001 163.9 16.2001 163.6 19.3001 163.4C21.3001 163.2 23.6001 163.1 24.2001 162.3L24.3001 162.2C34.8001 149 40.6001 138 40.3001 131.8C40.0001 127.2 41.6001 125.3 43.0001 124.4C44.5001 123.5 46.5001 123.5 48.3001 124.5C49.9001 125.4 51.4001 127 52.4001 129C52.7001 128.4 53.0001 127.8 53.4001 127.3C55.2001 124.9 58.2001 123.7 62.3001 123.7L146 124.6C146.1 124.6 146.3 124.6 146.4 124.7C146.5 124.7 155.4 127.1 155.4 136.6C155.4 142.9 155.6 144.4 155.7 144.7C155.8 145.2 155.8 145.6 155.6 146C155.3 146.6 154.7 147.1 154 147.1H153.6C157 147.2 160.2 147.6 163.4 148.1C167.6 148.8 171 149.2 174.1 149.2C175.6 149.2 176.9 149.1 178.1 149.1C179.2 149 180.3 149 181.5 149C183.1 149 184.6 149.1 186.3 149.4C190.3 150 193 150.9 195.5 151.7C197.9 152.5 199.9 153.2 202.7 153.5L203.2 153.6C209.1 154.2 216.4 154.9 222 159.9C224.4 162.1 227.9 168.1 231.9 175C236.6 183.1 243 194.2 247 196.7C255 201.6 269.6 211.6 276.7 218.7C284.5 226.5 314.7 253.1 327.6 257.6C330.6 258.6 334.5 259.7 338.5 260.9C352.8 264.9 372.4 270.4 381.8 281.7C393.4 295.7 404.3 326.4 394.2 340.9C386.2 352.4 373.5 359.8 361.7 359.8C359 359.8 356.4 359.4 353.9 358.6C345.3 355.9 319 347.5 302.1 330.6C294.8 323.3 281.3 307.5 268.2 292.2C253.8 275.4 239 258.1 232.9 252.6C227.2 247.5 221.6 246.4 215.6 245.3C209.8 244.2 203.8 243.1 197.7 238.2C196.2 237 194.9 235.9 193.7 234.9C195.7 238.1 197.5 241.4 199.1 244.7C207.2 261.7 208.3 277.8 202.4 291.3C188.3 323.1 187.5 325.9 190.7 333.9C191.5 335.8 192.4 337.4 193.3 338.9C196.6 344.3 199.4 349 193.7 365.2C187 384.1 186.6 403.7 189.6 413.3C189.9 414.3 191.7 414.9 194.5 415.7C200.3 417.3 207.5 422.9 204 452.7C200.7 480.3 248.1 493.4 254.9 495.1C262.1 481.4 312.7 386.2 344.3 369.3C344.8 369 345.5 369 346 369.3C346.1 369.3 352.3 372.3 360.9 372.3C369.2 372.3 376.8 369.6 383.3 364.3C394.9 354.9 406.2 335.3 405.4 315.9C404.8 300.4 396.8 287.2 381.6 276.9C380 275.9 371.8 270.3 373.2 264.6C374 261.3 377.6 259.1 384.4 258C380.7 251.8 380.3 245.7 383.3 239.8C387 232.4 396.5 225.5 409.3 220.8C393.6 214.2 377.6 202.3 376.9 201.7C376.2 201.2 376 200.3 376.3 199.6C376.7 198.4 377.1 197.1 377.3 195.8C377 195.5 376.7 195.2 376.4 194.9C368.3 199.4 334.8 218.5 327.7 226.1C327.2 226.7 326.3 226.9 325.6 226.5C324.9 226.2 324.4 225.5 324.5 224.7C324.5 223.9 325.5 206.2 319.5 199.5C318.2 198.1 316.8 197.4 315.1 197.3C315 197.3 314.9 197.3 314.8 197.3C306.3 197.3 301.7 216.4 299.9 223.5C299 227 298.8 227.8 298.3 228.4C297.8 228.9 296.9 229.1 296.3 228.8C295.6 228.5 295.2 227.8 295.2 227.1C295.2 226.8 295.1 199.1 283.6 190.4C281.7 189 280.2 188.5 279.2 189.1C275.2 191.6 275.3 206.4 276 209.7C276.2 210.6 275.6 211.6 274.7 211.9C273.7 212.2 272.8 211.6 272.4 210.8C272 209.8 263.6 186.9 277.4 173.1C276.6 169.6 273.7 156.9 271.3 151.6L270.9 150.8C267.3 142.9 256.4 119 257 106.7C257.3 100.3 258.2 95.3 259 91.3C259.7 87.6 260.2 84.7 260 82.4C259.8 80.9 259.6 79.3 259.3 77.5C258.6 73.1 257.8 68.2 258.2 63.8C258.7 58.3 262.4 42.9 266.3 34.4C263.5 33.1 258.2 30 256 24.7C254.4 20.8 254.8 16.5 257.2 12C257.5 11.4 258.2 11 258.8 11C258.9 11 271.1 10.9 285.8 5.8C293.5 2.8 311 0 326.8 0C339.3 0 348.5 1.8 353.6 5.1C356.2 6.8 357.8 8.9 358.4 11.4C361.8 11.9 370.5 13.9 376.6 22.4C384.3 33.2 384.7 50.2 378 72.7C379.7 73.2 382.3 74.5 384.1 77.4C387.9 83.3 387 93.1 381.4 106.6C381.4 106.7 381.3 106.8 381.3 106.9C381.1 107.3 375.7 115.7 369.7 119.2C366.2 131.4 362.5 149.3 364.6 166.1C364.7 166.7 364.5 167.3 364 167.7C363.9 167.8 359.3 171.9 352.5 176.9C359.6 173.7 364.3 171.4 366.5 170C369.1 168.4 372 168.7 374.6 170.8C379.5 174.8 382.4 184.8 381.3 193.9C386.2 197.6 394.9 202 402.9 205.8C412.6 210.4 429.8 214.3 436.7 215.8C437.5 215.9 438.3 216.1 439 216.3C440 216.6 440.5 217.6 440.3 218.5C440.1 219.5 439.1 220.1 438.1 219.9C437.8 219.8 437 219.7 435.8 219.4C435 219.3 434 219.2 432.9 219.2C429.9 219.2 426.1 219.7 422.1 220.5C422.9 220.6 423.7 220.8 424.5 220.8C427.3 221.1 430 221.1 431.9 221.1C433 221.1 434.1 221.1 435.2 221.1C448.5 220.9 459.1 221 463.1 243.9C463.3 245.3 467.2 276.1 457.6 293.5C453 301.9 449.6 305.8 447 308.9C444.2 312.2 442.5 314.2 440.8 319.6C439.2 324.7 436.1 332.6 433.2 340.2C429.6 349.4 426 358.8 425 362.9C423.4 369.8 420.1 380.6 413.1 393.3C410.4 398.2 409.8 403.2 409.1 408.5C408.2 415.4 407.3 422.6 401.8 430.5C392.1 444.4 390 450.7 392.1 459.5C392.4 460.8 392.7 462 393.1 463.3C395.4 471.8 398.1 481.5 388.2 495.8C387.7 496.6 386.6 496.8 385.8 496.4C385.3 496.1 385 495.7 384.9 495.2C384.8 494.7 384.9 494.1 385.2 493.7C394.1 480.8 391.8 472.4 389.6 464.3C389.3 463.1 388.9 461.7 388.6 460.4C386 449.4 389.7 441.6 398.9 428.4C403.8 421.3 404.7 414.6 405.5 408.1C406.2 402.7 406.9 397.1 409.9 391.6C416.7 379.3 419.9 368.8 421.4 362.1C422.4 357.8 425.9 348.6 429.7 338.9C432.7 331.3 435.7 323.5 437.3 318.5C439.2 312.4 441.5 309.8 444.3 306.5C446.9 303.5 450.1 299.8 454.5 291.7C463.5 275.4 459.6 244.8 459.6 244.5C456.4 226.2 449.6 224.9 438.6 224.9C437.6 224.9 436.6 224.9 435.5 224.9H435C434 224.9 432.9 224.9 431.9 224.9C429.8 224.9 427.1 224.9 424.1 224.6C421.3 224.3 418.2 223.6 414.7 222.5C400.7 226.9 390.2 233.8 386.5 241.1C383.9 246.2 384.5 251.6 388.4 257.2C388.5 257.2 388.6 257.2 388.7 257.2C401.5 257.2 417.3 270.3 425.6 287.7C430.9 298.9 440.3 328 412.1 355C411.5 355.6 410.4 355.7 409.7 355.1C409 354.5 408.8 353.5 409.2 352.7C409.5 352.2 416.6 339.6 418.5 323.1C421.1 301.1 413.6 283.2 396.2 270C392.3 267 389.1 264 386.7 261C378.3 262.1 377 264.2 376.8 265C376.2 267.8 381.7 272.1 383.7 273.4C399.7 284.3 408.4 298.8 409.1 315.4C409.9 335.9 397.9 356.8 385.6 366.8C378.4 372.7 370.1 375.7 360.9 375.7C353.3 375.7 347.4 373.6 345.3 372.7C313 391.2 258.2 496.6 257.6 497.7C257.1 498.2 256.5 498.6 255.8 498.6ZM413.5 348.5C412.9 349.8 412.4 350.9 412 351.7C412.9 350.8 413.7 349.9 414.5 349.1C414.4 349.1 414.3 349 414.3 349L413.8 348.7C413.7 348.7 413.6 348.6 413.5 348.5ZM391.7 261.1C393.6 263 395.8 265 398.4 267C421.5 284.5 424.1 307.4 422.2 323.6C421.3 331.2 419.4 338 417.4 343.3C433.9 320.7 426.4 298.3 422.2 289.3C415.2 274.7 402.5 263 391.7 261.1ZM128 325.7C131.4 327.3 137.9 329.8 143.9 329.8C148.4 329.8 151.9 328.4 154.3 325.7C155.3 321.1 161.6 291 158.7 268.1C154.9 258.7 149.3 252.8 141.9 250.3L141.7 250.2C141.6 250.2 137 248 131.1 248C127.7 248 124.5 248.7 121.6 250.1C116.7 252.6 112 253.4 108.2 254.1C106.6 254.4 105.4 254.6 104.4 254.9C109.1 255.5 113.5 254.9 117.6 253.2C118.9 252.6 120.2 252.3 121.5 252.3C126 252.3 130 255.7 133.2 262.1C141.4 278.9 142.1 313.9 128 325.7ZM45.4001 127.4C45.2001 127.4 45.1001 127.4 44.9001 127.5C44.4001 127.8 43.8001 129.1 43.9001 131.5C44.4001 141.2 33.6001 156.3 27.1001 164.4L27.0001 164.5C25.4001 166.5 22.3001 166.8 19.4001 167C16.8001 167.2 14.1001 167.4 12.7001 168.8C11.2001 170.3 10.2001 174.1 9.3001 177.4C8.3001 180.9 7.5001 184.3 5.8001 186.2C3.5001 188.9 2.7001 203.4 4.4001 209.7C6.1001 216 14.8001 231.8 20.4001 234.5C26.6001 237.5 33.1001 253.2 41.2001 273.1L41.4001 273.6C42.5001 276.3 43.6001 279 44.7001 281.7C53.2001 302.2 77.1001 323.8 80.6001 325.3C83.6001 326.5 86.5001 327.1 89.5001 327.1C93.4001 327.1 97.1001 326.1 101.1 325.1C104.8 324.2 108.7 323.2 113.2 322.8C124 321.8 125.6 303.4 126.2 284.7C126.7 268.7 99.5001 258.4 99.3001 258.3C98.8001 258.1 98.4001 257.8 98.2001 257.3C87.6001 254.1 78.2001 246.3 72.2001 240.3C70.7001 238.8 69.3001 237.7 68.0001 236.7C63.1001 232.9 60.4001 230.2 65.5001 221.6C67.3001 218.6 68.8001 214.3 69.9001 208.7C69.3001 209.4 68.7001 210 68.0001 210.6C64.8001 213.5 60.7001 215.6 55.9001 216.8C54.1001 218.3 52.0001 219.1 49.7001 219.1C47.8001 219.1 46.1001 218.6 45.0001 218.3C44.6001 218.2 44.2001 218.1 44.0001 218H43.9001C42.8001 217.9 42.1001 217.1 42.1001 216.1C42.1001 215.1 43.0001 214.3 44.0001 214.3C44.1001 214.3 44.2001 214.3 44.3001 214.3C44.5001 214.3 45.0001 214.3 45.6001 214.3C47.6001 214.3 50.6001 214.1 53.9001 213.4C54.4001 212.9 54.8001 212.3 55.2001 211.6C55.6001 210.9 55.7001 210.3 55.3001 209.6C54.5001 207.9 51.8001 206 47.8001 204.3C45.4001 203.6 43.8001 203.1 42.6001 202.7C41.9001 202.4 40.7001 202 40.8001 200.6C40.8001 199.8 41.3001 199.1 42.1001 198.8C42.2001 198.8 42.4001 198.7 42.6001 198.7C43.7001 198.7 46.4001 199.5 49.1001 200.7C54.3001 202.2 60.9001 203.8 62.6001 204.2C64.7001 203.6 66.0001 202.8 66.4001 201.8C66.8001 200.7 66.4001 199.1 65.2001 197.1C62.1001 192 39.4001 184.8 25.8001 181.5C24.8001 181.3 24.2001 180.2 24.4001 179.3C24.6001 178.3 25.6001 177.7 26.6001 177.9L50.1001 183.2C50.3001 183.2 50.5001 183.3 50.7001 183.5C51.0001 183.7 58.2001 188.2 64.1001 188.2C64.9001 188.2 65.7001 188.1 66.3001 187.9C68.3001 187.4 69.5001 186.4 70.1001 184.8C71.0001 182.4 70.1001 179.2 68.7001 177.3C66.7001 174.5 61.3001 173.1 59.4001 172.8C58.5001 172.7 57.8001 171.9 57.8001 171L57.2001 141.2C56.9001 136.9 57.8001 133.7 60.0001 131.8C62.4001 129.7 65.3001 129.9 66.3001 130.1L137.7 130.9C147.3 130.9 147.8 135.4 147.8 136.3V143.6L151.1 143.4C151 141.9 151 139.6 151 136.5C151 130.5 146 128.6 145 128.3L61.6001 127.4C58.7001 127.4 56.7001 128.1 55.6001 129.5C53.7001 132 54.9001 136.1 54.9001 136.1C55.0001 136.3 55.0001 136.5 55.0001 136.7L54.4001 168.6C54.4001 169.2 54.1001 169.7 53.6001 170.1C53.1001 170.4 52.5001 170.5 51.9001 170.4L51.0001 170.1C47.9001 169.1 44.7001 168.1 43.6001 165.1C42.7001 162.8 43.4001 159.9 45.6001 155.9C48.2001 151.5 49.5001 147.2 49.5001 136.3C49.5001 131.8 47.5001 128.7 45.7001 127.7C46.1001 127.5 45.7001 127.4 45.4001 127.4ZM161.2 270.2C161.4 272.2 161.5 274.1 161.6 276.2C161.7 276.1 161.8 276.1 162 276.1L162.6 276C162.7 276 162.8 276 163 276C162.4 274 161.8 272 161.2 270.2ZM158.1 261.6C158.7 262.7 159.4 263.9 159.9 265.2C159.7 263.8 159.4 262.5 159.1 261.2C159 261.2 159 261.3 158.9 261.3L158.4 261.5C158.2 261.5 158.1 261.6 158.1 261.6ZM100.6 256.4C101.2 256.6 102.7 257.2 104.9 258.2C104.9 258.1 104.9 258 104.9 257.9L105 257.3C105 257.2 105.1 257.1 105.1 257.1C103.9 257 102.7 256.8 101.5 256.5L101 256.4C100.8 256.4 100.6 256.3 100.5 256.1C100.5 256.3 100.6 256.4 100.6 256.4ZM143.2 246.7C148.1 248.4 152.4 251.4 155.9 255.7C154.2 251.2 151.9 247.8 149 245.6C148.5 245.2 148.3 244.7 148.3 244.1C148.3 243.5 148.6 243 149.1 242.6C149.2 242.5 159.5 235.2 165.2 228.5C168.6 224.4 171.9 221.6 174 220C170.4 218.3 164 215.3 158.2 212.6C156.1 211.6 153.4 210.7 150.6 209.6C142.5 206.7 135.4 204.2 134.7 199.9C134.4 198.3 135.1 196.7 136.7 195.3C125.1 191.7 124.6 189.9 124.3 188.7C123.7 186.4 124 184.1 125 182.3L77.9001 181.1C77.4001 181.1 76.8001 180.8 76.5001 180.4C76.2001 180 76.0001 179.4 76.1001 178.9C76.1001 178.8 76.4001 176.6 74.6001 175.5C73.9001 175.1 73.5001 174.2 73.8001 173.4C74.0001 172.6 74.8001 172.1 75.6001 172.1L119.5 173.4C119.2 171.5 119.2 169.1 120.4 167.1C121.8 164.8 124.5 163.5 128.3 163.3C129.4 163.2 130.7 163.2 132.1 163.2C135.9 163.2 140 163.4 144 163.7C138.3 161.7 133.4 159.8 132.6 156C132.1 153.7 133.2 151.3 135.9 148.5C136.2 148.2 136.5 148.1 136.9 148C137.1 148 140.4 147.3 145.5 147.1L145.4 147C145 146.6 144.8 146.1 144.8 145.6V136.4C144.7 136.2 143.9 134.6 138.4 134.6L66.8001 133.8C66.7001 133.8 66.5001 133.8 66.4001 133.8C66.4001 133.8 66.1001 133.7 65.7001 133.7C65.0001 133.7 63.9001 133.8 63.1001 134.6C61.8001 135.7 61.3001 137.8 61.6001 141L62.2001 169.4C64.8001 170 69.9001 171.6 72.5001 175.1C74.4001 177.8 75.8001 182.3 74.4001 186.1C73.7001 188 72.0001 190.5 68.0001 191.5C67.3001 191.7 66.5001 191.8 65.7001 191.8C67.4001 192.9 68.5001 194.1 69.2001 195.1C70.4001 197 71.0001 198.8 71.1001 200.4C71.7001 198.8 72.2001 197 72.5001 195C72.7001 193 72.8001 191.6 72.8001 191.3C72.9001 190.3 73.7001 189.5 74.7001 189.5C75.8001 189.5 76.6001 190.4 76.5001 191.4C76.5001 192.7 76.4001 194 76.2001 195.2C75.6001 202.4 73.8001 215.8 69.2001 223.4C65.5001 229.6 66.8001 230.5 70.8001 233.7C72.2001 234.8 73.7001 236 75.3001 237.6C80.9001 243.2 89.7001 250.6 99.4001 253.6C100.9 251.6 104.1 251 107.7 250.3C111.2 249.6 115.6 248.8 120.1 246.6C123.5 244.9 127.3 244 131.3 244C137.4 244.2 142.4 246.4 143.2 246.7ZM186 226.3C186.8 227.3 187.8 228.6 188.9 230.2C188.9 230.1 189 230 189.1 229.9L189.5 229.5C189.6 229.4 189.6 229.4 189.7 229.3C188.2 228 187 227 186 226.3ZM296.9 221.1C297 222.6 297.1 223.9 297.1 224.9C297.3 224.2 297.5 223.4 297.6 222.7C297.7 222.2 297.8 221.8 298 221.2C297.9 221.2 297.8 221.2 297.7 221.2H297.1C297.1 221.2 297 221.1 296.9 221.1ZM415.8 220.4C415.9 220.4 416.1 220.5 416.2 220.5V220.4V220.3C416.1 220.4 415.9 220.4 415.8 220.4ZM413.4 220.3C413.4 220.3 413.4 220.4 413.4 220.3C413.4 220.4 413.4 220.4 413.4 220.5C413.5 220.5 413.6 220.4 413.7 220.4C413.5 220.4 413.4 220.3 413.4 220.3ZM314.7 193.2C314.8 193.2 315 193.2 315.2 193.2C317.9 193.3 320.3 194.5 322.2 196.6C327.3 202.3 328.1 213.9 328.2 220.1C340.8 209.9 374.3 191.3 375.8 190.5C376.4 190.2 377.1 190.2 377.7 190.5C377.8 183.5 375.5 176.4 372.2 173.6C370.9 172.5 369.6 172.3 368.4 173.1C361.5 177.4 333.9 189.1 328.4 191.4C327.9 191.6 327.5 191.8 327 192C326 192.4 325 191.9 324.6 191C324.2 190 324.7 189 325.6 188.6L327.1 188C341.6 181.7 357.1 168.7 360.8 165.5C359 149.4 362.2 132.4 365.4 120.6C364.5 120.7 363.7 120.6 362.9 120.4C361.8 126.1 358.7 138.7 352.3 151C342 170.5 327.3 180.8 309.7 180.8C308 180.8 306.2 180.7 304.4 180.5C303.5 180.5 298.1 180.1 291.6 174.6C283.3 167.5 276.9 155.2 272.8 138C266.6 112.3 269.4 103 271.5 96.2C272.8 92.1 273.7 89.1 272.2 83.4C268.8 70.2 265.4 67.9 265.1 67.7C264.3 67.4 263.8 66.6 263.9 65.7C264 64.5 267.7 35.9 280 28.5C280.2 28.4 280.4 28.3 280.6 28.3C281.7 28.1 308.7 23 329.1 23C338.4 23 345 24 348.8 26.1C349.2 26.3 349.5 26.7 349.7 27.2C349.9 27.7 353.6 39.2 348.2 53.4C350.9 54.1 355 55.9 357.8 60.2C361 65.1 361.5 71.8 359.2 80.1L364.4 80.5C366 79.2 369.7 76.8 373.1 76.8C374.3 76.8 375.3 77.1 376.2 77.7C380.1 80.3 380 87.5 376.1 100.6C376.1 100.7 376.1 100.7 376 100.8C376 100.9 373.9 105.6 371.4 113C374.2 110.3 376.7 106.9 377.9 105C384.2 89.9 382.9 82.7 380.8 79.4C378.7 76.2 375.5 76 375.4 76C374.8 76 374.3 75.7 373.9 75.2C373.6 74.7 373.5 74.1 373.6 73.6C380.6 51.2 380.6 34.7 373.4 24.6C367 15.5 356.7 15 356.6 15C355.6 15 354.9 14.2 354.8 13.3C354.7 11.3 353.6 9.7 351.4 8.3C345.8 4.6 334.9 3.8 326.7 3.8C311.3 3.8 294.3 6.5 286.8 9.1C274 13.5 263.4 14.3 259.8 14.5C258.4 17.7 258.2 20.5 259.2 23.1C261.5 28.8 269.1 31.4 269.2 31.4C269.7 31.6 270.1 32 270.3 32.5C270.5 33 270.5 33.6 270.2 34.1C266.2 41.5 262.2 58.1 261.6 63.9C261.2 67.8 262 72.5 262.6 76.6C262.9 78.4 263.2 80.1 263.3 81.7C263.6 84.6 263 87.7 262.3 91.7C261.6 95.6 260.7 100.5 260.4 106.6C260 114.2 264.6 128.4 274 149L274.4 149.8C277.4 156.4 280.8 172.4 281 173.1C281.1 173.7 280.9 174.4 280.4 174.9C275.3 179.6 273.4 185.9 273.1 191.8C274 188.9 275.2 186.9 276.9 185.8C279.3 184.3 282.3 184.8 285.5 187.3C293.4 193.3 296.5 206.4 297.8 215.8C300.9 205 305.8 193.2 314.7 193.2ZM380 199.1C384.2 202.1 400.4 213.4 414.7 218.5C417.6 217.6 420.5 217 423.2 216.5C415.9 214.6 407.2 212 401.1 209.2C393.8 205.7 385.7 201.7 380.4 198C380.3 198.3 380.2 198.7 380 199.1ZM428.5 216.1C428.5 216.2 428.5 216.3 428.5 216.4V217C428.5 217.1 428.5 217.2 428.5 217.2C429.8 217.1 431 217 432.2 217C431 216.7 429.8 216.4 428.5 216.1ZM47.3001 216.6C48.2001 216.8 49.1001 217 50.1001 217C51.6001 217 52.9001 216.6 54.1001 215.8C51.5001 216.3 49.1001 216.5 47.3001 216.6ZM56.7001 214.3C56.6001 214.4 56.5001 214.5 56.5001 214.6C56.6001 214.6 56.8001 214.5 56.9001 214.5C56.8001 214.4 56.7001 214.3 56.7001 214.3ZM58.7001 207C60.0001 208.8 60.1001 210.5 59.8001 211.8C62.2001 210.8 64.2001 209.5 65.9001 207.9C66.3001 207.6 66.6001 207.3 66.9001 206.9C65.6001 207.5 64.4001 207.8 63.7001 208C63.4001 208.1 63.1001 208.1 62.8001 208C62.8001 208 61.1001 207.6 58.7001 207ZM272.1 200.8C272.5 203.1 272.9 205.1 273.4 206.7C273.3 205.1 273.3 203 273.4 200.8C273.3 200.8 273.2 200.8 273.1 200.8H272.5C272.3 200.8 272.2 200.8 272.1 200.8ZM52.4001 203.8C53.4001 204.3 54.2001 204.9 55.0001 205.4C55.0001 205.3 55.0001 205.3 55.1001 205.2L55.4001 204.7C55.4001 204.6 55.5001 204.6 55.5001 204.5C54.5001 204.4 53.5001 204.1 52.4001 203.8ZM71.6001 204.2C71.7001 204.2 71.8001 204.2 71.9001 204.3L72.4001 204.5C72.5001 204.5 72.6001 204.6 72.6001 204.6C72.8001 203.2 73.0001 201.9 73.2001 200.6C72.8001 201.9 72.2001 203.1 71.6001 204.2ZM166.8 200.5C170.3 201.3 173.5 201.9 176 202.4L170.6 200.6H170.5C170.1 200.4 168.9 199.9 167.1 199.2C167.1 199.3 167.1 199.5 167.1 199.6L166.9 200.2C166.9 200.3 166.9 200.4 166.8 200.5ZM142.8 194.8C143.8 195.1 144.9 195.4 146 195.7C146 195.6 146 195.5 146 195.4L146.1 194.8C146.1 194.7 146.1 194.6 146.2 194.6C145 194.5 143.9 194.6 142.8 194.8ZM140.2 194.7C140.2 194.8 140.2 194.8 140.2 194.7C140.2 194.8 140.3 194.8 140.3 194.7C140.3 194.8 140.2 194.7 140.2 194.7ZM39.8001 183.1C46.8001 185.2 55.3001 188.1 61.1001 191.2C61.1001 191.1 61.1001 191 61.2001 191L61.4001 190.4C61.4001 190.3 61.5001 190.2 61.5001 190.1C56.1001 189 50.8001 185.8 50.2001 185.4L39.8001 183.1ZM343.9 181C341.5 182.6 339.1 184.1 336.5 185.6C339 184.5 341.7 183.3 344.5 182.1C344.4 182 344.3 181.9 344.3 181.8L344 181.3C344 181.2 343.9 181.1 343.9 181ZM128.2 180.8C128.2 180.9 128.2 180.9 128.3 181C128.4 181 128.5 180.9 128.6 180.9L128.2 180.8ZM267.8 65C269.9 66.7 272.9 71.2 275.8 82.5C277.5 89.1 276.3 93.1 275 97.3C273 103.7 270.4 112.4 276.4 137.1C285.8 175.7 304.4 176.7 304.5 176.8C304.5 176.8 304.6 176.8 304.7 176.8C306.4 177 308.1 177.1 309.8 177.1C326.1 177.1 339.2 167.7 348.9 149.3C357 133.8 359.6 117.5 359.6 117.4C359.7 116.7 360.2 116.2 360.8 115.9C361.4 115.7 362.1 115.8 362.7 116.2C363.5 116.9 364.3 117.1 365.3 116.9C365.7 116.8 366.1 116.7 366.5 116.6C369.4 107 372.2 100.4 372.6 99.4C377.1 84.2 374.9 81.3 374.1 80.8C373.8 80.6 373.5 80.5 373.1 80.5C370.9 80.5 367.5 82.7 366.1 83.8C365.8 84.1 365.3 84.2 364.9 84.2H364.8L356.6 83.6C356 83.6 355.5 83.3 355.2 82.8C354.9 82.3 354.8 81.7 355 81.2C357.7 72.9 357.6 66.6 354.7 62.2C351.4 57.2 345.7 56.6 345.4 56.6C344.8 56.5 344.3 56.2 344 55.7C343.7 55.2 343.7 54.5 343.9 54C349.1 42.1 347.1 31.8 346.4 29C343 27.5 337.3 26.7 329.4 26.7C310.4 26.7 285.2 31.2 281.7 31.8C272.4 38 268.6 59.6 267.8 65ZM76.6001 174.3C76.7001 174.3 76.7001 174.3 76.6001 174.3C76.7001 174.3 76.7001 174.3 76.6001 174.3ZM165.1 166.6C172.1 168 179 169.4 182.9 170.1C178.5 168.6 170.7 166.9 165.1 166.6ZM51.7001 153.6C51.1001 155.1 50.4001 156.5 49.6001 157.8C47.5001 161.5 47.6001 163.1 47.8001 163.8C48.2001 164.9 49.7001 165.5 51.4001 166.1L51.7001 153.6ZM152.5 165.8C155 166 157.3 166.1 159.2 166.1H159.3C156.8 165.5 154.6 165 152.6 164.6C152.6 164.7 152.6 164.8 152.6 165L152.5 165.6C152.5 165.6 152.5 165.7 152.5 165.8ZM52.3001 145.4C52.4001 145.4 52.4001 145.4 52.3001 145.4H53.0001C53.1001 145.4 53.3001 145.4 53.4001 145.5L53.5001 136.7C53.4001 136.4 52.9001 134.6 53.1001 132.5C53.0001 132.5 52.9001 132.5 52.9001 132.5H52.3001C52.2001 132.5 52.1001 132.5 52.1001 132.5C52.4001 133.6 52.5001 134.9 52.5001 136.2C52.5001 139.9 52.4001 142.8 52.1001 145.3C52.1001 145.5 52.2001 145.4 52.3001 145.4ZM368.6 117.1C368.5 117.2 368.5 117.2 368.6 117.1C368.6 117.2 368.6 117.2 368.6 117.1Z" fill="url(#paint0_linear_3984_3611)"/>
<defs>
<linearGradient id="paint0_linear_3984_3611" x1="231.991" y1="0" x2="231.991" y2="498.6" gradientUnits="userSpaceOnUse">
<stop stop-color="#00A6D1"/>
<stop offset="1" stop-color="#005970"/>
</linearGradient>
</defs>
</svg>
