<svg width="415" height="220" viewBox="0 0 415 220" fill="none" xmlns="http://www.w3.org/2000/svg">
<g clip-path="url(#clip0_3984_3606)">
<path d="M414.711 190.875C414.214 190.236 413.29 190.165 412.722 190.662C372.586 222.77 292.173 214.175 265.108 210.126C275.479 203.591 281.091 193.93 281.375 181.853H323.713C331.243 181.853 337.423 175.744 337.423 168.143L337.352 154.86H351.559C361.078 154.86 366.761 150.242 366.761 142.428C366.761 136.319 364.559 133.051 362.925 131.489C364.204 131.062 365.767 130.423 367.258 129.286C370.1 127.226 371.663 124.385 372.018 120.833C372.515 115.718 371.094 111.811 367.827 109.254C370.029 108.828 371.805 108.331 373.652 106.555C375.641 104.708 376.635 102.008 376.635 98.7407C376.635 93.9102 374.93 90.2163 371.663 88.0852C371.237 87.8011 370.739 87.5169 370.1 87.3038C372.089 86.6645 373.936 85.741 375.641 83.8231C378.056 81.0526 378.98 77.4298 378.411 72.9545C377.843 68.6923 375.215 65.4246 370.739 63.5066C367.472 62.0859 364.346 61.9438 364.204 61.8728H364.133H315.26C312.773 61.8728 311.921 60.8072 311.566 59.9548C310.855 57.9658 311.992 55.0533 314.336 53.0643C314.691 52.7801 314.976 52.496 315.331 52.2118C320.09 48.3048 325.986 43.3323 323.926 23.7972C322.505 10.2293 318.385 4.4753 315.118 2.06006C312.773 0.284146 310.642 0 309.577 0C309.222 0 308.938 0.0710365 308.795 0.0710365C308.653 0.0710365 308.511 0.142073 308.298 0.142073C304.888 0.497255 301.763 2.3442 301.479 12.7866C301.337 18.4695 299.277 24.7207 295.441 30.8298C291.676 36.8679 286.348 42.4798 280.168 47.0261C273.419 51.9277 269.939 59.1024 268.234 64.288C266.813 68.6212 266.245 71.4627 266.031 73.5228H252.464H251.753V37.2942C251.753 27.0649 243.371 18.6826 233.142 18.6826H137.242C127.013 18.6826 118.631 27.0649 118.631 37.2942V73.0965C111.243 73.1676 104.495 73.5938 98.2433 74.1621C97.3909 66.9874 94.6204 65.5667 91.6369 65.2115C91.4948 65.2115 91.3528 65.1404 91.1397 65.1404C90.9265 65.1404 90.7134 65.0694 90.4293 65.0694C89.3637 65.0694 87.3037 65.3536 84.8884 67.1295C82.8994 68.6212 80.6263 71.3206 78.7793 76.3642C76.5772 76.6484 74.4461 76.9325 72.315 77.2877C45.179 81.1237 27.2068 83.6099 2.13093 63.6487C1.70471 63.2225 0.781241 63.2935 0.283985 63.9328C-0.21327 64.5722 -0.0711974 65.4246 0.497095 65.9219C26.4964 86.6645 44.9659 84.0362 72.8122 80.1292C74.4461 79.916 76.151 79.6319 77.8558 79.4188C77.1455 82.0471 76.5061 85.1727 76.1509 88.9377C74.0909 108.473 79.9869 113.445 84.7464 117.423L84.8174 117.494C85.1016 117.778 85.4567 117.992 85.7409 118.276C88.014 120.265 89.2217 123.248 88.5113 125.166C88.1561 126.09 87.3037 127.084 84.8174 127.084H36.0153H35.9443C35.5891 127.084 32.5345 127.297 29.4089 128.718C24.9336 130.636 22.3053 133.904 21.737 138.166C21.1687 142.641 22.0922 146.264 24.5074 149.035C26.2123 150.953 27.9882 151.947 30.0483 152.515C29.48 152.799 28.9117 153.013 28.4855 153.297C25.2178 155.428 23.584 159.122 23.584 163.952C23.584 167.291 24.5785 169.919 26.5675 171.766C28.4144 173.471 30.1903 174.039 32.3925 174.466C29.1248 177.023 27.7041 180.859 28.2013 186.045C28.5565 189.596 30.1193 192.438 32.9608 194.498C34.4525 195.563 36.0153 196.274 37.294 196.7C35.6602 198.263 33.458 201.53 33.458 207.64C33.458 215.383 39.1409 220.071 48.6598 220.071H110.888C111.101 220.071 115.789 220.071 120.904 218.224C127.723 215.809 132.057 211.547 133.619 205.651C143.92 205.651 240.245 205.935 249.196 205.366C250.546 205.295 251.753 205.224 252.961 205.153C260.135 204.869 264.895 204.656 267.239 199.684C269.725 194.356 270.507 186.187 266.529 180.788C266.245 180.433 265.818 180.22 265.392 180.22L254.524 180.149C248.13 180.149 242.874 174.963 242.803 168.499C243.3 164.165 245.431 143.636 239.393 140.226C234.278 137.314 226.038 138.166 223.552 138.521C222.486 134.898 221.065 129.997 221.065 124.456C221.065 117.423 222.983 111.172 226.819 105.986H233.213C243.442 105.986 251.824 97.6041 251.824 87.3749V76.2932H252.535H265.96C266.031 79.3477 267.239 80.6264 268.234 81.1237C269.512 81.763 271.217 81.4788 272.425 80.3423C273.632 79.2057 274.13 77.6429 273.632 76.2932C273.206 75.2276 272.07 73.949 268.944 73.5938C269.157 71.7468 269.654 69.1185 271.004 65.1404C272.567 60.381 275.763 53.7746 281.873 49.2993C288.337 44.5399 293.878 38.7149 297.856 32.3216C301.905 25.7862 304.178 19.0378 304.32 12.8576C304.533 3.40975 307.091 3.19664 308.582 2.98353C308.795 2.98353 309.009 2.9125 309.222 2.9125C309.222 2.9125 309.364 2.9125 309.506 2.9125C310.216 2.9125 311.637 3.12561 313.271 4.40426C316.041 6.53536 319.593 11.65 320.943 24.2234C322.861 42.2667 318.03 46.3158 313.342 50.2228C312.987 50.5069 312.631 50.7911 312.347 51.0752C309.08 53.8457 307.588 58.0368 308.795 61.0914C309.222 62.228 310.713 64.9273 315.118 64.9273H363.991C364.346 64.9273 366.903 65.1405 369.532 66.277C373.083 67.8398 375.072 70.184 375.499 73.4517C375.996 77.0746 375.286 79.9871 373.368 82.1182C371.379 84.3913 369.247 84.8886 365.909 85.4569C365.269 85.5279 364.63 85.67 364.062 85.741C359.373 84.8176 354.188 84.5334 352.767 85.599C352.128 86.0252 351.915 86.7355 352.128 87.4459C352.412 88.3694 352.909 90.2874 364.133 88.5825C366.477 89.0797 368.608 89.7191 369.958 90.6425C372.373 92.2764 373.581 95.0468 373.581 98.8828C373.581 101.369 372.87 103.358 371.45 104.637C369.887 106.129 368.466 106.342 365.625 106.839C364.985 106.91 364.275 107.052 363.494 107.194C362.641 106.91 361.718 106.626 360.723 106.413C358.308 105.915 356.816 106.129 356.106 107.123C355.68 107.762 355.68 108.473 356.106 109.112C357.029 110.462 359.516 110.888 362.428 110.249C362.712 110.178 362.925 110.107 363.209 110.107C367.614 111.882 369.39 115.292 368.892 120.62C368.608 123.319 367.401 125.45 365.269 127.013C363.138 128.576 360.652 129.073 359.942 129.215C359.587 129.286 359.231 129.286 358.876 129.357C356.887 128.647 354.117 127.866 352.838 128.931C352.341 129.357 352.128 130.068 352.27 130.707C352.696 132.27 354.543 132.696 358.521 132.27C358.876 132.412 359.231 132.554 359.587 132.767C359.729 132.838 363.494 134.827 363.494 142.428C363.494 150.739 355.751 152.018 351.133 152.018H336.926L336.784 132.483C336.784 124.953 330.675 118.844 323.145 118.844H254.239C246.71 118.844 240.6 124.953 240.6 132.483C240.6 138.521 242.447 140.439 248.201 140.439H266.031C267.665 146.406 271.928 150.597 278.818 153.084C283.933 154.86 288.692 154.931 288.834 154.931H334.013L334.084 168.214C334.084 174.181 329.183 179.083 323.216 179.083H281.304C281.162 177.378 280.878 176.028 280.381 175.034C279.386 173.116 278.037 172.832 277.255 172.832C275.195 172.832 273.348 174.963 273.348 177.236C273.348 178.586 273.988 179.793 275.124 180.646C275.977 181.285 277.113 181.64 278.534 181.853C278.25 194.214 272.212 203.448 260.633 209.487C257.791 208.989 256.086 208.705 256.015 208.634C252.25 207.711 250.759 209.558 250.403 210.126C249.693 211.262 249.835 212.612 250.688 213.607C251.114 214.175 252.961 215.88 256.726 214.388C258.217 213.82 259.709 213.109 261.059 212.399C271.288 214.033 293.807 217.087 319.593 217.087C352.412 217.087 390.487 212.115 414.427 192.864C415.066 192.367 415.208 191.443 414.711 190.875ZM121.543 37.2942C121.543 28.6277 128.576 21.5241 137.313 21.5241H233.426C242.092 21.5241 249.196 28.5567 249.196 37.2942V73.3807L122.893 73.0965C122.396 73.0965 121.969 73.0965 121.543 73.0965V37.2942ZM118.702 75.938V87.3038C118.702 97.5331 127.084 105.915 137.313 105.915H197.197C197.339 107.62 197.836 111.598 199.897 116.713C202.951 124.243 207 128.505 209.913 131.631C212.044 133.904 213.536 135.396 213.678 137.1C209.202 139.658 169.848 139.8 133.975 138.592C133.762 136.532 133.193 133.691 131.773 129.357C130.068 124.243 126.587 117.068 119.838 112.096C113.658 107.549 108.402 101.937 104.637 95.8993C100.801 89.7901 98.7406 83.5389 98.5985 77.856C98.5985 77.5718 98.5985 77.2877 98.5985 77.0035C104.708 76.4353 111.385 76.0801 118.702 75.938ZM86.7354 69.4026C88.4403 68.124 89.861 67.9109 90.5003 67.9109C90.6424 67.9109 90.7845 67.9109 90.7845 67.9109C90.9976 67.9819 91.2107 67.9819 91.4238 67.9819C92.7025 68.124 94.7625 68.3371 95.4729 74.3752C90.7845 74.8014 86.3092 75.3697 82.118 75.938C83.5387 72.5283 85.2436 70.5392 86.7354 69.4026ZM221.634 141.576C222.06 143.778 221.705 144.772 221.35 145.056C220.994 145.341 220.071 145.128 219.289 144.63C218.508 144.062 218.153 143.423 218.295 143.067C218.366 142.641 219.218 141.931 221.634 141.576ZM249.125 87.3038C249.125 95.9703 242.021 103.074 233.355 103.074H226.464C225.896 103.074 225.328 103.358 224.972 103.784C220.568 109.538 218.295 116.5 218.366 124.385C218.366 130.139 219.787 135.253 220.852 138.805C217.798 139.303 216.022 140.51 215.525 142.286C215.098 143.92 215.88 145.696 217.656 146.903C219.432 148.182 221.563 148.324 222.983 147.33C224.475 146.264 224.972 144.204 224.404 141.221C226.89 140.865 233.994 140.226 238.114 142.57C241.382 144.417 241.24 158.624 240.103 168.143C240.103 168.214 240.103 168.285 240.103 168.285C240.103 176.313 246.639 182.848 254.666 182.848L264.753 182.919C267.594 187.394 266.813 194.001 264.753 198.405C263.261 201.673 260.206 201.957 252.961 202.241C251.753 202.312 250.475 202.383 249.125 202.454C239.961 202.951 134.046 202.738 132.98 202.738C131.986 202.738 131.204 203.448 131.133 204.372C131.133 204.443 131.062 204.443 131.062 204.514C129.784 209.7 126.09 213.394 120.052 215.525C115.434 217.159 111.172 217.159 110.959 217.159H48.6598C44.0425 217.159 36.2995 215.88 36.2995 207.569C36.2995 199.968 40.0644 197.979 40.2065 197.908C40.5617 197.695 40.9879 197.552 41.272 197.41C45.2501 197.908 47.097 197.41 47.5233 195.848C47.7364 195.208 47.5232 194.498 46.955 194.072C45.7473 193.006 42.9059 193.788 40.9169 194.498C40.5617 194.427 40.2775 194.427 39.8513 194.356C39.1409 194.214 36.6547 193.716 34.5236 192.154C32.3925 190.591 31.1849 188.389 30.9007 185.76C30.4035 180.362 32.1794 177.023 36.5836 175.247C36.7967 175.318 37.0809 175.318 37.365 175.389C40.2775 176.028 42.8348 175.531 43.6873 174.252C44.1135 173.613 44.1135 172.832 43.6873 172.263C43.048 171.269 41.4851 170.985 39.1409 171.553C38.1464 171.766 37.223 172.05 36.3705 172.335C35.5891 172.192 34.8788 172.05 34.2394 171.979C31.398 171.553 29.9772 171.269 28.4144 169.777C26.9937 168.428 26.2833 166.51 26.2833 164.023C26.2833 160.116 27.491 157.346 29.9772 155.783C31.3269 154.931 33.458 154.22 35.8022 153.723C46.955 155.357 47.5233 153.51 47.8074 152.586C48.0205 151.876 47.7364 151.166 47.1681 150.739C45.7473 149.674 40.5617 149.958 35.8733 150.881C35.305 150.81 34.6656 150.668 34.0263 150.597C30.7586 150.029 28.5565 149.532 26.5675 147.259C24.7205 145.128 24.0102 142.215 24.4364 138.592C24.8626 135.325 26.7806 132.909 30.4035 131.417C33.0318 130.281 35.5891 130.068 35.9443 130.068H84.8174C89.2927 130.068 90.7134 127.439 91.1397 126.232C92.2762 123.106 90.8555 118.986 87.5878 116.216C87.3037 115.932 86.9485 115.718 86.6644 115.434L86.5933 115.363C81.9049 111.456 77.0744 107.407 78.9924 89.3639C79.4186 85.1727 80.129 81.834 80.9814 79.1346C85.5988 78.4953 90.5003 77.927 95.615 77.4298C95.615 77.6429 95.615 77.856 95.615 78.0691C95.757 84.3203 98.0302 90.9977 102.079 97.5331C106.057 103.926 111.598 109.751 118.062 114.511C124.172 118.986 127.368 125.592 128.931 130.352C130.21 134.259 130.778 136.887 130.991 138.805C127.937 139.16 126.729 140.439 126.303 141.505C125.805 142.854 126.232 144.417 127.51 145.554C128.789 146.69 130.423 147.046 131.701 146.335C132.767 145.838 133.904 144.559 133.975 141.576C138.592 141.718 156.28 142.215 173.826 142.286C185.76 142.286 195.279 142.073 202.099 141.647C213.962 140.936 216.235 139.658 216.306 137.669C216.377 134.685 214.388 132.554 211.76 129.784C208.776 126.658 205.082 122.751 202.312 115.718C200.465 111.101 199.968 107.478 199.825 105.915C202.099 105.631 203.448 104.921 203.946 103.713C204.301 102.719 204.017 101.653 203.164 100.801C202.099 99.7352 200.394 99.4511 199.115 100.09C198.405 100.446 197.339 101.227 196.984 103.216H137.029C128.363 103.216 121.259 96.1124 121.259 87.4459V76.0801C121.685 76.0801 122.183 76.0801 122.609 76.0801L248.841 76.3642L249.125 87.3038ZM131.204 141.505C131.133 142.925 130.778 143.565 130.494 143.707C130.281 143.849 129.783 143.636 129.428 143.352C129.073 142.996 128.931 142.641 129.002 142.428C129.144 142.073 129.783 141.647 131.204 141.505ZM200.181 102.932C200.323 102.648 200.465 102.577 200.607 102.506C200.678 102.506 200.678 102.506 200.749 102.506C200.962 102.506 201.104 102.577 201.246 102.648C201.033 102.719 200.749 102.861 200.181 102.932ZM271.146 77.2167C271.217 77.4298 271.075 77.785 270.72 78.1401C270.365 78.4243 269.939 78.6374 269.654 78.4953C269.37 78.3532 269.015 77.785 268.944 76.2932C270.436 76.5773 271.004 77.0035 271.146 77.2167ZM289.26 152.018C289.047 152.018 284.785 152.018 280.168 150.384C274.485 148.395 270.862 144.985 269.37 140.297C270.507 140.084 271.785 139.587 272.141 138.45C272.496 137.456 272.07 136.39 271.075 135.68C270.081 134.969 268.447 134.543 267.239 135.396C266.671 135.751 266.174 136.461 266.031 137.669H248.628C244.436 137.669 243.868 137.029 243.868 132.554C243.868 126.587 248.699 121.757 254.666 121.757H323.571C329.538 121.757 334.369 126.587 334.369 132.554L334.511 152.089H289.26V152.018ZM276.758 178.231C276.332 177.946 276.119 177.591 276.119 177.165C276.119 176.313 276.829 175.602 277.184 175.602C277.326 175.602 277.539 175.815 277.753 176.242C277.966 176.739 278.25 177.52 278.392 178.87C277.61 178.728 277.113 178.515 276.758 178.231ZM255.66 211.689C253.955 212.399 253.103 212.044 252.819 211.76C252.748 211.618 252.748 211.618 252.748 211.547C252.819 211.334 253.245 211.191 253.955 211.191C254.31 211.191 254.737 211.262 255.234 211.334C255.305 211.334 255.518 211.405 256.015 211.476C255.944 211.547 255.802 211.618 255.66 211.689Z" fill="url(#paint0_linear_3984_3606)"/>
</g>
<defs>
<linearGradient id="paint0_linear_3984_3606" x1="207.507" y1="0" x2="207.507" y2="220.014" gradientUnits="userSpaceOnUse">
<stop stop-color="#00A6D1"/>
<stop offset="1" stop-color="#005970"/>
</linearGradient>
<clipPath id="clip0_3984_3606">
<rect width="414.995" height="220" fill="white"/>
</clipPath>
</defs>
</svg>
