<?xml version="1.0" encoding="utf-8"?>
<!-- Generator: Adobe Illustrator 24.3.0, SVG Export Plug-In . SVG Version: 6.00 Build 0)  -->
<svg version="1.1" id="Слой_1" xmlns="http://www.w3.org/2000/svg" xmlns:xlink="http://www.w3.org/1999/xlink" x="0px" y="0px"
	 viewBox="0 0 224 52" style="enable-background:new 0 0 224 52;" xml:space="preserve">
<style type="text/css">
	.st0{fill:#FFE098;}
</style>
<path class="st0" d="M219,7.6l-31,0.6c13.6,1.7,19.7,4.3,19.7,20.6L219,7.6z"/>
<path class="st0" d="M1.2,49.6c-0.1,0-0.2,0-0.2-0.1c-0.1-0.1-0.1-0.1-0.1-0.2v-8.5c0-0.1,0-0.2,0.1-0.2c0.1-0.1,0.1-0.1,0.2-0.1
	h1.4c0.1,0,0.2,0,0.3,0.1c0.1,0.1,0.1,0.1,0.1,0.2l2.3,4.1l2.3-4.1c0,0,0.1-0.1,0.1-0.2c0.1-0.1,0.2-0.1,0.3-0.1h1.4
	c0.1,0,0.2,0,0.2,0.1c0.1,0.1,0.1,0.1,0.1,0.2v8.5c0,0.1,0,0.2-0.1,0.2c-0.1,0.1-0.1,0.1-0.2,0.1H8c-0.1,0-0.2,0-0.2-0.1
	c-0.1-0.1-0.1-0.1-0.1-0.2v-4.9l-1.5,2.7c0,0.1-0.1,0.1-0.2,0.2c-0.1,0.1-0.2,0.1-0.3,0.1H5c-0.1,0-0.2,0-0.3-0.1
	c-0.1-0.1-0.1-0.1-0.2-0.2l-1.5-2.7v4.9c0,0.1,0,0.2-0.1,0.2c-0.1,0.1-0.1,0.1-0.2,0.1H1.2z M15.4,49.7c-0.8,0-1.5-0.1-2.1-0.4
	c-0.6-0.3-1-0.7-1.4-1.2c-0.3-0.5-0.5-1.2-0.5-2c0-0.4,0-0.7,0-1.1c0-0.4,0-0.7,0-1.1c0-0.8,0.2-1.4,0.5-2c0.3-0.5,0.8-0.9,1.4-1.2
	c0.6-0.3,1.3-0.4,2.1-0.4c0.8,0,1.5,0.1,2.1,0.4c0.6,0.3,1.1,0.7,1.4,1.2c0.3,0.5,0.5,1.2,0.5,2c0,0.4,0,0.8,0,1.1
	c0,0.4,0,0.7,0,1.1c0,0.8-0.2,1.4-0.5,2c-0.3,0.5-0.8,0.9-1.4,1.2C16.9,49.6,16.2,49.7,15.4,49.7z M15.4,47.9c0.5,0,0.8-0.1,1.1-0.4
	c0.3-0.3,0.5-0.7,0.5-1.3c0-0.4,0-0.7,0-1.1s0-0.7,0-1.1c0-0.4-0.1-0.7-0.2-1c-0.1-0.3-0.3-0.5-0.5-0.6c-0.2-0.1-0.5-0.2-0.8-0.2
	c-0.3,0-0.6,0.1-0.8,0.2S14.2,42.7,14,43c-0.1,0.3-0.2,0.6-0.2,1c0,0.4,0,0.7,0,1.1s0,0.7,0,1.1c0,0.6,0.2,1,0.5,1.3
	C14.5,47.7,14.9,47.9,15.4,47.9z M21.2,49.6c-0.1,0-0.2,0-0.2-0.1c-0.1-0.1-0.1-0.1-0.1-0.2v-8.5c0-0.1,0-0.2,0.1-0.2
	c0.1-0.1,0.1-0.1,0.2-0.1h3.6c0.7,0,1.3,0.1,1.9,0.3c0.5,0.2,1,0.5,1.2,1c0.3,0.4,0.5,1,0.5,1.7c0,0.7-0.2,1.2-0.5,1.7
	c-0.3,0.4-0.7,0.8-1.2,1c-0.5,0.2-1.2,0.3-1.9,0.3h-1.5v2.8c0,0.1,0,0.2-0.1,0.2c-0.1,0.1-0.1,0.1-0.2,0.1H21.2z M23.3,44.6h1.5
	c0.4,0,0.7-0.1,0.9-0.3c0.2-0.2,0.3-0.5,0.3-0.9c0-0.3-0.1-0.6-0.3-0.8c-0.2-0.2-0.5-0.3-0.9-0.3h-1.5V44.6z M30,49.6
	c-0.1,0-0.2,0-0.2-0.1c-0.1-0.1-0.1-0.1-0.1-0.2v-8.5c0-0.1,0-0.2,0.1-0.2c0.1-0.1,0.1-0.1,0.2-0.1h6.1c0.1,0,0.2,0,0.2,0.1
	c0.1,0.1,0.1,0.1,0.1,0.2v1.2c0,0.1,0,0.2-0.1,0.2c-0.1,0.1-0.1,0.1-0.2,0.1H32v1.8h3.9c0.1,0,0.2,0,0.2,0.1
	c0.1,0.1,0.1,0.1,0.1,0.2v1.1c0,0.1,0,0.2-0.1,0.2c-0.1,0.1-0.1,0.1-0.2,0.1H32v1.8h4.3c0.1,0,0.2,0,0.2,0.1
	c0.1,0.1,0.1,0.1,0.1,0.2v1.2c0,0.1,0,0.2-0.1,0.2c-0.1,0.1-0.1,0.1-0.2,0.1H30z M41.1,49.6c-0.1,0-0.2,0-0.2-0.1
	c-0.1-0.1-0.1-0.1-0.1-0.2v-8.5c0-0.1,0-0.2,0.1-0.2c0.1-0.1,0.1-0.1,0.2-0.1h3.6c0.7,0,1.3,0.1,1.9,0.3c0.5,0.2,1,0.5,1.2,1
	c0.3,0.4,0.5,1,0.5,1.7c0,0.7-0.2,1.2-0.5,1.7c-0.3,0.4-0.7,0.8-1.2,1c-0.5,0.2-1.2,0.3-1.9,0.3h-1.5v2.8c0,0.1,0,0.2-0.1,0.2
	c-0.1,0.1-0.1,0.1-0.2,0.1H41.1z M43.2,44.6h1.5c0.4,0,0.7-0.1,0.9-0.3c0.2-0.2,0.3-0.5,0.3-0.9c0-0.3-0.1-0.6-0.3-0.8
	c-0.2-0.2-0.5-0.3-0.9-0.3h-1.5V44.6z M49,49.6c-0.1,0-0.1,0-0.2-0.1c-0.1-0.1-0.1-0.1-0.1-0.2c0,0,0-0.1,0-0.1l3.1-8.3
	c0-0.1,0.1-0.2,0.2-0.2c0.1-0.1,0.2-0.1,0.4-0.1h1.9c0.1,0,0.3,0,0.3,0.1c0.1,0.1,0.1,0.2,0.2,0.2l3,8.3c0,0,0,0.1,0,0.1
	c0,0.1,0,0.1-0.1,0.2c-0.1,0.1-0.1,0.1-0.2,0.1H56c-0.1,0-0.2,0-0.3-0.1c-0.1-0.1-0.1-0.1-0.1-0.2L55,48h-3.5l-0.5,1.3
	c0,0.1-0.1,0.1-0.1,0.2c-0.1,0.1-0.2,0.1-0.3,0.1H49z M52.1,46.1h2.4l-1.2-3.4L52.1,46.1z M59.2,49.6c-0.1,0-0.2,0-0.2-0.1
	s-0.1-0.1-0.1-0.2v-8.5c0-0.1,0-0.2,0.1-0.2s0.1-0.1,0.2-0.1h6.2c0.1,0,0.2,0,0.2,0.1c0.1,0.1,0.1,0.1,0.1,0.2v1.3
	c0,0.1,0,0.2-0.1,0.2c-0.1,0.1-0.1,0.1-0.2,0.1h-4.2V44H63c1,0,1.9,0.2,2.5,0.7s0.9,1.2,0.9,2c0,0.4-0.1,0.8-0.2,1.1
	c-0.1,0.3-0.4,0.6-0.6,0.9c-0.3,0.3-0.6,0.5-1,0.6s-0.9,0.2-1.4,0.2H59.2z M61.2,47.9h1.6c0.3,0,0.5-0.1,0.6-0.2
	c0.2-0.1,0.3-0.3,0.4-0.4c0.1-0.2,0.1-0.4,0.1-0.6c0-0.3-0.1-0.6-0.3-0.8c-0.2-0.2-0.5-0.3-0.8-0.3h-1.6V47.9z M71.1,49.7
	c-0.8,0-1.5-0.1-2.1-0.4c-0.6-0.3-1-0.7-1.4-1.2c-0.3-0.5-0.5-1.2-0.5-2c0-0.4,0-0.7,0-1.1c0-0.4,0-0.7,0-1.1c0-0.8,0.2-1.4,0.5-2
	c0.3-0.5,0.8-0.9,1.4-1.2c0.6-0.3,1.3-0.4,2.1-0.4c0.8,0,1.5,0.1,2.1,0.4c0.6,0.3,1.1,0.7,1.4,1.2c0.3,0.5,0.5,1.2,0.5,2
	c0,0.4,0,0.8,0,1.1c0,0.4,0,0.7,0,1.1c0,0.8-0.2,1.4-0.5,2c-0.3,0.5-0.8,0.9-1.4,1.2C72.6,49.6,71.9,49.7,71.1,49.7z M71.1,47.9
	c0.5,0,0.8-0.1,1.1-0.4c0.3-0.3,0.5-0.7,0.5-1.3c0-0.4,0-0.7,0-1.1s0-0.7,0-1.1c0-0.4-0.1-0.7-0.2-1c-0.1-0.3-0.3-0.5-0.5-0.6
	s-0.5-0.2-0.8-0.2c-0.3,0-0.6,0.1-0.8,0.2s-0.4,0.3-0.6,0.6c-0.1,0.3-0.2,0.6-0.2,1c0,0.4,0,0.7,0,1.1s0,0.7,0,1.1
	c0,0.6,0.2,1,0.5,1.3C70.3,47.7,70.7,47.9,71.1,47.9z M79,49.6c-0.1,0-0.2,0-0.2-0.1c-0.1-0.1-0.1-0.1-0.1-0.2v-6.7h-2.3
	c-0.1,0-0.2,0-0.2-0.1c-0.1-0.1-0.1-0.1-0.1-0.2v-1.4c0-0.1,0-0.2,0.1-0.2c0.1-0.1,0.1-0.1,0.2-0.1h7c0.1,0,0.2,0,0.2,0.1
	c0.1,0.1,0.1,0.1,0.1,0.2v1.4c0,0.1,0,0.2-0.1,0.2c-0.1,0.1-0.1,0.1-0.2,0.1H81v6.7c0,0.1,0,0.2-0.1,0.2c-0.1,0.1-0.1,0.1-0.2,0.1
	H79z M85.2,49.6c-0.1,0-0.2,0-0.2-0.1s-0.1-0.1-0.1-0.2v-8.5c0-0.1,0-0.2,0.1-0.2s0.1-0.1,0.2-0.1h1.7c0.1,0,0.2,0,0.2,0.1
	s0.1,0.1,0.1,0.2v2.8h1.2c1.1,0,2,0.2,2.6,0.7c0.6,0.5,0.9,1.2,0.9,2.2c0,0.6-0.1,1.1-0.4,1.6s-0.7,0.8-1.2,1.1
	c-0.5,0.3-1.2,0.4-1.9,0.4H85.2z M87.2,47.8h1.2c0.4,0,0.7-0.1,0.8-0.3c0.2-0.2,0.3-0.5,0.3-0.9c0-0.4-0.1-0.7-0.3-0.9
	c-0.2-0.2-0.5-0.3-0.8-0.3h-1.2V47.8z M93.2,49.6c-0.1,0-0.2,0-0.2-0.1s-0.1-0.1-0.1-0.2v-8.5c0-0.1,0-0.2,0.1-0.2s0.1-0.1,0.2-0.1
	H95c0.1,0,0.2,0,0.2,0.1s0.1,0.1,0.1,0.2v8.5c0,0.1,0,0.2-0.1,0.2s-0.1,0.1-0.2,0.1H93.2z"/>
<path class="st0" d="M12.6,34.6c-2.3,0-4.5-0.3-6.6-0.8c-2.1-0.6-3.9-1.3-5.2-2.2l2.6-5.8c1.3,0.8,2.7,1.5,4.4,2
	c1.7,0.5,3.3,0.8,4.9,0.8c3,0,4.6-0.8,4.6-2.3c0-0.8-0.4-1.4-1.3-1.8c-0.9-0.4-2.2-0.8-4.2-1.2c-2.1-0.5-3.9-0.9-5.3-1.4
	c-1.4-0.5-2.6-1.4-3.6-2.5s-1.5-2.7-1.5-4.6c0-1.7,0.5-3.2,1.4-4.6C3.7,8.5,5,7.4,6.9,6.6c1.9-0.8,4.1-1.2,6.8-1.2
	c1.8,0,3.7,0.2,5.4,0.6c1.8,0.4,3.4,1,4.7,1.8l-2.4,5.9c-2.7-1.4-5.3-2.2-7.8-2.2c-1.6,0-2.7,0.2-3.4,0.7c-0.7,0.5-1.1,1.1-1.1,1.8
	s0.4,1.3,1.3,1.7c0.9,0.4,2.2,0.8,4.1,1.2c2.1,0.5,3.9,0.9,5.3,1.5c1.4,0.5,2.6,1.3,3.6,2.5c1,1.1,1.6,2.7,1.6,4.6
	c0,1.7-0.5,3.2-1.4,4.6s-2.3,2.5-4.2,3.3C17.6,34.2,15.3,34.6,12.6,34.6z M42.3,33.1c-0.6,0.4-1.4,0.7-2.4,0.9
	c-0.9,0.2-1.9,0.3-2.9,0.3c-2.8,0-5-0.7-6.5-2.1c-1.5-1.4-2.2-3.5-2.2-6.2V7.5h7.6v5.6h4.9v5.7h-4.9V26c0,0.8,0.2,1.4,0.6,1.8
	c0.4,0.4,0.9,0.6,1.6,0.6c0.9,0,1.7-0.2,2.3-0.7L42.3,33.1z M67.5,12.3V34h-7.2v-2.2c-1.4,1.7-3.5,2.5-6.4,2.5c-2,0-3.8-0.5-5.4-1.4
	c-1.6-0.9-2.9-2.3-3.8-4c-0.9-1.7-1.4-3.7-1.4-5.9s0.5-4.2,1.4-5.9c1-1.7,2.2-3,3.8-3.9c1.6-0.9,3.4-1.4,5.4-1.4
	c2.6,0,4.6,0.7,6,2.2v-1.9H67.5z M55.5,28.3c1.3,0,2.4-0.5,3.3-1.4c0.9-0.9,1.3-2.2,1.3-3.8c0-1.6-0.4-2.9-1.3-3.8
	c-0.9-0.9-1.9-1.4-3.3-1.4c-1.3,0-2.4,0.5-3.3,1.4c-0.9,0.9-1.3,2.2-1.3,3.8c0,1.6,0.4,2.9,1.3,3.8C53,27.9,54.1,28.3,55.5,28.3z
	 M79.8,13.1H85v5.7h-5V34h-7.6V12.6c0-2.6,0.8-4.7,2.4-6.3C76.4,4.7,78.6,4,81.4,4c1,0,1.9,0.1,2.8,0.3c0.9,0.2,1.7,0.5,2.2,0.8
	l-1.9,5.4c-0.7-0.4-1.5-0.6-2.3-0.6c-0.8,0-1.4,0.2-1.9,0.7c-0.4,0.5-0.6,1.2-0.6,2.1V13.1z M95.2,13.1h5.2v5.7h-5V34h-7.6V12.6
	c0-2.6,0.8-4.7,2.4-6.3C91.7,4.7,93.9,4,96.8,4c1,0,1.9,0.1,2.8,0.3c0.9,0.2,1.7,0.5,2.2,0.8l-1.9,5.4c-0.7-0.4-1.5-0.6-2.3-0.6
	c-0.8,0-1.4,0.2-1.9,0.7c-0.4,0.5-0.6,1.2-0.6,2.1V13.1z M135.3,27.7V34h-21.8v-5l10.5-9.8c1-1,1.7-1.8,2-2.4
	c0.3-0.7,0.5-1.4,0.5-2.1c0-0.9-0.3-1.6-0.9-2.1c-0.6-0.5-1.5-0.8-2.7-0.8c-1,0-2,0.2-2.9,0.7c-0.9,0.5-1.6,1.1-2.1,2l-5.9-3.3
	c1.1-1.8,2.6-3.2,4.6-4.3c2-1,4.3-1.6,7-1.6c2.1,0,4,0.3,5.6,1c1.7,0.7,2.9,1.7,3.8,3c0.9,1.3,1.4,2.8,1.4,4.5c0,1.5-0.3,3-1,4.3
	c-0.6,1.3-1.9,2.9-3.8,4.6l-5.3,4.9H135.3z M169.5,19.4h7V34H171v-1.7c-1.9,1.5-4.4,2.3-7.5,2.3c-2.6,0-5-0.6-7.2-1.7
	c-2.2-1.1-3.9-2.7-5.2-4.9c-1.3-2.2-1.9-4.7-1.9-7.7c0-2.9,0.7-5.4,2-7.7c1.3-2.3,3.2-4,5.6-5.3c2.4-1.3,5.1-1.9,8-1.9
	c2.6,0,5,0.4,7,1.3c2.1,0.9,3.8,2.1,5.2,3.8l-5,4.6c-1.9-2.1-4.2-3.1-6.8-3.1c-2.4,0-4.4,0.7-5.8,2.2c-1.4,1.5-2.2,3.5-2.2,6
	c0,2.6,0.7,4.5,2,5.9c1.4,1.4,3.1,2,5.2,2c2,0,3.7-0.5,5-1.6V19.4z M192,34.4c-2.3,0-4.4-0.5-6.3-1.4c-1.9-1-3.3-2.3-4.4-4
	c-1-1.7-1.6-3.6-1.6-5.8c0-2.1,0.5-4.1,1.6-5.8c1.1-1.7,2.5-3,4.4-4c1.9-1,4-1.4,6.3-1.4s4.5,0.5,6.3,1.4c1.9,0.9,3.3,2.3,4.4,4
	c1,1.7,1.6,3.6,1.6,5.8s-0.5,4.1-1.6,5.8c-1,1.7-2.5,3-4.4,4C196.4,33.9,194.3,34.4,192,34.4z M192,28.3c1.3,0,2.4-0.5,3.3-1.4
	c0.9-0.9,1.3-2.2,1.3-3.8c0-1.6-0.4-2.9-1.3-3.8S193.3,18,192,18c-1.3,0-2.4,0.5-3.3,1.4c-0.9,0.9-1.3,2.2-1.3,3.8
	c0,1.6,0.4,2.9,1.3,3.8C189.6,27.9,190.7,28.3,192,28.3z"/>
</svg>
