<svg width="130" height="130" viewBox="0 0 130 130" fill="none" xmlns="http://www.w3.org/2000/svg">
<circle cx="65" cy="65" r="65" fill="#303030"/>
<path d="M65.5 39C58.9528 39 53.6452 44.2979 53.6452 50.8332C53.6452 57.3685 58.9528 62.6664 65.5 62.6664C72.0472 62.6664 77.3548 57.3685 77.3548 50.8332C77.3548 44.2979 72.0472 39 65.5 39Z" fill="white"/>
<path d="M52.8548 68.9774C46.3076 68.9774 41 74.2754 41 80.8107V84.5603C41 86.9371 42.7257 88.9637 45.0758 89.3467C58.6024 91.5511 72.3976 91.5511 85.9242 89.3467C88.2743 88.9637 90 86.9371 90 84.5603V80.8106C90 74.2754 84.6924 68.9774 78.1452 68.9774H77.0676C76.4843 68.9774 75.9048 69.0695 75.3504 69.2502L72.6142 70.142C67.9915 71.6487 63.0085 71.6487 58.3858 70.142L55.6496 69.2502C55.0952 69.0695 54.5157 68.9774 53.9324 68.9774H52.8548Z" fill="white"/>
</svg>
