<?xml version="1.0" encoding="utf-8"?>
<!-- Generator: Adobe Illustrator 17.1.0, SVG Export Plug-In . SVG Version: 6.00 Build 0)  -->
<!DOCTYPE svg PUBLIC "-//W3C//DTD SVG 1.1//EN" "http://www.w3.org/Graphics/SVG/1.1/DTD/svg11.dtd">
<svg version="1.1" id="Слой_1" xmlns="http://www.w3.org/2000/svg" xmlns:xlink="http://www.w3.org/1999/xlink" x="0px" y="0px"
	 viewBox="0 0 270 270" enable-background="new 0 0 270 270" xml:space="preserve">
<path id="Livejournal_1_" d="M24.8,270l99.4-28.9h0.1L239.9,86.9l0,0c12.8-18.5,1.7-49.5-25.3-69.9C199.8,5.7,183.3,0,169,0
	c-11.7,0-21.9,3.8-28.3,11.8l0,0L25,166l0,0L24.8,270z M45.6,221l0.1-44.4c17.8,5.6,37.1,3.5,53.2-5.5c-4.2,18.1-0.8,37.3,9.4,52.9
	l-42.4,12.3c-1.2-4.3-3.7-8.3-7.5-11.2C54.6,222.3,50,221,45.6,221z M152,37.8c5.6,0.3,11.5,1.7,17.5,4.1c6.4,2.5,12.6,6,18.5,10.4
	s10.9,9.4,15.1,15c3.9,5.2,6.9,10.5,8.7,15.8c0.5,1.4,0.9,3,1.4,4.9l-10.9,14.5c-4.9-11.9-14-23.9-26.7-33.5s-26.7-15.2-39.4-16.6
	L147,37.9C148.9,37.7,150.6,37.7,152,37.8z M73.8,167.4c-7.8,1.1-15.5,0.6-22.8-1.5l76.6-102.1c1.8-0.1,3.5-0.1,5,0
	c5.6,0.4,11.5,1.7,17.6,4.1c4.7,1.8,9.3,4.2,13.7,7.1L111,145.5C101.8,157.5,88.6,165.3,73.8,167.4z M117.1,216.1
	c-4-6.5-6.6-13.8-7.7-21.6c-2.1-14.9,1.7-29.8,10.8-41.9l0,0L173,82.1c4,3.5,7.5,7.2,10.5,11.3c3.9,5.2,6.9,10.5,8.7,15.8
	c0.5,1.4,0.9,3,1.4,4.9L117.1,216.1z M222.9,75l-1.1,1.5c-4.8-11.9-14-23.9-26.7-33.5s-26.7-15.2-39.4-16.6l1.1-1.4
	c2.1-2.6,6.5-4.1,12.2-4.1c4.7,0,10.1,1.1,15.5,3c6.1,2.2,12,5.5,17.6,9.7C222,48.6,227.7,68.1,222.9,75z"/>
</svg>
