<?xml version="1.0" encoding="utf-8"?>
<!-- Generator: Adobe Illustrator 21.1.0, SVG Export Plug-In . SVG Version: 6.00 Build 0)  -->
<svg version="1.1" id="Слой_1" xmlns="http://www.w3.org/2000/svg" xmlns:xlink="http://www.w3.org/1999/xlink" x="0px" y="0px"
	 viewBox="0 0 12 20.7" style="enable-background:new 0 0 12 20.7;" xml:space="preserve">
<style type="text/css">
	.st0{display:none;fill:#818385;}
</style>
<g id="Odn">
	<circle class="st0" cx="6" cy="10.4" r="15"/>
	<g>
		<path d="M6,0C3.1,0,0.7,2.4,0.7,5.3s2.4,5.3,5.3,5.3s5.3-2.4,5.3-5.3S8.9,0,6,0z M6,7.6c-1.2,0-2.2-1-2.2-2.2s1-2.2,2.2-2.2
			s2.2,1,2.2,2.2S7.2,7.6,6,7.6z"/>
		<path d="M8.2,15.1c1.1-0.3,2.1-0.7,3.1-1.3c0.7-0.5,1-1.4,0.5-2.2c-0.5-0.7-1.4-1-2.2-0.5l0,0c-2.2,1.4-5,1.4-7.2,0
			c-0.7-0.5-1.7-0.2-2.2,0.5l0,0c-0.5,0.7-0.2,1.7,0.5,2.2c1,0.6,2,1,3.1,1.3l-3,3c-0.6,0.6-0.6,1.6,0,2.2s1.6,0.6,2.2,0l0,0l3-3
			l2.9,2.9c0.6,0.6,1.6,0.6,2.2,0l0,0c0.6-0.6,0.6-1.6,0-2.2l0,0L8.2,15.1"/>
	</g>
</g>
</svg>
