<?xml version="1.0" encoding="utf-8"?>
<!-- Generator: Adobe Illustrator 17.1.0, SVG Export Plug-In . SVG Version: 6.00 Build 0)  -->
<!DOCTYPE svg PUBLIC "-//W3C//DTD SVG 1.1//EN" "http://www.w3.org/Graphics/SVG/1.1/DTD/svg11.dtd">
<svg version="1.1" id="Слой_1" xmlns="http://www.w3.org/2000/svg" xmlns:xlink="http://www.w3.org/1999/xlink" x="0px" y="0px"
	 viewBox="0 0 12 20.7" enable-background="new 0 0 12 20.7" xml:space="preserve">
<g id="Odn">
	<circle display="none" fill="#818385" cx="6" cy="10.4" r="15"/>
	<g>
		<path fill="#818385" d="M6,0C3.1,0,0.7,2.4,0.7,5.3c0,2.9,2.4,5.3,5.3,5.3c2.9,0,5.3-2.4,5.3-5.3C11.3,2.4,8.9,0,6,0z M6,7.6
			c-1.2,0-2.2-1-2.2-2.2c0-1.2,1-2.2,2.2-2.2c1.2,0,2.2,1,2.2,2.2C8.2,6.6,7.2,7.6,6,7.6z"/>
		<path fill="#818385" d="M8.2,15.1c1.1-0.3,2.1-0.7,3.1-1.3c0.7-0.5,1-1.4,0.5-2.2c-0.5-0.7-1.4-1-2.2-0.5c0,0,0,0,0,0
			c-2.2,1.4-5,1.4-7.2,0c-0.7-0.5-1.7-0.2-2.2,0.5c0,0,0,0,0,0c-0.5,0.7-0.2,1.7,0.5,2.2c1,0.6,2,1,3.1,1.3l-3,3
			c-0.6,0.6-0.6,1.6,0,2.2c0.6,0.6,1.6,0.6,2.2,0l0,0L6,17.3l2.9,2.9c0.6,0.6,1.6,0.6,2.2,0l0,0c0.6-0.6,0.6-1.6,0-2.2c0,0,0,0,0,0
			L8.2,15.1"/>
	</g>
</g>
</svg>
