<svg width="34" height="34" viewBox="0 0 34 34" fill="none" xmlns="http://www.w3.org/2000/svg">
<path fill-rule="evenodd" clip-rule="evenodd" d="M3.79176 15.2986C10.7883 12.2504 15.4537 10.2408 17.788 9.26986C24.4531 6.49764 25.838 6.01607 26.7407 6.00017C26.9392 5.99667 27.3832 6.04588 27.6707 6.2792C27.9135 6.47622 27.9803 6.74236 28.0123 6.92915C28.0443 7.11594 28.0841 7.54146 28.0524 7.87395C27.6912 11.6689 26.1284 20.8783 25.3333 25.1287C24.9969 26.9272 24.3345 27.5303 23.6932 27.5893C22.2994 27.7175 21.2411 26.6682 19.8912 25.7833C17.7789 24.3987 16.5856 23.5367 14.5352 22.1856C12.1657 20.6241 13.7017 19.7659 15.0521 18.3633C15.4055 17.9962 21.5463 12.4107 21.6652 11.904C21.68 11.8406 21.6938 11.6044 21.5535 11.4797C21.4132 11.355 21.2061 11.3976 21.0566 11.4315C20.8447 11.4796 17.4703 13.71 10.9333 18.1227C9.97543 18.7804 9.10787 19.1009 8.33055 19.0841C7.47363 19.0656 5.82525 18.5995 4.59985 18.2012C3.09685 17.7127 1.9023 17.4543 2.00631 16.6246C2.06049 16.1924 2.65564 15.7504 3.79176 15.2986Z" fill="white"/>
</svg>
