<?xml version="1.0" encoding="utf-8"?>
<!-- Generator: Adobe Illustrator 23.1.0, SVG Export Plug-In . SVG Version: 6.00 Build 0)  -->
<svg version="1.1" xmlns="http://www.w3.org/2000/svg" xmlns:xlink="http://www.w3.org/1999/xlink" x="0px" y="0px"
	 viewBox="0 0 32 32" style="enable-background:new 0 0 32 32;" xml:space="preserve">
<style type="text/css">
	.st0{display:none;}
	.st1{display:inline;fill:#F2F2F2;}
	.st2{fill:#FFFFFF;}
	.st3{fill:#F2F2F2;}
	.st4{fill:none;stroke:#136c81;stroke-linecap:round;stroke-miterlimit:10;}
	.st5{fill:none;stroke:#136c81;stroke-linecap:round;stroke-linejoin:round;stroke-miterlimit:10;}
	.st6{fill:#FFFFFF;stroke:#136c81;stroke-linecap:round;stroke-miterlimit:10;}
	.st7{fill:#FFFFFF;stroke:#136c81;stroke-linecap:round;stroke-linejoin:round;stroke-miterlimit:10;}
	.st8{fill:none;stroke:#136c81;stroke-linejoin:round;stroke-miterlimit:10;}
	.st9{fill:#FFFFFF;stroke:#FFFFFF;stroke-width:3;stroke-linecap:round;stroke-linejoin:round;stroke-miterlimit:10;}
	.st10{fill:none;stroke:#FFFFFF;stroke-width:3;stroke-linecap:round;stroke-linejoin:round;stroke-miterlimit:10;}
	.st11{fill:#FFFFFF;stroke:#136c81;stroke-linejoin:round;stroke-miterlimit:10;}
	.st12{fill:none;stroke:#136c81;stroke-miterlimit:10;}
</style>
<g id="Layer_2" class="st0">
</g>
<g id="Layer_3">
</g>
<g id="Layer_1">
	<rect class="st2" width="32" height="32"/>
	<g>
		<g>
			<circle class="st8" cx="16" cy="9.9" r="5.5"/>
			<path class="st5" d="M19.86,13.6c-0.28-0.71-0.97-1.21-1.77-1.21h-1.09v-1.28c0.6-0.35,1-0.98,1-1.72v-1c0-1.1-0.9-2-2-2
				s-2,0.9-2,2v1c0,0.74,0.4,1.38,1,1.72v1.28H13.9c-0.79,0-1.47,0.48-1.76,1.16"/>
		</g>
		<g>
			<path class="st5" d="M10.57,27.6C10.29,26.9,9.6,26.4,8.79,26.4H7.7v-1.28c0.6-0.35,1-0.98,1-1.72v-1c0-1.1-0.9-2-2-2s-2,0.9-2,2
				v1c0,0.74,0.4,1.38,1,1.72v1.28H4.61c-0.79,0-1.47,0.48-1.76,1.16"/>
			<path class="st5" d="M19.86,27.6c-0.28-0.71-0.97-1.21-1.77-1.21h-1.09v-1.28c0.6-0.35,1-0.98,1-1.72v-1c0-1.1-0.9-2-2-2
				s-2,0.9-2,2v1c0,0.74,0.4,1.38,1,1.72v1.28H13.9c-0.79,0-1.47,0.48-1.76,1.16"/>
			<path class="st5" d="M29.15,27.6c-0.28-0.71-0.97-1.21-1.77-1.21h-1.09v-1.28c0.6-0.35,1-0.98,1-1.72v-1c0-1.1-0.9-2-2-2
				s-2,0.9-2,2v1c0,0.74,0.4,1.38,1,1.72v1.28h-1.09c-0.79,0-1.47,0.48-1.76,1.16"/>
		</g>
		<g>
			<polyline class="st5" points="6.8,18.81 6.8,13.56 12.03,13.56 			"/>
			<polyline class="st5" points="25.2,18.81 25.2,13.56 19.97,13.56 			"/>
		</g>
		<line class="st5" x1="16" y1="15.48" x2="16" y2="18.81"/>
	</g>
</g>
</svg>
