<?xml version="1.0" encoding="utf-8"?>
<!-- Generator: Adobe Illustrator 23.1.0, SVG Export Plug-In . SVG Version: 6.00 Build 0)  -->
<svg version="1.1" xmlns="http://www.w3.org/2000/svg" xmlns:xlink="http://www.w3.org/1999/xlink" x="0px" y="0px"
	 viewBox="0 0 32 32" style="enable-background:new 0 0 32 32;" xml:space="preserve">
<style type="text/css">
	.st0{display:none;}
	.st1{display:inline;fill:#F2F2F2;}
	.st2{fill:#FFFFFF;}
	.st3{fill:#F2F2F2;}
	.st4{fill:none;stroke:#136c81;stroke-linecap:round;stroke-miterlimit:10;}
	.st5{fill:none;stroke:#136c81;stroke-linecap:round;stroke-linejoin:round;stroke-miterlimit:10;}
	.st6{fill:#FFFFFF;stroke:#136c81;stroke-linecap:round;stroke-miterlimit:10;}
	.st7{fill:#FFFFFF;stroke:#136c81;stroke-linecap:round;stroke-linejoin:round;stroke-miterlimit:10;}
	.st8{fill:none;stroke:#136c81;stroke-linejoin:round;stroke-miterlimit:10;}
	.st9{fill:#FFFFFF;stroke:#FFFFFF;stroke-width:3;stroke-linecap:round;stroke-linejoin:round;stroke-miterlimit:10;}
	.st10{fill:none;stroke:#FFFFFF;stroke-width:3;stroke-linecap:round;stroke-linejoin:round;stroke-miterlimit:10;}
	.st11{fill:#FFFFFF;stroke:#136c81;stroke-linejoin:round;stroke-miterlimit:10;}
	.st12{fill:none;stroke:#136c81;stroke-miterlimit:10;}
</style>
<g id="Layer_2" class="st0">
</g>
<g id="Layer_3">
</g>
<g id="Layer_1">
	<rect class="st2" width="32" height="32"/>
	<g>
		<path class="st5" d="M5.08,27.5c-1.11,0-2.01-0.9-2.01-2.01V5.32c0-1.11,0.9-2.01,2.01-2.01H16c1.11,0,2.01,0.9,2.01,2.01"/>
		<path class="st5" d="M18.01,14.39v11.1c0,1.11-0.9,2.01-2.01,2.01H6.89"/>
		<polyline class="st5" points="23.64,11.72 27.9,15.98 25.71,18.18 20.13,12.6 		"/>
		<line class="st5" x1="16.03" y1="28.69" x2="16.03" y2="27.5"/>
		<line class="st5" x1="5.05" y1="27.5" x2="5.05" y2="28.69"/>
		<circle class="st5" cx="10.54" cy="19.97" r="4.97"/>
		<circle class="st5" cx="10.54" cy="19.97" r="1.98"/>
		<circle class="st5" cx="19.07" cy="9.33" r="3.4"/>
		<circle class="st5" cx="10.54" cy="9.33" r="3.4"/>
		<path class="st5" d="M26.7,17.17l1.75,1.75c1.03,1.03,0.3,2.78-1.15,2.78h-4.13c-1.45,0-2.18,1.75-1.15,2.78l4.08,4.08"/>
	</g>
</g>
</svg>
