<?xml version="1.0" encoding="utf-8"?>
<!-- Generator: Adobe Illustrator 23.1.0, SVG Export Plug-In . SVG Version: 6.00 Build 0)  -->
<svg version="1.1" xmlns="http://www.w3.org/2000/svg" xmlns:xlink="http://www.w3.org/1999/xlink" x="0px" y="0px"
	 viewBox="0 0 32 32" style="enable-background:new 0 0 32 32;" xml:space="preserve">
<style type="text/css">
	.st0{display:none;}
	.st1{display:inline;fill:#F2F2F2;}
	.st2{fill:#FFFFFF;}
	.st3{fill:#F2F2F2;}
	.st4{fill:none;stroke:#ff7500;stroke-linecap:round;stroke-miterlimit:10;}
	.st5{fill:none;stroke:#ff7500;stroke-linecap:round;stroke-linejoin:round;stroke-miterlimit:10;}
	.st6{fill:#FFFFFF;stroke:#ff7500;stroke-linecap:round;stroke-miterlimit:10;}
	.st7{fill:#FFFFFF;stroke:#ff7500;stroke-linecap:round;stroke-linejoin:round;stroke-miterlimit:10;}
	.st8{fill:none;stroke:#ff7500;stroke-linejoin:round;stroke-miterlimit:10;}
	.st9{fill:#FFFFFF;stroke:#FFFFFF;stroke-width:3;stroke-linecap:round;stroke-linejoin:round;stroke-miterlimit:10;}
	.st10{fill:none;stroke:#FFFFFF;stroke-width:3;stroke-linecap:round;stroke-linejoin:round;stroke-miterlimit:10;}
	.st11{fill:#FFFFFF;stroke:#ff7500;stroke-linejoin:round;stroke-miterlimit:10;}
	.st12{fill:none;stroke:#ff7500;stroke-miterlimit:10;}
</style>
<g id="Layer_2" class="st0">
</g>
<g id="Layer_3">
</g>
<g id="Layer_1">
	<rect class="st2" width="32" height="32"/>
	<g>
		<g>
			<path class="st5" d="M10.57,27.94c-0.28-0.71-0.97-1.21-1.77-1.21H7.7v-1.28c0.6-0.35,1-0.98,1-1.72v-1c0-1.1-0.9-2-2-2
				s-2,0.9-2,2v1c0,0.74,0.4,1.38,1,1.72v1.28H4.61c-0.79,0-1.47,0.48-1.76,1.16"/>
			<path class="st5" d="M19.86,27.94c-0.28-0.71-0.97-1.21-1.77-1.21h-1.09v-1.28c0.6-0.35,1-0.98,1-1.72v-1c0-1.1-0.9-2-2-2
				s-2,0.9-2,2v1c0,0.74,0.4,1.38,1,1.72v1.28H13.9c-0.79,0-1.47,0.48-1.76,1.16"/>
			<path class="st5" d="M29.15,27.94c-0.28-0.71-0.97-1.21-1.77-1.21h-1.09v-1.28c0.6-0.35,1-0.98,1-1.72v-1c0-1.1-0.9-2-2-2
				s-2,0.9-2,2v1c0,0.74,0.4,1.38,1,1.72v1.28h-1.09c-0.79,0-1.47,0.48-1.76,1.16"/>
		</g>
		<g>
			<line class="st5" x1="6.8" y1="19.16" x2="6.8" y2="14.91"/>
			<line class="st5" x1="25.2" y1="19.16" x2="25.2" y2="14.91"/>
		</g>
		<line class="st5" x1="16" y1="17.82" x2="16" y2="19.16"/>
		<ellipse class="st8" cx="16" cy="10.83" rx="13.52" ry="6.77"/>
		<g>
			<path class="st5" d="M19.57,13.98c0.47-0.53,0.82-1.16,1.02-1.86l-0.87-0.65c0.04-0.21,0.06-0.42,0.06-0.64
				c0-0.33-0.06-0.64-0.13-0.94l0.85-0.64c-0.25-0.7-0.65-1.32-1.16-1.82l-1.02,0.44c-0.35-0.27-0.74-0.47-1.17-0.61l-0.13-1.08
				c-0.32-0.07-0.66-0.11-1-0.11c-0.42,0-0.82,0.06-1.2,0.16l-0.13,1.09c-0.38,0.14-0.72,0.35-1.03,0.6l-1.02-0.44
				c-0.52,0.52-0.91,1.16-1.14,1.88l0.86,0.64c-0.06,0.27-0.1,0.54-0.1,0.82c0,0.17,0.03,0.34,0.05,0.5L11.41,12
				c0.18,0.72,0.53,1.37,0.99,1.92l0.97-0.41c0.38,0.38,0.84,0.66,1.36,0.85l0.13,1.08c0.37,0.09,0.76,0.15,1.16,0.15
				c0.33,0,0.65-0.03,0.96-0.1l0.13-1.07c0.56-0.17,1.07-0.46,1.49-0.86L19.57,13.98z"/>
			<circle class="st5" cx="16.02" cy="10.83" r="1.22"/>
			<circle class="st5" cx="16.02" cy="10.83" r="1.22"/>
		</g>
	</g>
</g>
</svg>
