<?xml version="1.0" encoding="utf-8"?>
<!-- Generator: Adobe Illustrator 23.1.0, SVG Export Plug-In . SVG Version: 6.00 Build 0)  -->
<svg version="1.1" xmlns="http://www.w3.org/2000/svg" xmlns:xlink="http://www.w3.org/1999/xlink" x="0px" y="0px"
	 viewBox="0 0 32 32" style="enable-background:new 0 0 32 32;" xml:space="preserve">
<style type="text/css">
	.st0{display:none;}
	.st1{display:inline;fill:#F2F2F2;}
	.st2{fill:#FFFFFF;}
	.st3{fill:#F2F2F2;}
	.st4{fill:none;stroke:#000000;stroke-linecap:round;stroke-miterlimit:10;}
	.st5{fill:none;stroke:#000000;stroke-linecap:round;stroke-linejoin:round;stroke-miterlimit:10;}
	.st6{fill:#FFFFFF;stroke:#000000;stroke-linecap:round;stroke-miterlimit:10;}
	.st7{fill:#FFFFFF;stroke:#000000;stroke-linecap:round;stroke-linejoin:round;stroke-miterlimit:10;}
	.st8{fill:none;stroke:#000000;stroke-linejoin:round;stroke-miterlimit:10;}
	.st9{fill:#FFFFFF;stroke:#FFFFFF;stroke-width:3;stroke-linecap:round;stroke-linejoin:round;stroke-miterlimit:10;}
	.st10{fill:none;stroke:#FFFFFF;stroke-width:3;stroke-linecap:round;stroke-linejoin:round;stroke-miterlimit:10;}
	.st11{fill:#FFFFFF;stroke:#000000;stroke-linejoin:round;stroke-miterlimit:10;}
	.st12{fill:none;stroke:#000000;stroke-miterlimit:10;}
</style>
<g id="Layer_2" class="st0">
</g>
<g id="Layer_3">
</g>
<g id="Layer_1">
	<rect class="st2" width="32" height="32"/>
	<g>
		<path class="st5" d="M5.01,14.64V5.06c0-1.12,0.9-2.02,2.02-2.02h18.19c1.12,0,2.02,0.9,2.02,2.02v7.74"/>
		<path class="st5" d="M27.24,17.43v9.51c0,1.12-0.9,2.02-2.02,2.02H7.03c-1.12,0-2.02-0.9-2.02-2.02v-6.88"/>
		<path class="st5" d="M19.24,9.14h-6.22c-0.95,0-1.72-0.77-1.72-1.72v0c0-0.95,0.77-1.72,1.72-1.72h6.22
			c0.95,0,1.72,0.77,1.72,1.72v0"/>
		<path class="st5" d="M12.62,16.55v3.92c0,0,12.17,1.54,16.75-5.77H4.35c-0.95,0-1.72,0.77-1.72,1.72v0c0,0.95,0.77,1.72,1.72,1.72
			h8.22"/>
		<path class="st5" d="M14.75,17.97c0,0,5.13,0.38,8-1.19"/>
	</g>
</g>
</svg>
