<?xml version="1.0" encoding="utf-8"?>
<!-- Generator: Adobe Illustrator 23.1.0, SVG Export Plug-In . SVG Version: 6.00 Build 0)  -->
<svg version="1.1" xmlns="http://www.w3.org/2000/svg" xmlns:xlink="http://www.w3.org/1999/xlink" x="0px" y="0px"
	 viewBox="0 0 32 32" style="enable-background:new 0 0 32 32;" xml:space="preserve">
<style type="text/css">
	.st0{display:none;}
	.st1{display:inline;fill:#F2F2F2;}
	.st2{fill:#FFFFFF;}
	.st3{fill:#F2F2F2;}
	.st4{fill:none;stroke:#000000;stroke-linecap:round;stroke-miterlimit:10;}
	.st5{fill:none;stroke:#000000;stroke-linecap:round;stroke-linejoin:round;stroke-miterlimit:10;}
	.st6{fill:#FFFFFF;stroke:#000000;stroke-linecap:round;stroke-miterlimit:10;}
	.st7{fill:#FFFFFF;stroke:#000000;stroke-linecap:round;stroke-linejoin:round;stroke-miterlimit:10;}
	.st8{fill:none;stroke:#000000;stroke-linejoin:round;stroke-miterlimit:10;}
	.st9{fill:#FFFFFF;stroke:#FFFFFF;stroke-width:3;stroke-linecap:round;stroke-linejoin:round;stroke-miterlimit:10;}
	.st10{fill:none;stroke:#FFFFFF;stroke-width:3;stroke-linecap:round;stroke-linejoin:round;stroke-miterlimit:10;}
	.st11{fill:#FFFFFF;stroke:#000000;stroke-linejoin:round;stroke-miterlimit:10;}
	.st12{fill:none;stroke:#000000;stroke-miterlimit:10;}
</style>
<g id="Layer_2" class="st0">
</g>
<g id="Layer_3">
</g>
<g id="Layer_1">
	<rect class="st2" width="32" height="32"/>
	<g>
		<path class="st5" d="M27.84,12.04v16.13H14.45V14.03"/>
		<path class="st5" d="M14.45,12.04c0-2.02,3-3.65,6.7-3.65h0c3.7,0,6.7,1.64,6.7,3.65"/>
		<g>
			<path class="st5" d="M6.39,10.24V7.42c0-1.98,1.61-3.59,3.59-3.59H19c1.98,0,3.59,1.61,3.59,3.59v1.05"/>
			<path class="st5" d="M9.28,10.24V7.9c0-0.75,0.61-1.36,1.36-1.36h7.7"/>
		</g>
		<path class="st5" d="M14.66,25.37h11"/>
		<path class="st5" d="M16.41,11.89h11.07"/>
		<path class="st5" d="M20.94,18.87l1.97-1.97"/>
		<circle class="st5" cx="21.14" cy="18.67" r="4.46"/>
		<g>
			<path class="st5" d="M7.9,28.17V16.59"/>
			<ellipse class="st5" cx="7.9" cy="14.03" rx="1.66" ry="2.27"/>
			<g>
				
					<ellipse transform="matrix(0.7071 -0.7071 0.7071 0.7071 -10.4067 9.3049)" class="st5" cx="6.03" cy="17.21" rx="1.66" ry="2.27"/>
				
					<ellipse transform="matrix(0.7071 -0.7071 0.7071 0.7071 -9.3133 11.9447)" class="st5" cx="9.76" cy="17.21" rx="2.27" ry="1.66"/>
			</g>
			<g>
				
					<ellipse transform="matrix(0.7071 -0.7071 0.7071 0.7071 -12.9598 10.3625)" class="st5" cx="6.03" cy="20.83" rx="1.66" ry="2.27"/>
				
					<ellipse transform="matrix(0.7071 -0.7071 0.7071 0.7071 -11.8664 13.0022)" class="st5" cx="9.76" cy="20.83" rx="2.27" ry="1.66"/>
			</g>
			<g>
				
					<ellipse transform="matrix(0.7071 -0.7071 0.7071 0.7071 -15.5129 11.42)" class="st5" cx="6.03" cy="24.44" rx="1.66" ry="2.27"/>
				
					<ellipse transform="matrix(0.7071 -0.7071 0.7071 0.7071 -14.4195 14.0598)" class="st5" cx="9.76" cy="24.44" rx="2.27" ry="1.66"/>
			</g>
		</g>
	</g>
</g>
</svg>
