<svg width="31" height="29" viewBox="0 0 31 29" fill="none" xmlns="http://www.w3.org/2000/svg">
<path d="M17.9407 14.4101L29.3207 3.03008C29.7407 2.61008 29.7407 1.94008 29.3207 1.52008C28.9007 1.10008 28.2307 1.10008 27.8107 1.52008L16.4307 12.9001" stroke="#FBA72A" stroke-miterlimit="10" stroke-linecap="round"/>
<path d="M5.85059 11.3901L19.4506 24.9901" stroke="#FBA72A" stroke-miterlimit="10" stroke-linecap="round" stroke-linejoin="round"/>
<path d="M16.3607 12.8399L15.7807 12.2599C15.0407 11.5199 13.9007 11.3299 12.9607 11.7899L11.5007 12.5099L9.9907 10.9999C9.3207 10.3299 8.3107 10.1699 7.4707 10.5899" stroke="#FBA72A" stroke-miterlimit="10" stroke-linecap="round" stroke-linejoin="round"/>
<path d="M20.2505 23.3702C20.6705 22.5302 20.5105 21.5102 19.8405 20.8502L18.2905 19.3002L19.0105 17.8802C19.4905 16.9302 19.3105 15.7802 18.5605 15.0302L17.9805 14.4502" stroke="#FBA72A" stroke-miterlimit="10" stroke-linecap="round" stroke-linejoin="round"/>
<path d="M5.85031 11.3901C5.85031 11.3901 3.58031 13.6601 1.32031 14.4101C3.59031 16.6801 11.8903 24.9801 14.9203 28.0101C17.1903 27.2501 19.4503 24.9901 19.4503 24.9901" stroke="#FBA72A" stroke-miterlimit="10" stroke-linecap="round"/>
<path d="M3.58984 16.6799L6.60984 15.1699" stroke="#FBA72A" stroke-miterlimit="10" stroke-linecap="round" stroke-linejoin="round"/>
<path d="M5.85059 18.9402L8.87059 17.4302" stroke="#FBA72A" stroke-miterlimit="10" stroke-linecap="round" stroke-linejoin="round"/>
<path d="M8.12012 21.2102L11.1401 19.7002" stroke="#FBA72A" stroke-miterlimit="10" stroke-linecap="round" stroke-linejoin="round"/>
<path d="M10.3799 23.4802L13.4099 21.9702" stroke="#FBA72A" stroke-miterlimit="10" stroke-linecap="round" stroke-linejoin="round"/>
<path d="M12.6504 25.74L15.6704 24.23" stroke="#FBA72A" stroke-miterlimit="10" stroke-linecap="round" stroke-linejoin="round"/>
</svg>
