<svg width="22" height="47" viewBox="0 0 22 47" fill="none" xmlns="http://www.w3.org/2000/svg">
<path d="M5.18044 46.3898C4.78726 46.3898 4.52513 46.1276 4.52513 45.7341V23.4394C4.13195 23.4394 3.86983 23.1771 3.86983 22.7837C3.86983 22.3902 4.13195 22.1279 4.52513 22.1279H5.18044C5.57362 22.1279 5.83575 22.3902 5.83575 22.7837V45.7341C5.83575 46.1276 5.57362 46.3898 5.18044 46.3898Z" fill="white"/>
<path d="M16.9759 46.3898C16.5827 46.3898 16.3206 46.1276 16.3206 45.7341V22.7837C16.3206 22.3902 16.5827 22.1279 16.9759 22.1279H17.6312C18.0244 22.1279 18.2865 22.3902 18.2865 22.7837C18.2865 23.1771 18.0244 23.4394 17.6312 23.4394V45.7341C17.6312 46.1276 17.3691 46.3898 16.9759 46.3898Z" fill="white"/>
<path d="M11.0782 46.3885C10.685 46.3885 10.4229 46.1262 10.4229 45.7328V34.5854C10.4229 34.192 10.685 33.9297 11.0782 33.9297C11.4714 33.9297 11.7335 34.192 11.7335 34.5854V45.7328C11.7335 46.1262 11.4714 46.3885 11.0782 46.3885Z" fill="white"/>
<path d="M20.9078 33.931H18.9418C18.5487 33.931 18.2865 33.6687 18.2865 33.2753C18.2865 32.8818 18.5487 32.6195 18.9418 32.6195H20.2525V20.8164C20.2525 16.6198 17.5002 13.6034 13.6994 13.6034H8.45695C4.65618 13.6034 1.9039 16.6198 1.9039 20.8164V29.3409C1.9039 29.7343 1.64177 29.9966 1.24859 29.9966C0.855407 29.9966 0.593285 29.7343 0.593285 29.3409V20.8164C0.593285 15.9641 4.00087 12.292 8.45695 12.292H13.6994C18.1555 12.292 21.5631 15.9641 21.5631 20.8164V33.2753C21.5631 33.6687 21.3009 33.931 20.9078 33.931Z" fill="white"/>
<path d="M11.0782 10.9799C8.32593 10.9799 6.49107 8.88159 6.49107 5.7341C6.49107 2.58661 8.32593 0.488281 11.0782 0.488281C13.8305 0.488281 15.6654 2.58661 15.6654 5.7341C15.6654 8.88159 13.8305 10.9799 11.0782 10.9799ZM11.0782 1.79974C8.65358 1.79974 7.80169 3.89806 7.80169 5.7341C7.80169 7.57014 8.65358 9.66846 11.0782 9.66846C13.5028 9.66846 14.3547 7.57014 14.3547 5.7341C14.3547 3.89806 13.5028 1.79974 11.0782 1.79974Z" fill="white"/>
<path d="M11.0782 19.5053C10.685 19.5053 10.4229 19.243 10.4229 18.8495V18.1938C10.4229 17.8004 10.685 17.5381 11.0782 17.5381C11.4714 17.5381 11.7335 17.8004 11.7335 18.1938V18.8495C11.7335 19.243 11.4714 19.5053 11.0782 19.5053Z" fill="white"/>
<path d="M11.0782 23.4398C10.685 23.4398 10.4229 23.1775 10.4229 22.7841V22.1284C10.4229 21.7349 10.685 21.4727 11.0782 21.4727C11.4714 21.4727 11.7335 21.7349 11.7335 22.1284V22.7841C11.7335 23.1775 11.4714 23.4398 11.0782 23.4398Z" fill="white"/>
<path d="M11.0782 27.3744C10.685 27.3744 10.4229 27.1121 10.4229 26.7187V26.063C10.4229 25.6695 10.685 25.4072 11.0782 25.4072C11.4714 25.4072 11.7335 25.6695 11.7335 26.063V26.7187C11.7335 27.1121 11.4714 27.3744 11.0782 27.3744Z" fill="white"/>
</svg>
