<svg width="23" height="47" viewBox="0 0 23 47" fill="none" xmlns="http://www.w3.org/2000/svg">
<path d="M6.36986 23.7685V23.2685H5.86986C5.78699 23.2685 5.75674 23.243 5.74843 23.2347C5.74009 23.2264 5.71455 23.1959 5.71455 23.1128C5.71455 23.0296 5.74009 22.9991 5.74843 22.9908C5.75674 22.9825 5.78699 22.957 5.86986 22.957H6.52517C6.60804 22.957 6.63829 22.9825 6.6466 22.9908C6.65493 22.9991 6.68047 23.0296 6.68047 23.1128V46.0632C6.68047 46.1464 6.65493 46.1768 6.6466 46.1852C6.63829 46.1935 6.60804 46.2189 6.52517 46.2189C6.44229 46.2189 6.41205 46.1935 6.40374 46.1852C6.3954 46.1768 6.36986 46.1464 6.36986 46.0632V23.7685Z" fill="white" stroke="black"/>
<path d="M18.976 23.2685H18.476V23.7685V46.0632C18.476 46.1464 18.4504 46.1768 18.4421 46.1852C18.4338 46.1935 18.4035 46.2189 18.3207 46.2189C18.2378 46.2189 18.2075 46.1935 18.1992 46.1852C18.1909 46.1768 18.1653 46.1464 18.1653 46.0632V23.1128C18.1653 23.0296 18.1909 22.9991 18.1992 22.9908C18.2075 22.9825 18.2378 22.957 18.3207 22.957H18.976C19.0588 22.957 19.0891 22.9825 19.0974 22.9908C19.1057 22.9991 19.1313 23.0296 19.1313 23.1128C19.1313 23.1959 19.1057 23.2264 19.0974 23.2347C19.0891 23.243 19.0588 23.2685 18.976 23.2685Z" fill="white" stroke="black"/>
<path d="M12.4229 46.2176C12.3401 46.2176 12.3098 46.1921 12.3015 46.1838C12.2932 46.1755 12.2676 46.1451 12.2676 46.0619V34.9145C12.2676 34.8313 12.2932 34.8009 12.3015 34.7926C12.3098 34.7842 12.3401 34.7588 12.4229 34.7588C12.5058 34.7588 12.5361 34.7842 12.5444 34.7926C12.5527 34.8009 12.5783 34.8313 12.5783 34.9145V46.0619C12.5783 46.1451 12.5527 46.1755 12.5444 46.1838C12.5361 46.1921 12.5058 46.2176 12.4229 46.2176Z" fill="white" stroke="black"/>
<path d="M21.5972 33.4486H22.0972V32.9486V21.1455C22.0972 16.7183 19.1645 13.4325 15.0441 13.4325H9.80168C5.68127 13.4325 2.74862 16.7183 2.74862 21.1455V29.67C2.74862 29.7532 2.72308 29.7836 2.71475 29.792C2.70644 29.8003 2.67619 29.8257 2.59332 29.8257C2.51045 29.8257 2.4802 29.8003 2.47189 29.792C2.46355 29.7836 2.43801 29.7532 2.43801 29.67V21.1455C2.43801 16.5314 5.65815 13.1211 9.80168 13.1211H15.0441C19.1876 13.1211 22.4078 16.5314 22.4078 21.1455V33.6044C22.4078 33.6876 22.3823 33.718 22.3739 33.7263C22.3656 33.7346 22.3354 33.7601 22.2525 33.7601H20.2866C20.2037 33.7601 20.1734 33.7346 20.1651 33.7263C20.1568 33.718 20.1313 33.6876 20.1313 33.6044C20.1313 33.5212 20.1568 33.4907 20.1651 33.4824C20.1734 33.4741 20.2037 33.4486 20.2866 33.4486H21.5972Z" fill="white" stroke="black"/>
<path d="M12.4229 10.809C11.1823 10.809 10.1759 10.3403 9.47366 9.53729C8.76616 8.7282 8.3358 7.54183 8.3358 6.0632C8.3358 4.58457 8.76616 3.39821 9.47366 2.58912C10.1759 1.78608 11.1823 1.31738 12.4229 1.31738C13.6636 1.31738 14.67 1.78608 15.3722 2.58912C16.0797 3.39821 16.5101 4.58457 16.5101 6.0632C16.5101 7.54183 16.0797 8.7282 15.3722 9.53729C14.67 10.3403 13.6636 10.809 12.4229 10.809ZM12.4229 1.62884C11.0408 1.62884 10.0693 2.23886 9.46281 3.12513C8.8728 3.98728 8.64641 5.07951 8.64641 6.0632C8.64641 7.0469 8.8728 8.13912 9.46281 9.00128C10.0693 9.88754 11.0408 10.4976 12.4229 10.4976C13.8051 10.4976 14.7766 9.88754 15.3831 9.00128C15.9731 8.13912 16.1995 7.0469 16.1995 6.0632C16.1995 5.07951 15.9731 3.98728 15.3831 3.12513C14.7766 2.23886 13.8051 1.62884 12.4229 1.62884Z" fill="white" stroke="black"/>
<path d="M12.4229 19.3344C12.3401 19.3344 12.3098 19.3089 12.3015 19.3006C12.2932 19.2923 12.2676 19.2618 12.2676 19.1786V18.5229C12.2676 18.4397 12.2932 18.4093 12.3015 18.401C12.3098 18.3926 12.3401 18.3672 12.4229 18.3672C12.5058 18.3672 12.5361 18.3926 12.5444 18.401C12.5527 18.4093 12.5783 18.4397 12.5783 18.5229V19.1786C12.5783 19.2618 12.5527 19.2923 12.5444 19.3006C12.5361 19.3089 12.5058 19.3344 12.4229 19.3344Z" fill="white" stroke="black"/>
<path d="M12.4229 23.2689C12.3401 23.2689 12.3098 23.2435 12.3015 23.2352C12.2932 23.2268 12.2676 23.1964 12.2676 23.1132V22.4575C12.2676 22.3743 12.2932 22.3439 12.3015 22.3355C12.3098 22.3272 12.3401 22.3018 12.4229 22.3018C12.5058 22.3018 12.5361 22.3272 12.5444 22.3355C12.5527 22.3439 12.5782 22.3743 12.5782 22.4575V23.1132C12.5782 23.1964 12.5527 23.2268 12.5444 23.2352C12.5361 23.2435 12.5058 23.2689 12.4229 23.2689Z" fill="white" stroke="black"/>
<path d="M12.4229 27.2035C12.3401 27.2035 12.3098 27.1781 12.3015 27.1697C12.2932 27.1614 12.2676 27.131 12.2676 27.0478V26.3921C12.2676 26.3089 12.2932 26.2784 12.3015 26.2701C12.3098 26.2618 12.3401 26.2363 12.4229 26.2363C12.5058 26.2363 12.5361 26.2618 12.5444 26.2701C12.5527 26.2784 12.5782 26.3089 12.5782 26.3921V27.0478C12.5782 27.131 12.5527 27.1614 12.5444 27.1697C12.5361 27.1781 12.5058 27.2035 12.4229 27.2035Z" fill="white" stroke="black"/>
<path d="M1.43805 38.1939V38.6939H1.93805H3.24866H3.74866V38.1939V30.3251V29.8251H3.24866H1.93805H1.43805V30.3251V38.1939ZM3.90397 39.0053H1.28275C1.19988 39.0053 1.16963 38.9799 1.16132 38.9715C1.15298 38.9632 1.12744 38.9328 1.12744 38.8496V29.6694C1.12744 29.5862 1.15298 29.5558 1.16132 29.5474C1.16963 29.5391 1.19988 29.5137 1.28275 29.5137H3.90397C3.98684 29.5137 4.01709 29.5391 4.0254 29.5474C4.03374 29.5558 4.05928 29.5862 4.05928 29.6694V38.8496C4.05928 38.9328 4.03374 38.9632 4.0254 38.9715C4.01709 38.9799 3.98684 39.0053 3.90397 39.0053Z" fill="white" stroke="black"/>
</svg>
