<svg width="28" height="32" viewBox="0 0 28 32" fill="none" xmlns="http://www.w3.org/2000/svg">
<path d="M0.666992 23.6668C0.666992 25.1335 1.31699 26.4502 2.33366 27.3668V29.5002C2.33366 30.8835 3.45033 32.0002 4.83366 32.0002C6.21699 32.0002 7.33366 30.8835 7.33366 29.5002V28.6668H20.667V29.5002C20.667 30.8668 21.7837 32.0002 23.167 32.0002C24.5337 32.0002 25.667 30.8835 25.667 29.5002V27.3668C26.6837 26.4502 27.3337 25.1335 27.3337 23.6668V7.00016C27.3337 1.16683 21.367 0.333496 14.0003 0.333496C6.63366 0.333496 0.666992 1.16683 0.666992 7.00016V23.6668ZM6.50033 25.3335C5.11699 25.3335 4.00033 24.2168 4.00033 22.8335C4.00033 21.4502 5.11699 20.3335 6.50033 20.3335C7.88366 20.3335 9.00032 21.4502 9.00032 22.8335C9.00032 24.2168 7.88366 25.3335 6.50033 25.3335ZM21.5003 25.3335C20.117 25.3335 19.0003 24.2168 19.0003 22.8335C19.0003 21.4502 20.117 20.3335 21.5003 20.3335C22.8837 20.3335 24.0003 21.4502 24.0003 22.8335C24.0003 24.2168 22.8837 25.3335 21.5003 25.3335ZM24.0003 15.3335H4.00033V7.00016H24.0003V15.3335Z" fill="#3FE089"/>
</svg>
