<svg width="31" height="27" viewBox="0 0 31 27" fill="none" xmlns="http://www.w3.org/2000/svg">
<path d="M28.4297 9.27977L26.4233 3.26058C26.1323 2.38422 25.5724 1.62187 24.8234 1.08185C24.0743 0.541838 23.1741 0.251623 22.2507 0.252443H8.87759C7.95416 0.251623 7.05396 0.541838 6.30489 1.08185C5.55582 1.62187 4.99599 2.38422 4.70493 3.26058L2.69853 9.27977C2.16499 9.50302 1.70935 9.87901 1.38889 10.3605C1.06843 10.842 0.89746 11.4074 0.897461 11.9858V19.3191C0.897461 20.4015 1.48999 21.3372 2.36413 21.8462V25.1858C2.36413 25.5748 2.51865 25.9478 2.7937 26.2229C3.06876 26.4979 3.44181 26.6524 3.83079 26.6524H5.29746C5.68645 26.6524 6.0595 26.4979 6.33455 26.2229C6.6096 25.9478 6.76413 25.5748 6.76413 25.1858V22.2524H24.3641V25.1858C24.3641 25.5748 24.5187 25.9478 24.7937 26.2229C25.0688 26.4979 25.4418 26.6524 25.8308 26.6524H27.2975C27.6864 26.6524 28.0595 26.4979 28.3346 26.2229C28.6096 25.9478 28.7641 25.5748 28.7641 25.1858V21.8462C29.2091 21.591 29.579 21.223 29.8365 20.7794C30.0939 20.3357 30.23 19.8321 30.2308 19.3191V11.9858C30.2308 11.4074 30.0598 10.842 29.7394 10.3605C29.4189 9.87901 28.9633 9.50302 28.4297 9.27977ZM8.87759 3.18578H22.2492C22.8813 3.18578 23.4416 3.58764 23.6411 4.18898L25.2632 9.05244H5.86506L7.48573 4.18898C7.58304 3.89681 7.76985 3.64268 8.01967 3.46262C8.26949 3.28256 8.56965 3.1857 8.87759 3.18578ZM6.03079 17.8524C5.74179 17.8523 5.45563 17.7953 5.18867 17.6846C4.9217 17.5739 4.67914 17.4118 4.47486 17.2073C4.27057 17.0029 4.10854 16.7603 3.99803 16.4932C3.88753 16.2262 3.8307 15.94 3.83079 15.651C3.83089 15.362 3.88791 15.0758 3.9986 14.8088C4.10928 14.5419 4.27147 14.2993 4.47589 14.095C4.68032 13.8907 4.92298 13.7287 5.19002 13.6182C5.45706 13.5077 5.74326 13.4509 6.03226 13.451C6.61593 13.4512 7.17562 13.6832 7.5882 14.0961C8.00078 14.5089 8.23246 15.0688 8.23226 15.6524C8.23207 16.2361 8.00002 16.7958 7.58716 17.2084C7.17431 17.621 6.61447 17.8526 6.03079 17.8524ZM25.0975 17.8524C24.8085 17.8523 24.5223 17.7953 24.2553 17.6846C23.9884 17.5739 23.7458 17.4118 23.5415 17.2073C23.3372 17.0029 23.1752 16.7603 23.0647 16.4932C22.9542 16.2262 22.8974 15.94 22.8975 15.651C22.8976 15.362 22.9546 15.0758 23.0653 14.8088C23.1759 14.5419 23.3381 14.2993 23.5426 14.095C23.747 13.8907 23.9896 13.7287 24.2567 13.6182C24.5237 13.5077 24.8099 13.4509 25.0989 13.451C25.6826 13.4512 26.2423 13.6832 26.6549 14.0961C27.0674 14.5089 27.2991 15.0688 27.2989 15.6524C27.2987 16.2361 27.0667 16.7958 26.6538 17.2084C26.241 17.621 25.6811 17.8526 25.0975 17.8524Z" fill="#3AE1D7"/>
</svg>
