<svg width="19" height="21" viewBox="0 0 19 21" fill="none" xmlns="http://www.w3.org/2000/svg">
<path d="M17.0303 0.65425C16.2755 0.113883 15.3369 -0.104558 14.421 0.0469641C13.5051 0.198486 12.6869 0.707564 12.1463 1.46225L3.31432 13.7922C3.11334 14.0585 2.96769 14.3623 2.88595 14.6857C2.8042 15.0092 2.78801 15.3457 2.83832 15.6754C2.88864 16.0052 3.00445 16.3216 3.17893 16.6059C3.35341 16.8903 3.58303 17.1368 3.85426 17.331C4.12549 17.5252 4.43285 17.6632 4.75823 17.7368C5.08361 17.8104 5.42042 17.8181 5.74883 17.7595C6.07724 17.7009 6.3906 17.5772 6.67045 17.3956C6.9503 17.214 7.19098 16.9783 7.37832 16.7022L13.6143 7.99725L12.8013 7.41425L6.56632 16.1212C6.33449 16.4441 5.98414 16.6619 5.59201 16.727C5.19989 16.792 4.79797 16.699 4.47432 16.4682C4.15118 16.2361 3.93337 15.8852 3.86869 15.4926C3.80401 15.1 3.89774 14.6978 4.12932 14.3742L12.9593 2.04425H12.9613L12.9593 2.04225C13.3465 1.50412 13.9312 1.14136 14.5853 1.03341C15.2395 0.92545 15.9097 1.08109 16.4493 1.46625C16.9874 1.85348 17.3502 2.43816 17.4582 3.09228C17.5661 3.7464 17.4105 4.41664 17.0253 4.95625V4.95425L7.34532 18.4702C6.80418 19.2242 5.98622 19.7328 5.07071 19.8846C4.15521 20.0364 3.21686 19.8191 2.46132 19.2802C1.70754 18.7385 1.19931 17.9199 1.04804 17.004C0.896768 16.0881 1.11479 15.1497 1.65432 14.3942L8.68932 4.57225L7.87632 3.99025L0.841316 13.8122C0.497191 14.2926 0.251105 14.8361 0.117125 15.4116C-0.0168555 15.9871 -0.0361034 16.5833 0.0604818 17.1663C0.157067 17.7492 0.367591 18.3074 0.680021 18.809C0.992451 19.3105 1.40066 19.7456 1.88132 20.0892C2.36138 20.4337 2.90462 20.6802 3.48 20.8145C4.05537 20.9489 4.65158 20.9685 5.23455 20.8723C5.81752 20.7761 6.3758 20.5659 6.87748 20.2538C7.37917 19.9417 7.81441 19.5337 8.15832 19.0532L17.8383 5.53725C18.3782 4.78222 18.5961 3.84372 18.4442 2.92806C18.2923 2.0124 17.783 1.19453 17.0283 0.65425H17.0303Z" fill="#939598"/>
</svg>
