<svg width="25" height="26" viewBox="0 0 25 26" fill="none" xmlns="http://www.w3.org/2000/svg">
<g clip-path="url(#clip0_3313_1198)">
<path d="M1.67793 11.2867V22.4287C1.67793 23.1167 2.24529 23.6841 2.93337 23.6841H22.0908C22.7789 23.6841 23.3462 23.1167 23.3462 22.4287V12.4335C23.3462 11.7454 22.7789 11.1781 22.0908 11.1781H12.5181C12.2525 11.1781 12.0111 11.0574 11.8542 10.8521L10.647 9.25872C10.6108 9.2225 10.5867 9.17422 10.5625 9.12593C10.4297 8.84829 10.14 8.67929 9.83824 8.67929H2.95751C2.58329 8.67929 2.25736 8.93279 2.16079 9.29493L1.67793 11.2867ZM22.0787 25.3499H2.92129C1.31579 25.3499 0 24.0342 0 22.4287V11.1901C0 11.1177 0.0120715 11.0574 0.0241429 10.9849L0.543216 8.89657C0.820859 7.786 1.81072 7.01343 2.95751 7.01343H9.8141C10.7315 7.01343 11.5645 7.50836 11.999 8.30507L12.9165 9.51222H22.0787C23.6842 9.51222 25 10.828 25 12.4335V22.4166C25 24.0342 23.6842 25.3499 22.0787 25.3499Z" fill="#ffffff"/>
<path d="M1.84723 10.5864L1.67822 11.2866V12.0109" stroke="#ffffff" stroke-width="0.1" stroke-miterlimit="1" stroke-linecap="square"/>
<path d="M1.67822 13.4595V22.4286C1.67822 23.1167 2.24558 23.684 2.93365 23.684H22.0911C22.7791 23.684 23.3465 23.1167 23.3465 22.4286V12.4334C23.3465 11.7453 22.7791 11.178 22.0911 11.178H12.5184C12.2528 11.178 12.0114 11.0573 11.8545 10.8521L10.6473 9.25863C10.6111 9.22241 10.587 9.17413 10.5628 9.12584C10.43 8.8482 10.1403 8.6792 9.83853 8.6792H2.9578C2.58358 8.6792 2.25765 8.9327 2.16108 9.29484L2.01622 9.87427" stroke="#ffffff" stroke-width="0.1" stroke-miterlimit="1" stroke-linecap="square" stroke-dasharray="12.01 12.01"/>
<path d="M22.0788 25.3501H21.3545" stroke="#ffffff" stroke-width="0.1" stroke-miterlimit="1" stroke-linecap="square"/>
<path d="M19.9179 25.3499H2.92129C1.31579 25.3499 0 24.0342 0 22.4287V11.1901C0 11.1177 0.0120715 11.0574 0.0241429 10.9849L0.543216 8.89657C0.820859 7.786 1.81072 7.01343 2.95751 7.01343H9.8141C10.7315 7.01343 11.5645 7.50836 11.999 8.30507L12.0473 8.36543" stroke="#ffffff" stroke-width="0.1" stroke-miterlimit="1" stroke-linecap="square" stroke-dasharray="11.88 11.88"/>
<path d="M12.4819 8.94482L12.9165 9.51218H13.6408" stroke="#ffffff" stroke-width="0.1" stroke-miterlimit="1" stroke-linecap="square"/>
<path d="M15.0527 9.51221H22.0783C23.6838 9.51221 24.9996 10.828 24.9996 12.4335V22.4166C24.9996 23.5272 24.3719 24.505 23.4545 24.9878" stroke="#ffffff" stroke-width="0.1" stroke-miterlimit="1" stroke-linecap="square" stroke-dasharray="11.72 11.72"/>
<path d="M22.7913 25.2532C22.562 25.3135 22.3205 25.3377 22.0791 25.3377" stroke="#ffffff" stroke-width="0.1" stroke-miterlimit="1" stroke-linecap="square"/>
<path d="M21.1365 11.1901C21.0882 11.1901 21.04 11.1901 20.9917 11.178C20.533 11.1056 20.2312 10.671 20.3036 10.2123L20.871 6.82025L18.5412 3.54888L8.22007 1.79852L7.25435 7.54453C7.18192 8.00325 6.74735 8.30503 6.28864 8.23261C5.82992 8.16018 5.52813 7.7256 5.60056 7.26689L6.71114 0.700014C6.78357 0.241298 7.21814 -0.0604885 7.66478 0.0119403L19.1689 1.94337C19.3862 1.97959 19.5793 2.1003 19.7121 2.28138L22.4523 6.13217C22.5851 6.31324 22.6334 6.53053 22.5972 6.74782L21.9695 10.49C21.897 10.9004 21.547 11.1901 21.1365 11.1901Z" fill="#ffffff"/>
<path d="M21.1369 11.1902C21.0886 11.1902 21.0403 11.1902 20.992 11.1781C20.7868 11.1419 20.6178 11.0454 20.4971 10.8884" stroke="#ffffff" stroke-width="0.1" stroke-miterlimit="1" stroke-linecap="square"/>
<path d="M20.3882 9.78961L20.6779 8.09961" stroke="#ffffff" stroke-width="0.1" stroke-miterlimit="1" stroke-linecap="square" stroke-dasharray="9.5 9.5"/>
<path d="M20.7749 7.53223L20.8956 6.82002L20.4731 6.22852" stroke="#ffffff" stroke-width="0.1" stroke-miterlimit="1" stroke-linecap="square"/>
<path d="M19.6276 5.04559L18.5533 3.53666L9.64453 2.03979" stroke="#ffffff" stroke-width="0.1" stroke-miterlimit="1" stroke-linecap="square" stroke-dasharray="12.02 12.02"/>
<path d="M8.93303 1.91905L8.22081 1.79834L8.1001 2.51056" stroke="#ffffff" stroke-width="0.1" stroke-miterlimit="1" stroke-linecap="square"/>
<path d="M7.84621 3.99552L7.24264 7.54453C7.17021 8.00325 6.73563 8.30503 6.27692 8.23261C5.8182 8.16018 5.51642 7.7256 5.58884 7.26689L6.69942 0.700014C6.77185 0.241298 7.20642 -0.0604885 7.65306 0.0119403L19.1572 1.94337C19.3745 1.97959 19.5676 2.1003 19.7004 2.28138L22.4527 6.13217C22.5855 6.31324 22.6337 6.53053 22.5975 6.74782L22.0181 10.1761" stroke="#ffffff" stroke-width="0.1" stroke-miterlimit="1" stroke-linecap="square" stroke-dasharray="12.46 12.46"/>
<path d="M21.777 10.8884C21.6201 11.0695 21.3907 11.1902 21.1372 11.1902" stroke="#ffffff" stroke-width="0.1" stroke-miterlimit="1" stroke-linecap="square"/>
<path d="M17.5522 7.52074C17.504 7.52074 17.4557 7.52074 17.4074 7.50867L9.85065 6.24117C9.39193 6.16874 9.09015 5.73417 9.16258 5.27545C9.235 4.81674 9.66958 4.51495 10.1283 4.58738L17.6971 5.86695C18.1558 5.93938 18.4576 6.37395 18.3852 6.83267C18.3127 7.23103 17.9627 7.52074 17.5522 7.52074Z" fill="#ffffff"/>
<path d="M17.5519 7.52075C17.5036 7.52075 17.4554 7.52075 17.4071 7.50867L16.8276 7.41211" stroke="#ffffff" stroke-width="0.1" stroke-miterlimit="1" stroke-linecap="square"/>
<path d="M15.3914 7.17067L9.85065 6.24117C9.39193 6.16874 9.09015 5.73417 9.16258 5.27545C9.235 4.81674 9.66958 4.51495 10.1283 4.58738L17.6971 5.86696C18.0472 5.92731 18.3127 6.20496 18.3731 6.53089" stroke="#ffffff" stroke-width="0.1" stroke-miterlimit="1" stroke-linecap="square" stroke-dasharray="12.18 12.18"/>
<path d="M18.192 7.2312C18.0351 7.41228 17.8057 7.53299 17.5522 7.53299" stroke="#ffffff" stroke-width="0.1" stroke-miterlimit="1" stroke-linecap="square"/>
</g>
<defs>
<clipPath id="clip0_3313_1198">
<rect width="25" height="25.3501" fill="white"/>
</clipPath>
</defs>
</svg>
