<svg width="224" height="52" viewBox="0 0 224 52" fill="none" xmlns="http://www.w3.org/2000/svg">
<path d="M219.011 7.57777L188 8.19873C201.621 9.86815 207.658 12.5167 207.656 28.7683L219.011 7.57777Z" fill="#FBA72A"/>
<path d="M1.235 49.604C1.14833 49.604 1.07033 49.5737 1.001 49.513C0.940333 49.4523 0.91 49.3743 0.91 49.279V40.829C0.91 40.7337 0.940333 40.6557 1.001 40.595C1.07033 40.5343 1.14833 40.504 1.235 40.504H2.639C2.77767 40.504 2.88167 40.543 2.951 40.621C3.029 40.6903 3.07667 40.7467 3.094 40.79L5.382 44.898L7.67 40.79C7.696 40.7467 7.73933 40.6903 7.8 40.621C7.86933 40.543 7.97767 40.504 8.125 40.504H9.516C9.61133 40.504 9.68933 40.5343 9.75 40.595C9.81933 40.6557 9.854 40.7337 9.854 40.829V49.279C9.854 49.3743 9.81933 49.4523 9.75 49.513C9.68933 49.5737 9.61133 49.604 9.516 49.604H7.969C7.87367 49.604 7.79133 49.5737 7.722 49.513C7.66133 49.4523 7.631 49.3743 7.631 49.279V44.404L6.162 47.121C6.12733 47.199 6.07533 47.2683 6.006 47.329C5.93667 47.3897 5.84133 47.42 5.72 47.42H5.044C4.92267 47.42 4.82733 47.3897 4.758 47.329C4.68867 47.2683 4.63233 47.199 4.589 47.121L3.12 44.404V49.279C3.12 49.3743 3.08967 49.4523 3.029 49.513C2.96833 49.5737 2.89033 49.604 2.795 49.604H1.235ZM15.3809 49.734C14.5836 49.734 13.8903 49.604 13.3009 49.344C12.7116 49.084 12.2523 48.694 11.9229 48.174C11.5936 47.6453 11.4116 46.9867 11.3769 46.198C11.3683 45.8253 11.3639 45.4527 11.3639 45.08C11.3639 44.7073 11.3683 44.3303 11.3769 43.949C11.4116 43.169 11.5936 42.5147 11.9229 41.986C12.2609 41.4487 12.7246 41.0457 13.3139 40.777C13.9033 40.5083 14.5923 40.374 15.3809 40.374C16.1609 40.374 16.8456 40.5083 17.4349 40.777C18.0329 41.0457 18.5009 41.4487 18.8389 41.986C19.1769 42.5147 19.3589 43.169 19.3849 43.949C19.4023 44.3303 19.4109 44.7073 19.4109 45.08C19.4109 45.4527 19.4023 45.8253 19.3849 46.198C19.3503 46.9867 19.1683 47.6453 18.8389 48.174C18.5096 48.694 18.0503 49.084 17.4609 49.344C16.8716 49.604 16.1783 49.734 15.3809 49.734ZM15.3809 47.862C15.8403 47.862 16.2129 47.7233 16.4989 47.446C16.7936 47.1687 16.9496 46.7267 16.9669 46.12C16.9843 45.7387 16.9929 45.379 16.9929 45.041C16.9929 44.703 16.9843 44.352 16.9669 43.988C16.9496 43.5807 16.8716 43.2513 16.7329 43C16.6029 42.74 16.4209 42.5493 16.1869 42.428C15.9529 42.3067 15.6843 42.246 15.3809 42.246C15.0863 42.246 14.8219 42.3067 14.5879 42.428C14.3539 42.5493 14.1676 42.74 14.0289 43C13.8903 43.2513 13.8123 43.5807 13.7949 43.988C13.7863 44.352 13.7819 44.703 13.7819 45.041C13.7819 45.379 13.7863 45.7387 13.7949 46.12C13.8209 46.7267 13.9769 47.1687 14.2629 47.446C14.5489 47.7233 14.9216 47.862 15.3809 47.862ZM21.2428 49.604C21.1475 49.604 21.0695 49.5737 21.0088 49.513C20.9481 49.4523 20.9178 49.3743 20.9178 49.279V40.829C20.9178 40.7337 20.9481 40.6557 21.0088 40.595C21.0695 40.5343 21.1475 40.504 21.2428 40.504H24.8828C25.6021 40.504 26.2261 40.6167 26.7548 40.842C27.2921 41.0587 27.7081 41.388 28.0028 41.83C28.3061 42.272 28.4578 42.831 28.4578 43.507C28.4578 44.1743 28.3061 44.7247 28.0028 45.158C27.7081 45.5913 27.2921 45.912 26.7548 46.12C26.2261 46.328 25.6021 46.432 24.8828 46.432H23.3358V49.279C23.3358 49.3743 23.3011 49.4523 23.2318 49.513C23.1711 49.5737 23.0931 49.604 22.9978 49.604H21.2428ZM23.2968 44.638H24.8178C25.1905 44.638 25.4851 44.5427 25.7018 44.352C25.9271 44.1613 26.0398 43.871 26.0398 43.481C26.0398 43.1517 25.9445 42.8743 25.7538 42.649C25.5631 42.4237 25.2511 42.311 24.8178 42.311H23.2968V44.638ZM30.028 49.604C29.9326 49.604 29.8546 49.5737 29.794 49.513C29.7333 49.4523 29.703 49.3743 29.703 49.279V40.829C29.703 40.7337 29.7333 40.6557 29.794 40.595C29.8546 40.5343 29.9326 40.504 30.028 40.504H36.099C36.1943 40.504 36.2723 40.5343 36.333 40.595C36.3936 40.6557 36.424 40.7337 36.424 40.829V42.051C36.424 42.1463 36.3936 42.2243 36.333 42.285C36.2723 42.3457 36.1943 42.376 36.099 42.376H31.952V44.131H35.813C35.9083 44.131 35.9863 44.1657 36.047 44.235C36.1076 44.2957 36.138 44.3737 36.138 44.469V45.6C36.138 45.6867 36.1076 45.7647 36.047 45.834C35.9863 45.8947 35.9083 45.925 35.813 45.925H31.952V47.732H36.203C36.2983 47.732 36.3763 47.7623 36.437 47.823C36.4976 47.8837 36.528 47.9617 36.528 48.057V49.279C36.528 49.3743 36.4976 49.4523 36.437 49.513C36.3763 49.5737 36.2983 49.604 36.203 49.604H30.028ZM41.0983 49.604C41.0029 49.604 40.9249 49.5737 40.8643 49.513C40.8036 49.4523 40.7733 49.3743 40.7733 49.279V40.829C40.7733 40.7337 40.8036 40.6557 40.8643 40.595C40.9249 40.5343 41.0029 40.504 41.0983 40.504H44.7383C45.4576 40.504 46.0816 40.6167 46.6103 40.842C47.1476 41.0587 47.5636 41.388 47.8583 41.83C48.1616 42.272 48.3133 42.831 48.3133 43.507C48.3133 44.1743 48.1616 44.7247 47.8583 45.158C47.5636 45.5913 47.1476 45.912 46.6103 46.12C46.0816 46.328 45.4576 46.432 44.7383 46.432H43.1913V49.279C43.1913 49.3743 43.1566 49.4523 43.0873 49.513C43.0266 49.5737 42.9486 49.604 42.8533 49.604H41.0983ZM43.1523 44.638H44.6733C45.0459 44.638 45.3406 44.5427 45.5573 44.352C45.7826 44.1613 45.8953 43.871 45.8953 43.481C45.8953 43.1517 45.7999 42.8743 45.6093 42.649C45.4186 42.4237 45.1066 42.311 44.6733 42.311H43.1523V44.638ZM49.0384 49.604C48.9691 49.604 48.9041 49.578 48.8434 49.526C48.7914 49.4653 48.7654 49.4003 48.7654 49.331C48.7654 49.2877 48.7698 49.2487 48.7784 49.214L51.8334 40.868C51.8594 40.7727 51.9114 40.6903 51.9894 40.621C52.0761 40.543 52.1931 40.504 52.3404 40.504H54.2644C54.4118 40.504 54.5244 40.543 54.6024 40.621C54.6891 40.6903 54.7454 40.7727 54.7714 40.868L57.8134 49.214C57.8308 49.2487 57.8394 49.2877 57.8394 49.331C57.8394 49.4003 57.8091 49.4653 57.7484 49.526C57.6964 49.578 57.6314 49.604 57.5534 49.604H55.9544C55.8244 49.604 55.7248 49.5737 55.6554 49.513C55.5948 49.4437 55.5558 49.383 55.5384 49.331L55.0314 48.005H51.5604L51.0664 49.331C51.0491 49.383 51.0101 49.4437 50.9494 49.513C50.8888 49.5737 50.7848 49.604 50.6374 49.604H49.0384ZM52.0934 46.133H54.5114L53.2894 42.701L52.0934 46.133ZM59.1891 49.604C59.0938 49.604 59.0158 49.5737 58.9551 49.513C58.8944 49.4523 58.8641 49.3743 58.8641 49.279V40.829C58.8641 40.7337 58.8944 40.6557 58.9551 40.595C59.0158 40.5343 59.0938 40.504 59.1891 40.504H65.4161C65.5114 40.504 65.5894 40.5343 65.6501 40.595C65.7194 40.6557 65.7541 40.7337 65.7541 40.829V42.129C65.7541 42.2243 65.7194 42.3067 65.6501 42.376C65.5894 42.4367 65.5114 42.467 65.4161 42.467H61.1911V44.014H63.0111C64.0511 44.014 64.8701 44.261 65.4681 44.755C66.0661 45.249 66.3651 45.9207 66.3651 46.77C66.3651 47.1687 66.2914 47.5413 66.1441 47.888C65.9968 48.226 65.7801 48.525 65.4941 48.785C65.2168 49.0363 64.8701 49.2357 64.4541 49.383C64.0381 49.5303 63.5571 49.604 63.0111 49.604H59.1891ZM61.1911 47.914H62.8031C63.0544 47.914 63.2624 47.862 63.4271 47.758C63.6004 47.6453 63.7304 47.5023 63.8171 47.329C63.9038 47.147 63.9471 46.9563 63.9471 46.757C63.9471 46.4537 63.8474 46.1937 63.6481 45.977C63.4574 45.7603 63.1758 45.652 62.8031 45.652H61.1911V47.914ZM71.126 49.734C70.3287 49.734 69.6354 49.604 69.046 49.344C68.4567 49.084 67.9974 48.694 67.668 48.174C67.3387 47.6453 67.1567 46.9867 67.122 46.198C67.1134 45.8253 67.109 45.4527 67.109 45.08C67.109 44.7073 67.1134 44.3303 67.122 43.949C67.1567 43.169 67.3387 42.5147 67.668 41.986C68.006 41.4487 68.4697 41.0457 69.059 40.777C69.6484 40.5083 70.3374 40.374 71.126 40.374C71.906 40.374 72.5907 40.5083 73.18 40.777C73.778 41.0457 74.246 41.4487 74.584 41.986C74.922 42.5147 75.104 43.169 75.13 43.949C75.1474 44.3303 75.156 44.7073 75.156 45.08C75.156 45.4527 75.1474 45.8253 75.13 46.198C75.0954 46.9867 74.9134 47.6453 74.584 48.174C74.2547 48.694 73.7954 49.084 73.206 49.344C72.6167 49.604 71.9234 49.734 71.126 49.734ZM71.126 47.862C71.5854 47.862 71.958 47.7233 72.244 47.446C72.5387 47.1687 72.6947 46.7267 72.712 46.12C72.7294 45.7387 72.738 45.379 72.738 45.041C72.738 44.703 72.7294 44.352 72.712 43.988C72.6947 43.5807 72.6167 43.2513 72.478 43C72.348 42.74 72.166 42.5493 71.932 42.428C71.698 42.3067 71.4294 42.246 71.126 42.246C70.8314 42.246 70.567 42.3067 70.333 42.428C70.099 42.5493 69.9127 42.74 69.774 43C69.6354 43.2513 69.5574 43.5807 69.54 43.988C69.5314 44.352 69.527 44.703 69.527 45.041C69.527 45.379 69.5314 45.7387 69.54 46.12C69.566 46.7267 69.722 47.1687 70.008 47.446C70.294 47.7233 70.6667 47.862 71.126 47.862ZM78.9899 49.604C78.8946 49.604 78.8166 49.5737 78.7559 49.513C78.6953 49.4523 78.6649 49.3743 78.6649 49.279V42.545H76.3509C76.2556 42.545 76.1776 42.5147 76.1169 42.454C76.0563 42.3847 76.0259 42.3067 76.0259 42.22V40.829C76.0259 40.7337 76.0563 40.6557 76.1169 40.595C76.1776 40.5343 76.2556 40.504 76.3509 40.504H83.3449C83.4403 40.504 83.5183 40.5343 83.5789 40.595C83.6396 40.6557 83.6699 40.7337 83.6699 40.829V42.22C83.6699 42.3067 83.6396 42.3847 83.5789 42.454C83.5183 42.5147 83.4403 42.545 83.3449 42.545H81.0309V49.279C81.0309 49.3743 81.0006 49.4523 80.9399 49.513C80.8793 49.5737 80.8013 49.604 80.7059 49.604H78.9899ZM85.1764 49.604C85.0811 49.604 85.0031 49.5737 84.9424 49.513C84.8817 49.4523 84.8514 49.3743 84.8514 49.279V40.829C84.8514 40.7337 84.8817 40.6557 84.9424 40.595C85.0031 40.5343 85.0811 40.504 85.1764 40.504H86.8534C86.9487 40.504 87.0267 40.5343 87.0874 40.595C87.1481 40.6557 87.1784 40.7337 87.1784 40.829V43.624H88.4134C89.5227 43.624 90.3851 43.871 91.0004 44.365C91.6157 44.8503 91.9234 45.587 91.9234 46.575C91.9234 47.173 91.7891 47.7017 91.5204 48.161C91.2517 48.6203 90.8531 48.9757 90.3244 49.227C89.8044 49.4783 89.1674 49.604 88.4134 49.604H85.1764ZM87.1784 47.797H88.3614C88.7341 47.797 89.0157 47.6843 89.2064 47.459C89.4057 47.225 89.5054 46.9303 89.5054 46.575C89.5054 46.185 89.4014 45.8947 89.1934 45.704C88.9941 45.5133 88.7167 45.418 88.3614 45.418H87.1784V47.797ZM93.2364 49.604C93.1411 49.604 93.0631 49.5737 93.0024 49.513C92.9417 49.4523 92.9114 49.3743 92.9114 49.279V40.829C92.9114 40.7337 92.9417 40.6557 93.0024 40.595C93.0631 40.5343 93.1411 40.504 93.2364 40.504H94.9784C95.0737 40.504 95.1517 40.5343 95.2124 40.595C95.2731 40.6557 95.3034 40.7337 95.3034 40.829V49.279C95.3034 49.3743 95.2731 49.4523 95.2124 49.513C95.1517 49.5737 95.0737 49.604 94.9784 49.604H93.2364Z" fill="#FBA72A"/>
<path d="M12.64 34.56C10.3733 34.56 8.17333 34.28 6.04 33.72C3.90667 33.16 2.17333 32.4133 0.84 31.48L3.44 25.64C4.69333 26.4667 6.14667 27.1333 7.8 27.64C9.45333 28.1467 11.08 28.4 12.68 28.4C15.72 28.4 17.24 27.64 17.24 26.12C17.24 25.32 16.8 24.7333 15.92 24.36C15.0667 23.96 13.68 23.5467 11.76 23.12C9.65333 22.6667 7.89333 22.1867 6.48 21.68C5.06667 21.1467 3.85333 20.3067 2.84 19.16C1.82667 18.0133 1.32 16.4667 1.32 14.52C1.32 12.8133 1.78667 11.28 2.72 9.92C3.65333 8.53333 5.04 7.44 6.88 6.64C8.74667 5.84 11.0267 5.44 13.72 5.44C15.56 5.44 17.3733 5.65333 19.16 6.08C20.9467 6.48 22.52 7.08 23.88 7.88L21.44 13.76C18.7733 12.32 16.1867 11.6 13.68 11.6C12.1067 11.6 10.96 11.84 10.24 12.32C9.52 12.7733 9.16 13.3733 9.16 14.12C9.16 14.8667 9.58667 15.4267 10.44 15.8C11.2933 16.1733 12.6667 16.56 14.56 16.96C16.6933 17.4133 18.4533 17.9067 19.84 18.44C21.2533 18.9467 22.4667 19.7733 23.48 20.92C24.52 22.04 25.04 23.5733 25.04 25.52C25.04 27.2 24.5733 28.72 23.64 30.08C22.7067 31.44 21.3067 32.5333 19.44 33.36C17.5733 34.16 15.3067 34.56 12.64 34.56ZM42.2984 33.12C41.6584 33.52 40.8718 33.8267 39.9384 34.04C39.0318 34.2533 38.0584 34.36 37.0184 34.36C34.1918 34.36 32.0184 33.6667 30.4984 32.28C29.0051 30.8933 28.2584 28.8267 28.2584 26.08V7.48H35.8584V13.12H40.7784V18.8H35.8584V26C35.8584 26.8 36.0584 27.4133 36.4584 27.84C36.8584 28.2667 37.4051 28.48 38.0984 28.48C38.9784 28.48 39.7518 28.2533 40.4184 27.8L42.2984 33.12ZM67.5084 12.32V34H60.2684V31.84C58.8551 33.52 56.7218 34.36 53.8684 34.36C51.8951 34.36 50.0951 33.9067 48.4684 33C46.8684 32.0667 45.5884 30.7467 44.6284 29.04C43.6951 27.3333 43.2284 25.36 43.2284 23.12C43.2284 20.88 43.6951 18.92 44.6284 17.24C45.5884 15.5333 46.8684 14.2267 48.4684 13.32C50.0951 12.4133 51.8951 11.96 53.8684 11.96C56.4284 11.96 58.4418 12.7067 59.9084 14.2V12.32H67.5084ZM55.4684 28.32C56.8018 28.32 57.8951 27.8667 58.7484 26.96C59.6018 26.0267 60.0284 24.7467 60.0284 23.12C60.0284 21.52 59.6018 20.2667 58.7484 19.36C57.8951 18.4533 56.8018 18 55.4684 18C54.1351 18 53.0418 18.4533 52.1884 19.36C51.3351 20.2667 50.9084 21.52 50.9084 23.12C50.9084 24.7467 51.3351 26.0267 52.1884 26.96C53.0418 27.8667 54.1351 28.32 55.4684 28.32ZM79.8009 13.12H84.9609V18.8H80.0009V34H72.4009V12.56C72.4009 9.92 73.1876 7.82667 74.7609 6.28C76.3609 4.73333 78.5876 3.96 81.4409 3.96C82.4009 3.96 83.3343 4.05333 84.2409 4.24C85.1476 4.42667 85.8943 4.70666 86.4809 5.08L84.6009 10.44C83.8543 10.0133 83.0943 9.8 82.3209 9.8C81.5209 9.8 80.8943 10.04 80.4409 10.52C80.0143 11 79.8009 11.7067 79.8009 12.64V13.12ZM95.1525 13.12H100.313V18.8H95.3525V34H87.7525V12.56C87.7525 9.92 88.5392 7.82667 90.1125 6.28C91.7125 4.73333 93.9392 3.96 96.7925 3.96C97.7525 3.96 98.6858 4.05333 99.5925 4.24C100.499 4.42667 101.246 4.70666 101.833 5.08L99.9525 10.44C99.2058 10.0133 98.4458 9.8 97.6725 9.8C96.8725 9.8 96.2458 10.04 95.7925 10.52C95.3658 11 95.1525 11.7067 95.1525 12.64V13.12ZM135.305 27.72V34H113.505V29.04L123.985 19.24C124.998 18.28 125.678 17.4667 126.025 16.8C126.371 16.1067 126.545 15.4133 126.545 14.72C126.545 13.8133 126.238 13.1067 125.625 12.6C125.011 12.0933 124.118 11.84 122.945 11.84C121.905 11.84 120.945 12.08 120.065 12.56C119.211 13.0133 118.505 13.68 117.945 14.56L112.065 11.28C113.158 9.46667 114.691 8.04 116.665 7C118.638 5.96 120.971 5.44 123.665 5.44C125.798 5.44 127.678 5.78667 129.305 6.48C130.958 7.17333 132.238 8.17333 133.145 9.48C134.078 10.76 134.545 12.2533 134.545 13.96C134.545 15.48 134.211 16.92 133.545 18.28C132.905 19.6133 131.651 21.1333 129.785 22.84L124.505 27.72H135.305ZM169.451 19.4H176.451V34H170.971V32.28C169.077 33.8 166.571 34.56 163.451 34.56C160.837 34.56 158.451 34 156.291 32.88C154.131 31.76 152.411 30.1333 151.131 28C149.877 25.84 149.251 23.2667 149.251 20.28C149.251 17.4 149.917 14.84 151.251 12.6C152.584 10.3333 154.437 8.57333 156.811 7.32C159.184 6.06666 161.864 5.44 164.851 5.44C167.464 5.44 169.811 5.88 171.891 6.76C173.971 7.64 175.704 8.90667 177.091 10.56L172.051 15.12C170.157 13.04 167.891 12 165.251 12C162.824 12 160.877 12.7467 159.411 14.24C157.971 15.7067 157.251 17.7067 157.251 20.24C157.251 22.8 157.931 24.76 159.291 26.12C160.651 27.48 162.371 28.16 164.451 28.16C166.451 28.16 168.117 27.6267 169.451 26.56V19.4ZM191.992 34.36C189.672 34.36 187.579 33.88 185.712 32.92C183.845 31.96 182.379 30.6267 181.312 28.92C180.272 27.2133 179.752 25.28 179.752 23.12C179.752 20.9867 180.272 19.0667 181.312 17.36C182.379 15.6533 183.832 14.3333 185.672 13.4C187.539 12.44 189.645 11.96 191.992 11.96C194.339 11.96 196.445 12.44 198.312 13.4C200.179 14.3333 201.632 15.6533 202.672 17.36C203.712 19.04 204.232 20.96 204.232 23.12C204.232 25.28 203.712 27.2133 202.672 28.92C201.632 30.6267 200.179 31.96 198.312 32.92C196.445 33.88 194.339 34.36 191.992 34.36ZM191.992 28.32C193.325 28.32 194.419 27.8667 195.272 26.96C196.125 26.0267 196.552 24.7467 196.552 23.12C196.552 21.52 196.125 20.2667 195.272 19.36C194.419 18.4533 193.325 18 191.992 18C190.659 18 189.565 18.4533 188.712 19.36C187.859 20.2667 187.432 21.52 187.432 23.12C187.432 24.7467 187.859 26.0267 188.712 26.96C189.565 27.8667 190.659 28.32 191.992 28.32Z" fill="#FBA72A"/>
</svg>
