<svg width="25" height="25" viewBox="0 0 25 25" fill="none" xmlns="http://www.w3.org/2000/svg">
<g clip-path="url(#clip0_3313_1149)">
<path d="M12.506 1.67793C6.53066 1.67793 1.67793 6.54273 1.67793 12.506C1.67793 18.4814 6.53066 23.3341 12.506 23.3341C18.4814 23.3341 23.3341 18.4693 23.3341 12.506C23.3341 6.53066 18.4693 1.67793 12.506 1.67793ZM12.506 25C5.61323 25 0 19.3988 0 12.506C0 5.61323 5.61323 0 12.506 0C19.3988 0 25 5.60116 25 12.494C25 19.3988 19.3988 25 12.506 25Z" fill="#ffffff"/>
<path d="M12.5065 1.67773C12.2651 1.67773 12.0237 1.68981 11.7822 1.70188" stroke="#ffffff" stroke-width="0.1" stroke-miterlimit="1" stroke-linecap="square"/>
<path d="M10.3092 1.89488C5.38403 2.90889 1.66602 7.27876 1.66602 12.5057C1.66602 18.4811 6.51874 23.3338 12.4941 23.3338C18.4695 23.3338 23.3222 18.469 23.3222 12.5057C23.3222 7.02526 19.23 2.48639 13.9427 1.77417" stroke="#ffffff" stroke-width="0.1" stroke-miterlimit="1" stroke-linecap="square" stroke-dasharray="12.26 12.26"/>
<path d="M13.2306 1.70188C12.9892 1.68981 12.7478 1.67773 12.5063 1.67773" stroke="#ffffff" stroke-width="0.1" stroke-miterlimit="1" stroke-linecap="square"/>
<path d="M12.506 24.9997C12.2646 24.9997 12.0232 24.9877 11.7817 24.9756" stroke="#ffffff" stroke-width="0.1" stroke-miterlimit="1" stroke-linecap="square"/>
<path d="M10.3332 24.8067C4.46644 23.7807 0 18.6503 0 12.4939C0.0120715 5.61312 5.61323 0.0119629 12.506 0.0119629C19.3988 0.0119629 25 5.61312 25 12.5059C25 18.9038 20.1593 24.2032 13.9546 24.9154" stroke="#ffffff" stroke-width="0.1" stroke-miterlimit="1" stroke-linecap="square" stroke-dasharray="12.04 12.04"/>
<path d="M13.2302 24.9756C12.9887 24.9877 12.7473 24.9997 12.5059 24.9997" stroke="#ffffff" stroke-width="0.1" stroke-miterlimit="1" stroke-linecap="square"/>
<path d="M12.506 13.3391C10.2124 13.3391 8.34131 11.468 8.34131 9.17442C8.34131 6.88084 10.2124 5.00977 12.506 5.00977C14.7996 5.00977 16.6706 6.88084 16.6706 9.17442C16.6706 9.63314 16.2964 10.0074 15.8377 10.0074C15.379 10.0074 15.0048 9.63314 15.0048 9.17442C15.0048 7.79827 13.8821 6.67563 12.506 6.67563C11.1298 6.67563 10.0072 7.79827 10.0072 9.17442C10.0072 10.5506 11.1298 11.6732 12.506 11.6732C12.9647 11.6732 13.3389 12.0474 13.3389 12.5061C13.3389 12.9649 12.9647 13.3391 12.506 13.3391Z" fill="#ffffff"/>
<path d="M12.506 13.3392C12.2646 13.3392 12.0232 13.315 11.7817 13.2788" stroke="#ffffff" stroke-width="0.1" stroke-miterlimit="1" stroke-linecap="square"/>
<path d="M10.4659 12.7959C9.19838 12.0836 8.34131 10.7316 8.34131 9.17442C8.34131 6.88084 10.2124 5.00977 12.506 5.00977C14.7996 5.00977 16.6706 6.88084 16.6706 9.17442C16.6706 9.63314 16.2964 10.0074 15.8377 10.0074C15.379 10.0074 15.0048 9.63314 15.0048 9.17442C15.0048 7.79827 13.8821 6.67563 12.506 6.67563C11.1298 6.67563 10.0072 7.79827 10.0072 9.17442C10.0072 10.5506 11.1298 11.6732 12.506 11.6732C12.9285 11.6732 13.2665 11.9871 13.3268 12.3854" stroke="#ffffff" stroke-width="0.1" stroke-miterlimit="1" stroke-linecap="square" stroke-dasharray="11.65 11.65"/>
<path d="M13.1456 13.0374C12.9887 13.2184 12.7594 13.3391 12.5059 13.3391" stroke="#ffffff" stroke-width="0.1" stroke-miterlimit="1" stroke-linecap="square"/>
<path d="M12.506 20.0024C10.2124 20.0024 8.34131 18.1313 8.34131 15.8378C8.34131 15.379 8.71552 15.0048 9.17424 15.0048C9.63296 15.0048 10.0072 15.379 10.0072 15.8378C10.0072 17.2139 11.1298 18.3365 12.506 18.3365C13.8821 18.3365 15.0048 17.2139 15.0048 15.8378C15.0048 14.4616 13.8821 13.339 12.506 13.339C12.0473 13.339 11.673 12.9647 11.673 12.506C11.673 12.0473 12.0473 11.6731 12.506 11.6731C14.7996 11.6731 16.6706 13.5442 16.6706 15.8378C16.6706 18.1313 14.7996 20.0024 12.506 20.0024Z" fill="#ffffff"/>
<path d="M12.506 20.0025C12.2646 20.0025 12.0232 19.9784 11.7817 19.9421" stroke="#ffffff" stroke-width="0.1" stroke-miterlimit="1" stroke-linecap="square"/>
<path d="M10.4659 19.4713C9.19838 18.759 8.34131 17.395 8.34131 15.8378C8.34131 15.379 8.71552 15.0048 9.17424 15.0048C9.63296 15.0048 10.0072 15.379 10.0072 15.8378C10.0072 17.2139 11.1298 18.3365 12.506 18.3365C13.8821 18.3365 15.0048 17.2139 15.0048 15.8378C15.0048 14.4616 13.8821 13.339 12.506 13.339C12.0473 13.339 11.673 12.9647 11.673 12.506C11.673 12.0473 12.0473 11.6731 12.506 11.6731C14.7996 11.6731 16.6706 13.5442 16.6706 15.8378C16.6706 17.6485 15.5118 19.1815 13.9063 19.761" stroke="#ffffff" stroke-width="0.1" stroke-miterlimit="1" stroke-linecap="square" stroke-dasharray="11.65 11.65"/>
<path d="M13.2302 19.9421C13.0008 19.9784 12.7594 20.0025 12.5059 20.0025" stroke="#ffffff" stroke-width="0.1" stroke-miterlimit="1" stroke-linecap="square"/>
<path d="M12.5058 6.67571C12.0471 6.67571 11.6729 6.3015 11.6729 5.84278V4.17692C11.6729 3.71821 12.0471 3.34399 12.5058 3.34399C12.9645 3.34399 13.3387 3.71821 13.3387 4.17692V5.84278C13.3387 6.3015 12.9645 6.67571 12.5058 6.67571Z" fill="#ffffff"/>
<path d="M12.5055 6.67557C12.252 6.67557 12.0226 6.55485 11.8657 6.37378" stroke="#ffffff" stroke-width="0.1" stroke-miterlimit="1" stroke-linecap="square"/>
<path d="M11.6729 4.99778V4.17692C11.6729 3.71821 12.0471 3.34399 12.5058 3.34399C12.9645 3.34399 13.3387 3.71821 13.3387 4.17692V5.71" stroke="#ffffff" stroke-width="0.1" stroke-miterlimit="1" stroke-linecap="square" stroke-dasharray="11.78 11.78"/>
<path d="M13.1456 6.37378C12.9887 6.55485 12.7594 6.67557 12.5059 6.67557" stroke="#ffffff" stroke-width="0.1" stroke-miterlimit="1" stroke-linecap="square"/>
<path d="M12.5058 21.6684C12.0471 21.6684 11.6729 21.2942 11.6729 20.8355V19.1696C11.6729 18.7109 12.0471 18.3367 12.5058 18.3367C12.9645 18.3367 13.3387 18.7109 13.3387 19.1696V20.8355C13.3387 21.2942 12.9645 21.6684 12.5058 21.6684Z" fill="#ffffff"/>
<path d="M12.5055 21.6682C12.252 21.6682 12.0226 21.5475 11.8657 21.3665" stroke="#ffffff" stroke-width="0.1" stroke-miterlimit="1" stroke-linecap="square"/>
<path d="M11.6729 19.9905V19.1696C11.6729 18.7109 12.0471 18.3367 12.5058 18.3367C12.9645 18.3367 13.3387 18.7109 13.3387 19.1696V20.7027" stroke="#ffffff" stroke-width="0.1" stroke-miterlimit="1" stroke-linecap="square" stroke-dasharray="11.78 11.78"/>
<path d="M13.1456 21.3665C12.9887 21.5475 12.7594 21.6682 12.5059 21.6682" stroke="#ffffff" stroke-width="0.1" stroke-miterlimit="1" stroke-linecap="square"/>
</g>
<defs>
<clipPath id="clip0_3313_1149">
<rect width="25" height="25" fill="white"/>
</clipPath>
</defs>
</svg>
