<svg width="15" height="16" viewBox="0 0 15 16" fill="none" xmlns="http://www.w3.org/2000/svg">
<g clip-path="url(#clip0_3329_1306)">
<path d="M14.4901 8.00468H14.4899L14.4903 8.0181C14.4922 8.08737 14.4301 8.17269 14.3186 8.17269H0.691244C0.568138 8.17269 0.5 8.08251 0.5 8.00468C0.5 7.92222 0.572885 7.83667 0.681369 7.83667H14.3088C14.4172 7.83667 14.4901 7.92222 14.4901 8.00468Z" fill="white" stroke="white"/>
<path d="M14.3186 8.67261H13.7261" stroke="white" stroke-width="0.1" stroke-miterlimit="1" stroke-linecap="square"/>
<path d="M12.5114 8.67269H0.691135C0.315888 8.67269 0.00976562 8.37257 0.00976562 8.00468C0.00976562 7.63679 0.315888 7.33667 0.691135 7.33667H14.3185C14.6543 7.33667 14.9308 7.56902 14.99 7.87882" fill="white"/>
<path d="M12.5114 8.67269H0.691135C0.315888 8.67269 0.00976562 8.37257 0.00976562 8.00468C0.00976562 7.63679 0.315888 7.33667 0.691135 7.33667H14.3185C14.6543 7.33667 14.9308 7.56902 14.99 7.87882" stroke="white" stroke-width="0.1" stroke-miterlimit="1" stroke-linecap="square" stroke-dasharray="12.29 12.29"/>
<path d="M14.8422 8.43066C14.7138 8.57588 14.5262 8.67269 14.3188 8.67269Z" fill="white"/>
<path d="M14.8422 8.43066C14.7138 8.57588 14.5262 8.67269 14.3188 8.67269" stroke="white" stroke-width="0.1" stroke-miterlimit="1" stroke-linecap="square"/>
<path d="M7.50461 14.8529C7.39613 14.8529 7.32324 14.7674 7.32324 14.6849V1.32475C7.32324 1.24229 7.39613 1.15674 7.50461 1.15674C7.6131 1.15674 7.68598 1.24229 7.68598 1.32475V14.6849C7.68598 14.7674 7.6131 14.8529 7.50461 14.8529Z" fill="white" stroke="white"/>
<path d="M7.50433 15.3529C7.29695 15.3529 7.10933 15.2561 6.98096 15.1108Z" fill="white"/>
<path d="M7.50433 15.3529C7.29695 15.3529 7.10933 15.2561 6.98096 15.1108" stroke="white" stroke-width="0.1" stroke-miterlimit="1" stroke-linecap="square"/>
<path d="M6.82324 13.9588V1.32475C6.82324 0.956858 7.12936 0.656738 7.50461 0.656738C7.87986 0.656738 8.18598 0.956858 8.18598 1.32475V14.5591" fill="white"/>
<path d="M6.82324 13.9588V1.32475C6.82324 0.956858 7.12936 0.656738 7.50461 0.656738C7.87986 0.656738 8.18598 0.956858 8.18598 1.32475V14.5591" stroke="white" stroke-width="0.1" stroke-miterlimit="1" stroke-linecap="square" stroke-dasharray="12.29 12.29"/>
<path d="M8.01849 15.1108C7.89011 15.2561 7.70249 15.3529 7.49512 15.3529Z" fill="white"/>
<path d="M8.01849 15.1108C7.89011 15.2561 7.70249 15.3529 7.49512 15.3529" stroke="white" stroke-width="0.1" stroke-miterlimit="1" stroke-linecap="square"/>
</g>
<defs>
<clipPath id="clip0_3329_1306">
<rect y="0.646973" width="15" height="14.7059" rx="2" fill="white"/>
</clipPath>
</defs>
</svg>
