<svg width="31" height="31" viewBox="0 0 31 31" fill="none" xmlns="http://www.w3.org/2000/svg">
<g clip-path="url(#clip0_3462_1572)">
<path d="M24.6692 8.20313V1.63477H5.45044V8.20313C4.24981 8.26466 3.11857 8.78458 2.29001 9.65566C1.46144 10.5267 0.99874 11.6826 0.997314 12.8848V24.1348H4.98169V22.2598H2.87231V12.8848C2.87315 12.1391 3.16974 11.4242 3.697 10.897C4.22427 10.3697 4.93915 10.0731 5.68481 10.0723H24.4348C25.1805 10.0731 25.8954 10.3697 26.4226 10.897C26.9499 11.4242 27.2465 12.1391 27.2473 12.8848V22.2598H24.6692V24.1348H29.1223V12.8848C29.1209 11.6826 28.6582 10.5267 27.8296 9.65566C27.0011 8.78458 25.8698 8.26466 24.6692 8.20313V8.20313ZM22.7942 8.19727H7.32544V3.50977H22.7942V8.19727Z" fill="black"/>
<path d="M23.2629 12.416H25.1379V14.291H23.2629V12.416Z" fill="black"/>
<path d="M6.85669 16.166H4.51294V18.041H6.85669V29.7598H22.7942V18.041H25.1379V16.166H6.85669ZM20.9192 27.8848H8.73169V18.041H20.9192V27.8848Z" fill="black"/>
</g>
<defs>
<clipPath id="clip0_3462_1572">
<rect width="30" height="30" fill="white" transform="translate(0.0598145 0.697266)"/>
</clipPath>
</defs>
</svg>
