<svg width="25" height="22" viewBox="0 0 25 22" fill="none" xmlns="http://www.w3.org/2000/svg">
<g clip-path="url(#clip0_3313_433)">
<path d="M12.832 4.18899C12.8079 4.18899 12.7837 4.18899 12.7596 4.18899C12.5906 4.17692 12.3975 4.17692 12.2285 4.18899C11.7697 4.2252 11.3714 3.8872 11.3352 3.42849C11.299 2.96977 11.637 2.57141 12.0957 2.5352C12.3492 2.51105 12.6389 2.51105 12.8924 2.5352C13.3511 2.57141 13.6891 2.96977 13.6529 3.42849C13.6287 3.86306 13.2666 4.18899 12.832 4.18899Z" fill="white"/>
<path d="M12.8322 4.18898C12.8081 4.18898 12.7839 4.18898 12.7598 4.18898C12.5908 4.17691 12.3976 4.17691 12.2286 4.18898C12.1924 4.18898 12.1441 4.18898 12.1079 4.18898" stroke="white" stroke-width="0.1" stroke-miterlimit="1" stroke-linecap="square"/>
<path d="M11.4561 2.92135C11.5888 2.70406 11.8303 2.54713 12.1079 2.52299C12.3614 2.49885 12.6511 2.49885 12.9046 2.52299C13.2426 2.54713 13.5203 2.77649 13.6289 3.09035" stroke="white" stroke-width="0.1" stroke-miterlimit="1" stroke-linecap="square" stroke-dasharray="14.12 14.12"/>
<path d="M13.4723 3.88721C13.3154 4.06828 13.086 4.18899 12.8325 4.18899" stroke="white" stroke-width="0.1" stroke-miterlimit="1" stroke-linecap="square"/>
<path d="M14.1717 2.80058C16.1152 3.48865 17.5035 5.35973 17.5035 7.50845C17.5035 7.76195 17.4793 8.00338 17.4552 8.24481C18.9158 7.89474 20.0022 6.57895 20.0022 5.00966C20.0022 3.17479 18.5054 1.67793 16.6705 1.67793C15.6927 1.67793 14.7994 2.08836 14.1717 2.80058ZM16.6705 10.0072C16.5257 10.0072 16.4049 9.99517 16.2722 9.9831C16.0066 9.95895 15.7652 9.8141 15.6203 9.58474C15.4875 9.35538 15.4634 9.07774 15.572 8.82424C15.7531 8.41381 15.8376 7.96716 15.8376 7.49638C15.8376 5.77016 14.4856 4.30951 12.7714 4.17673C12.5059 4.15258 12.2644 4.00773 12.1196 3.77837C11.9747 3.54901 11.9626 3.25929 12.0713 3.01787C12.868 1.183 14.6787 0 16.6705 0C19.4228 0 21.6681 2.24529 21.6681 4.99759C21.6681 7.76195 19.4228 10.0072 16.6705 10.0072Z" fill="white"/>
<path d="M14.1719 2.80054C14.4012 2.88504 14.6185 2.98161 14.8358 3.09025" stroke="white" stroke-width="0.1" stroke-miterlimit="1" stroke-linecap="square"/>
<path d="M16.248 4.20093C16.8395 4.87693 17.2621 5.70986 17.419 6.61522" stroke="white" stroke-width="0.1" stroke-miterlimit="1" stroke-linecap="square" stroke-dasharray="15.02 15.02"/>
<path d="M17.5034 7.52051C17.5034 7.76194 17.4792 8.00337 17.4551 8.2448C17.6965 8.18444 17.9259 8.09994 18.1311 8.00337" stroke="white" stroke-width="0.1" stroke-miterlimit="1" stroke-linecap="square"/>
<path d="M19.3385 7.00149C19.761 6.4462 20.0024 5.75813 20.0024 5.0097C20.0024 3.17484 18.5055 1.67798 16.6707 1.67798C16.224 1.67798 15.7895 1.76248 15.3911 1.93148" stroke="white" stroke-width="0.1" stroke-miterlimit="1" stroke-linecap="square" stroke-dasharray="13.08 13.08"/>
<path d="M14.703 2.30591C14.5099 2.45077 14.3288 2.60769 14.1719 2.78877" stroke="white" stroke-width="0.1" stroke-miterlimit="1" stroke-linecap="square"/>
<path d="M16.6702 10.0073C16.5254 10.0073 16.4047 9.99525 16.2719 9.98318C16.1632 9.97111 16.0546 9.94697 15.958 9.89868" stroke="white" stroke-width="0.1" stroke-miterlimit="1" stroke-linecap="square"/>
<path d="M15.6324 8.66745C15.7652 8.29323 15.8376 7.90694 15.8376 7.50859C15.8376 5.78237 14.4856 4.32172 12.7714 4.18893C12.5059 4.16479 12.2644 4.01993 12.1196 3.79057C11.9747 3.56122 11.9626 3.2715 12.0713 3.03007C12.868 1.19521 14.6787 0.012207 16.6705 0.012207C19.4228 0.012207 21.6681 2.2575 21.6681 5.00979C21.6681 7.27923 20.1592 9.18652 18.0829 9.80216" stroke="white" stroke-width="0.1" stroke-miterlimit="1" stroke-linecap="square" stroke-dasharray="11.81 11.81"/>
<path d="M17.3947 9.94727C17.1533 9.98348 16.9118 9.99555 16.6704 9.99555" stroke="white" stroke-width="0.1" stroke-miterlimit="1" stroke-linecap="square"/>
<path d="M11.3474 12.6147C11.0577 12.6147 10.7921 12.4698 10.6352 12.2163C10.4541 11.9146 10.4782 11.5404 10.6835 11.2627C10.768 11.1661 10.8525 11.0696 10.949 10.973C11.1542 10.7678 11.444 10.6954 11.7095 10.7436C11.9872 10.804 12.2407 10.8281 12.4942 10.8281C12.9529 10.8281 13.3271 11.2024 13.3271 11.6611C13.3271 12.1198 12.9529 12.494 12.4942 12.494C12.1441 12.494 11.8061 12.5302 11.5043 12.5906C11.456 12.6026 11.3957 12.6147 11.3474 12.6147Z" fill="white"/>
<path d="M11.3478 12.6149C11.1064 12.6149 10.8649 12.5063 10.708 12.3252" stroke="white" stroke-width="0.1" stroke-miterlimit="1" stroke-linecap="square"/>
<path d="M10.7563 11.1783C10.8167 11.1059 10.8891 11.0335 10.9616 10.961C11.1668 10.7558 11.4565 10.6834 11.7221 10.7317C11.9997 10.792 12.2532 10.8162 12.5067 10.8162C12.9654 10.8162 13.3396 11.1904 13.3396 11.6491C13.3396 12.0475 13.062 12.3855 12.6878 12.4579" stroke="white" stroke-width="0.1" stroke-miterlimit="1" stroke-linecap="square" stroke-dasharray="10.28 10.28"/>
<path d="M12.0597 12.5183C11.8666 12.5304 11.6855 12.5545 11.5045 12.5907C11.4441 12.6028 11.3958 12.6028 11.3354 12.6028" stroke="white" stroke-width="0.1" stroke-miterlimit="1" stroke-linecap="square"/>
<path d="M20.4728 17.5035H22.875C23.0078 17.5035 23.1044 17.407 23.1527 17.3466C23.2975 17.1776 23.3579 16.9241 23.3217 16.6706C22.694 12.8681 19.9779 10.0917 16.8272 10.0072C16.4892 10.5866 16.0426 11.0936 15.5114 11.492C17.8171 12.518 19.6399 14.715 20.4728 17.5035ZM22.875 19.1694H19.833C19.4467 19.1694 19.1087 18.9038 19.0242 18.5296C18.2879 15.4031 16.1271 13.0854 13.5076 12.6025C13.1937 12.5422 12.8557 12.506 12.4936 12.506C12.0349 12.506 11.6606 12.1317 11.6606 11.673C11.6606 11.2143 12.0349 10.8401 12.4936 10.8401C12.7471 10.8401 13.0006 10.816 13.2782 10.7556C14.2802 10.5142 15.1372 9.80195 15.5477 8.84831C15.6684 8.5586 15.946 8.37752 16.2478 8.35338C16.3806 8.34131 16.5134 8.34131 16.6582 8.34131C20.6901 8.34131 24.1788 11.7334 24.9513 16.405C25.072 17.1293 24.8789 17.8898 24.4202 18.433C24.0218 18.8918 23.4545 19.1694 22.875 19.1694Z" fill="white"/>
<path d="M20.4727 17.5037H21.1969" stroke="white" stroke-width="0.1" stroke-miterlimit="1" stroke-linecap="square"/>
<path d="M22.5377 17.5038H22.8757C23.0085 17.5038 23.1051 17.4072 23.1534 17.3469C23.2982 17.1779 23.3586 16.9244 23.3224 16.6709C22.7912 13.4357 20.7391 10.949 18.2041 10.2126" stroke="white" stroke-width="0.1" stroke-miterlimit="1" stroke-linecap="square" stroke-dasharray="11.1 11.1"/>
<path d="M17.5517 10.0798C17.3103 10.0435 17.0689 10.0194 16.8274 10.0073C16.7067 10.2125 16.5739 10.4178 16.417 10.6109" stroke="white" stroke-width="0.1" stroke-miterlimit="1" stroke-linecap="square"/>
<path d="M16.0549 11.009C15.8859 11.178 15.7049 11.335 15.5117 11.4798C15.729 11.5764 15.9463 11.685 16.1636 11.8058" stroke="white" stroke-width="0.1" stroke-miterlimit="1" stroke-linecap="square"/>
<path d="M17.25 12.5542C18.3968 13.4716 19.3504 14.7271 20.0023 16.1998" stroke="white" stroke-width="0.1" stroke-miterlimit="1" stroke-linecap="square" stroke-dasharray="10.91 10.91"/>
<path d="M20.2432 16.8157C20.3277 17.045 20.4001 17.2744 20.4725 17.5037" stroke="white" stroke-width="0.1" stroke-miterlimit="1" stroke-linecap="square"/>
<path d="M22.8752 19.1694H22.1509" stroke="white" stroke-width="0.1" stroke-miterlimit="1" stroke-linecap="square"/>
<path d="M20.6901 19.1694H19.833C19.4467 19.1694 19.1087 18.9038 19.0242 18.5296C18.2879 15.4031 16.1271 13.0854 13.5076 12.6025C13.1937 12.5422 12.8557 12.506 12.4936 12.506C12.0349 12.506 11.6606 12.1317 11.6606 11.673C11.6606 11.2143 12.0349 10.8401 12.4936 10.8401C12.7471 10.8401 13.0006 10.816 13.2782 10.7556C14.2802 10.5142 15.1372 9.80195 15.5477 8.84831C15.6684 8.5586 15.946 8.37752 16.2478 8.35338C16.3806 8.34131 16.5134 8.34131 16.6582 8.34131C20.6901 8.34131 24.1788 11.7334 24.9513 16.405C25.072 17.1293 24.8789 17.8898 24.4202 18.433C24.3478 18.5175 24.2753 18.59 24.1908 18.6624" stroke="white" stroke-width="0.1" stroke-miterlimit="1" stroke-linecap="square" stroke-dasharray="12.12 12.12"/>
<path d="M23.5872 19.0366C23.3579 19.1211 23.1285 19.1694 22.875 19.1694" stroke="white" stroke-width="0.1" stroke-miterlimit="1" stroke-linecap="square"/>
<path d="M8.34085 1.67807C6.50599 1.67807 5.00913 3.17493 5.00913 5.00979C5.00913 6.57908 6.09556 7.89487 7.55621 8.24494C7.51999 8.00352 7.50792 7.75001 7.50792 7.50858C7.50792 5.35987 8.89614 3.48879 10.8396 2.80071C10.2119 2.0885 9.30657 1.67807 8.34085 1.67807ZM8.34085 10.0074C5.58856 10.0074 3.34326 7.76209 3.34326 5.00979C3.34326 2.2575 5.58856 0.012207 8.34085 0.012207C10.3326 0.012207 12.1434 1.19521 12.9401 3.03007C13.0487 3.2715 13.0246 3.56122 12.8918 3.79057C12.759 4.01993 12.5055 4.17686 12.2399 4.18893C10.5137 4.32172 9.17378 5.78237 9.17378 7.50858C9.17378 7.9673 9.25828 8.41394 9.43936 8.83645C9.548 9.07788 9.52386 9.36759 9.39107 9.59695C9.24621 9.82631 9.01685 9.97116 8.73921 9.99531C8.60642 9.99531 8.47364 10.0074 8.34085 10.0074Z" fill="white"/>
<path d="M8.34001 1.67798C8.09858 1.67798 7.85715 1.70212 7.61572 1.75041" stroke="white" stroke-width="0.1" stroke-miterlimit="1" stroke-linecap="square"/>
<path d="M6.15544 2.48682C5.44323 3.10246 4.99658 4.00782 4.99658 5.00975C4.99658 6.02375 5.4553 6.94119 6.17959 7.55683" stroke="white" stroke-width="0.1" stroke-miterlimit="1" stroke-linecap="square" stroke-dasharray="13.63 13.63"/>
<path d="M6.87939 8.00337C7.09668 8.11201 7.32604 8.19651 7.5554 8.2448C7.51919 8.00337 7.50712 7.76194 7.50712 7.52051" stroke="white" stroke-width="0.1" stroke-miterlimit="1" stroke-linecap="square"/>
<path d="M7.82129 5.7461C8.14722 4.88903 8.70251 4.1406 9.41472 3.57324" stroke="white" stroke-width="0.1" stroke-miterlimit="1" stroke-linecap="square" stroke-dasharray="15.02 15.02"/>
<path d="M10.1753 3.0902C10.3926 2.98156 10.6099 2.88499 10.8392 2.80049C10.6823 2.61941 10.5012 2.46248 10.3081 2.31763" stroke="white" stroke-width="0.1" stroke-miterlimit="1" stroke-linecap="square"/>
<path d="M9.05241 1.75041C8.82305 1.70212 8.58163 1.67798 8.32812 1.67798" stroke="white" stroke-width="0.1" stroke-miterlimit="1" stroke-linecap="square"/>
<path d="M8.34099 10.0073C8.09956 10.0073 7.85813 9.9952 7.6167 9.95898" stroke="white" stroke-width="0.1" stroke-miterlimit="1" stroke-linecap="square"/>
<path d="M6.25249 9.54866C4.53834 8.75194 3.34326 7.01365 3.34326 5.00979C3.34326 2.2575 5.58856 0.012207 8.34085 0.012207C10.3326 0.012207 12.1434 1.19521 12.9401 3.03007C13.0487 3.2715 13.0246 3.56122 12.8918 3.79057C12.759 4.01993 12.5055 4.17686 12.2399 4.18893C10.5137 4.32172 9.17378 5.78237 9.17378 7.50858C9.17378 7.9673 9.25828 8.41394 9.43936 8.83645C9.51178 9.00545 9.52386 9.18652 9.47557 9.36759" stroke="white" stroke-width="0.1" stroke-miterlimit="1" stroke-linecap="square" stroke-dasharray="11.81 11.81"/>
<path d="M9.04132 9.89868C8.94475 9.94697 8.8361 9.98318 8.72746 9.98318C8.59467 9.99525 8.46189 10.0073 8.3291 10.0073" stroke="white" stroke-width="0.1" stroke-miterlimit="1" stroke-linecap="square"/>
<path d="M12.5062 12.506C12.1562 12.506 11.8182 12.5422 11.5164 12.6025C8.88479 13.0854 6.72399 15.4152 5.98763 18.5296C5.93935 18.7348 5.90313 18.928 5.86692 19.1211C5.81863 19.4229 5.87899 19.6764 6.02385 19.8454C6.07213 19.9058 6.16871 20.0023 6.30149 20.0023H18.711C18.8437 20.0023 18.9403 19.9058 18.9886 19.8454C19.1335 19.6764 19.1938 19.4229 19.1576 19.1694C19.1093 18.928 19.0852 18.7228 19.0369 18.5417C18.3005 15.4031 16.1397 13.0733 13.5202 12.5905C13.1943 12.5301 12.8563 12.506 12.5062 12.506ZM18.711 21.6682H6.30149C5.70999 21.6682 5.1547 21.3906 4.74427 20.9198C4.28556 20.3766 4.08034 19.616 4.21313 18.8918C4.26142 18.59 4.3097 18.3485 4.37006 18.1192C5.25128 14.365 7.93114 11.5523 11.2025 10.9488C11.9992 10.7918 13.0012 10.7918 13.8341 10.9488C17.0934 11.5403 19.7732 14.365 20.6545 18.1313C20.7027 18.3365 20.751 18.5779 20.7993 18.8073C20.9321 19.604 20.739 20.3645 20.2802 20.9077C19.8577 21.3906 19.2904 21.6682 18.711 21.6682Z" fill="white"/>
<path d="M12.506 12.5059C12.2525 12.5059 12.0111 12.5179 11.7817 12.5542" stroke="white" stroke-width="0.1" stroke-miterlimit="1" stroke-linecap="square"/>
<path d="M10.3695 12.9284C8.25697 13.7855 6.60318 15.8618 5.97546 18.5296C5.92718 18.7348 5.89096 18.9279 5.85475 19.1211C5.80646 19.4229 5.86682 19.6764 6.01168 19.8454C6.05996 19.9057 6.15654 20.0023 6.28932 20.0023H18.7109C18.8436 20.0023 18.9402 19.9057 18.9885 19.8454C19.1334 19.6764 19.1937 19.4229 19.1575 19.1694C19.1092 18.9279 19.0851 18.7227 19.0368 18.5417C18.3366 15.5721 16.369 13.3268 13.9426 12.687" stroke="white" stroke-width="0.1" stroke-miterlimit="1" stroke-linecap="square" stroke-dasharray="12.07 12.07"/>
<path d="M13.2302 12.5542C13.0008 12.5179 12.7594 12.5059 12.5059 12.5059" stroke="white" stroke-width="0.1" stroke-miterlimit="1" stroke-linecap="square"/>
<path d="M18.7111 21.6685H17.9868" stroke="white" stroke-width="0.1" stroke-miterlimit="1" stroke-linecap="square"/>
<path d="M16.5622 21.6682H6.30149C5.70999 21.6682 5.1547 21.3906 4.74427 20.9198C4.28556 20.3766 4.08034 19.616 4.21313 18.8918C4.26142 18.59 4.3097 18.3485 4.37006 18.1192C5.25128 14.365 7.93114 11.5523 11.2025 10.9488C11.9992 10.7918 13.0012 10.7918 13.8341 10.9488C17.0934 11.5403 19.7732 14.365 20.6545 18.1313C20.7027 18.3365 20.751 18.5779 20.7993 18.8073C20.9321 19.604 20.739 20.3645 20.2802 20.9077C20.2078 20.9922 20.1233 21.0767 20.0388 21.1491" stroke="white" stroke-width="0.1" stroke-miterlimit="1" stroke-linecap="square" stroke-dasharray="11.75 11.75"/>
<path d="M19.4109 21.5354C19.1816 21.6199 18.9402 21.6682 18.6987 21.6682" stroke="white" stroke-width="0.1" stroke-miterlimit="1" stroke-linecap="square"/>
<path d="M8.17254 10.0073C5.02189 10.1039 2.30581 12.8682 1.69016 16.6707C1.64188 16.9242 1.71431 17.1777 1.85916 17.3467C1.90745 17.4071 2.00402 17.5037 2.13681 17.5037H4.53903C5.37196 14.7151 7.19475 12.5302 9.5004 11.4921C8.95718 11.0937 8.51054 10.5867 8.17254 10.0073ZM5.16674 19.1695H2.12473C1.53323 19.1695 0.977946 18.8919 0.567516 18.4211C0.108801 17.8779 -0.0964143 17.1174 0.0363718 16.3931C0.808945 11.7214 4.2976 8.32935 8.32947 8.32935C8.46225 8.32935 8.59504 8.32935 8.7399 8.34142C9.05375 8.36556 9.31933 8.5587 9.44004 8.83635C9.86254 9.78999 10.7196 10.5022 11.7336 10.7436C12.0113 10.804 12.2648 10.8281 12.5062 10.8281C12.9649 10.8281 13.3391 11.2024 13.3391 11.6611C13.3391 12.1198 12.9649 12.494 12.5062 12.494C12.1561 12.494 11.8181 12.5302 11.5163 12.5906C8.88475 13.0734 6.72396 15.4032 5.9876 18.5177C5.89103 18.9039 5.55303 19.1695 5.16674 19.1695Z" fill="white"/>
<path d="M8.17302 10.0071C7.93159 10.0192 7.69016 10.0433 7.44873 10.0795" stroke="white" stroke-width="0.1" stroke-miterlimit="1" stroke-linecap="square"/>
<path d="M6.1687 10.4419C3.92341 11.3714 2.17305 13.7133 1.69019 16.6708C1.6419 16.9243 1.71433 17.1778 1.85919 17.3468C1.90748 17.4071 2.00405 17.5037 2.13683 17.5037H3.13877" stroke="white" stroke-width="0.1" stroke-miterlimit="1" stroke-linecap="square" stroke-dasharray="11.1 11.1"/>
<path d="M3.80225 17.5035H4.52653C4.59896 17.2741 4.67139 17.0448 4.75589 16.8154" stroke="white" stroke-width="0.1" stroke-miterlimit="1" stroke-linecap="square"/>
<path d="M5.2876 15.6083C6.02396 14.1839 7.0621 13.0009 8.28131 12.168" stroke="white" stroke-width="0.1" stroke-miterlimit="1" stroke-linecap="square" stroke-dasharray="10.91 10.91"/>
<path d="M8.84863 11.818C9.05385 11.6972 9.27113 11.5886 9.48842 11.492C9.29528 11.3472 9.1142 11.1902 8.9452 11.0212" stroke="white" stroke-width="0.1" stroke-miterlimit="1" stroke-linecap="square"/>
<path d="M8.58328 10.5987C8.43842 10.4055 8.29357 10.2124 8.17285 9.99512" stroke="white" stroke-width="0.1" stroke-miterlimit="1" stroke-linecap="square"/>
<path d="M5.16667 19.1694H4.44238" stroke="white" stroke-width="0.1" stroke-miterlimit="1" stroke-linecap="square"/>
<path d="M2.98181 19.1695H2.12473C1.53323 19.1695 0.977946 18.8919 0.567516 18.4211C0.108801 17.8779 -0.0964143 17.1174 0.0363718 16.3931C0.808945 11.7214 4.2976 8.32935 8.32947 8.32935C8.46225 8.32935 8.59504 8.32935 8.7399 8.34142C9.05375 8.36556 9.31933 8.5587 9.44004 8.83635C9.86254 9.78999 10.7196 10.5022 11.7336 10.7436C12.0113 10.804 12.2648 10.8281 12.5062 10.8281C12.9649 10.8281 13.3391 11.2024 13.3391 11.6611C13.3391 12.1198 12.9649 12.494 12.5062 12.494C12.1561 12.494 11.8181 12.5302 11.5163 12.5906C8.98133 13.0493 6.88089 15.2342 6.0721 18.1917" stroke="white" stroke-width="0.1" stroke-miterlimit="1" stroke-linecap="square" stroke-dasharray="12.12 12.12"/>
<path d="M5.80629 18.8677C5.64936 19.0487 5.42 19.1695 5.1665 19.1695" stroke="white" stroke-width="0.1" stroke-miterlimit="1" stroke-linecap="square"/>
</g>
<defs>
<clipPath id="clip0_3313_433">
<rect width="25" height="21.6683" fill="white"/>
</clipPath>
</defs>
</svg>
