<svg width="25" height="26" viewBox="0 0 25 26" fill="none" xmlns="http://www.w3.org/2000/svg">
<g clip-path="url(#clip0_3313_512)">
<path d="M22.1149 25.3499H2.89715C1.30372 25.3499 0 24.0582 0 22.4648V9.07756C0 8.61884 0.374215 8.24463 0.832931 8.24463C1.29165 8.24463 1.66586 8.61884 1.66586 9.07756V22.4648C1.66586 23.1408 2.20908 23.684 2.88508 23.684H22.1028C22.7789 23.684 23.3221 23.1408 23.3221 22.4648V9.07756C23.3221 8.61884 23.6963 8.24463 24.155 8.24463C24.6137 8.24463 24.9879 8.61884 24.9879 9.07756V22.4648C25 24.0582 23.7084 25.3499 22.1149 25.3499Z" fill="#ffffff"/>
<path d="M22.1144 25.3501H21.3901" stroke="#ffffff" stroke-width="0.1" stroke-miterlimit="1" stroke-linecap="square"/>
<path d="M19.9417 25.3499H2.8968C1.30337 25.3499 0.0117188 24.0582 0.0117188 22.4648V9.07756C0.0117188 8.61884 0.385934 8.24463 0.84465 8.24463C1.30337 8.24463 1.67758 8.61884 1.67758 9.07756V22.4648C1.67758 23.1408 2.2208 23.684 2.8968 23.684H22.1146C22.7906 23.684 23.3338 23.1408 23.3338 22.4648V9.07756C23.3338 8.61884 23.708 8.24463 24.1667 8.24463C24.6254 8.24463 24.9996 8.61884 24.9996 9.07756V22.4648C24.9996 23.5512 24.3961 24.5049 23.5028 24.9998" stroke="#ffffff" stroke-width="0.1" stroke-miterlimit="1" stroke-linecap="square" stroke-dasharray="12 12"/>
<path d="M22.8265 25.2654C22.5971 25.3257 22.3557 25.3499 22.1143 25.3499" stroke="#ffffff" stroke-width="0.1" stroke-miterlimit="1" stroke-linecap="square"/>
<path d="M20.9325 11.9748C20.6307 11.9748 20.3289 11.8058 20.184 11.5161C19.9788 11.1056 20.1478 10.5986 20.5583 10.3934L23.7934 8.77584C24.2038 8.57062 24.6988 8.73962 24.916 9.15005C25.1213 9.56048 24.9523 10.0675 24.5418 10.2727L21.3067 11.8903C21.186 11.9386 21.0653 11.9748 20.9325 11.9748Z" fill="#ffffff"/>
<path d="M20.9328 11.9748C20.6913 11.9748 20.4499 11.8661 20.293 11.6851" stroke="#ffffff" stroke-width="0.1" stroke-miterlimit="1" stroke-linecap="square"/>
<path d="M20.6187 10.3572L23.7934 8.77584C24.2039 8.57062 24.6988 8.73962 24.9161 9.15005C25.1213 9.56048 24.9523 10.0675 24.5419 10.2727L22.3207 11.3833" stroke="#ffffff" stroke-width="0.1" stroke-miterlimit="1" stroke-linecap="square" stroke-dasharray="13.03 13.03"/>
<path d="M21.6091 11.7334L21.3073 11.8903C21.1866 11.9507 21.0659 11.9748 20.9331 11.9748" stroke="#ffffff" stroke-width="0.1" stroke-miterlimit="1" stroke-linecap="square"/>
<path d="M5.78229 12.8322C5.66158 12.8322 5.52879 12.8081 5.40808 12.7477L0.470854 10.261C0.0604248 10.0558 -0.108575 9.56084 0.0966392 9.13834C0.301854 8.72791 0.808855 8.5589 1.21928 8.76412L6.16858 11.2388C6.57901 11.444 6.74801 11.951 6.54279 12.3614C6.38586 12.6632 6.09615 12.8322 5.78229 12.8322Z" fill="#ffffff"/>
<path d="M5.78245 12.832C5.66173 12.832 5.52895 12.8078 5.40823 12.7475L5.10645 12.5906" stroke="#ffffff" stroke-width="0.1" stroke-miterlimit="1" stroke-linecap="square"/>
<path d="M3.91122 11.9872L0.470855 10.261C0.0604249 10.0558 -0.108576 9.56084 0.0966393 9.13833C0.301854 8.72791 0.808856 8.55891 1.21929 8.76412L6.16858 11.2388C6.43416 11.3716 6.59109 11.6251 6.6273 11.8906" stroke="#ffffff" stroke-width="0.1" stroke-miterlimit="1" stroke-linecap="square" stroke-dasharray="11.18 11.18"/>
<path d="M6.42201 12.5303C6.26509 12.7234 6.02366 12.82 5.78223 12.82" stroke="#ffffff" stroke-width="0.1" stroke-miterlimit="1" stroke-linecap="square"/>
<path d="M0.844709 9.52439C0.554994 9.52439 0.277351 9.37953 0.120422 9.10189C-0.108936 8.70353 0.0359214 8.19653 0.43428 7.96717L6.44587 4.53888C6.84423 4.30952 7.35123 4.45438 7.58059 4.85274C7.80994 5.25109 7.66509 5.75809 7.26673 5.98745L1.25514 9.41574C1.12235 9.48817 0.977495 9.52439 0.844709 9.52439Z" fill="#ffffff"/>
<path d="M0.844867 9.52433C0.603437 9.52433 0.374079 9.41569 0.205078 9.23462" stroke="#ffffff" stroke-width="0.1" stroke-miterlimit="1" stroke-linecap="square"/>
<path d="M0.337891 8.02754C0.362034 8.00339 0.398248 7.97925 0.422391 7.96718L6.43398 4.53888C6.83234 4.30952 7.33934 4.45438 7.5687 4.85274C7.79805 5.2511 7.6532 5.7581 7.25484 5.98746L2.10032 8.9329" stroke="#ffffff" stroke-width="0.1" stroke-miterlimit="1" stroke-linecap="square" stroke-dasharray="11.23 11.23"/>
<path d="M1.50915 9.27075L1.25564 9.41561C1.12286 9.48804 0.978001 9.52425 0.845215 9.52425" stroke="#ffffff" stroke-width="0.1" stroke-miterlimit="1" stroke-linecap="square"/>
<path d="M24.167 9.52441C24.0221 9.52441 23.8893 9.48819 23.7566 9.41576L21.2336 7.96719C20.8352 7.73783 20.6904 7.23083 20.9197 6.83247C21.1491 6.43411 21.6561 6.28926 22.0545 6.51861L24.5774 7.96719C24.9758 8.19655 25.1206 8.70355 24.8913 9.10191C24.7343 9.36748 24.4567 9.52441 24.167 9.52441Z" fill="#ffffff"/>
<path d="M24.1669 9.52425C24.022 9.52425 23.8892 9.48804 23.7564 9.41561L23.5029 9.27075" stroke="#ffffff" stroke-width="0.1" stroke-miterlimit="1" stroke-linecap="square"/>
<path d="M22.308 8.58285L21.2336 7.9672C20.8352 7.73784 20.6904 7.23084 20.9197 6.83247C21.1491 6.43411 21.6561 6.28926 22.0545 6.51862L24.5774 7.9672C24.8188 8.09998 24.9637 8.34141 24.9878 8.59492" stroke="#ffffff" stroke-width="0.1" stroke-miterlimit="1" stroke-linecap="square" stroke-dasharray="11.34 11.34"/>
<path d="M24.8063 9.2229C24.6494 9.41604 24.4079 9.51262 24.1665 9.51262" stroke="#ffffff" stroke-width="0.1" stroke-miterlimit="1" stroke-linecap="square"/>
<path d="M6.71221 11.5284L12.5065 14.4256L20.196 10.5869L20.8841 6.82057L18.5543 3.5492L8.23321 1.79884L6.71221 11.5284ZM12.5065 16.188C12.3737 16.188 12.253 16.1639 12.1323 16.1035L5.42056 12.7477C5.09463 12.5907 4.91356 12.2286 4.97392 11.8785L6.71221 0.712409C6.74842 0.495123 6.86914 0.289908 7.05021 0.169193C7.23128 0.0364071 7.46064 -0.0118787 7.67792 0.0243357L19.17 1.96784C19.3872 2.00406 19.5804 2.12477 19.7132 2.30584L22.4413 6.14457C22.5741 6.32564 22.6224 6.555 22.5862 6.78436L21.7532 11.2991C21.705 11.5526 21.536 11.7819 21.3066 11.8906L12.8807 16.1035C12.76 16.1518 12.6272 16.188 12.5065 16.188Z" fill="#ffffff"/>
<path d="M11.854 14.0999L12.5059 14.4258L13.1456 14.0999" stroke="#ffffff" stroke-width="0.1" stroke-miterlimit="1" stroke-linecap="square"/>
<path d="M14.4258 13.4598L18.9043 11.2266" stroke="#ffffff" stroke-width="0.1" stroke-miterlimit="1" stroke-linecap="square" stroke-dasharray="11.84 11.84"/>
<path d="M19.5444 10.9007L20.1963 10.5748L20.317 9.86255" stroke="#ffffff" stroke-width="0.1" stroke-miterlimit="1" stroke-linecap="square"/>
<path d="M20.4614 9.09012L20.6787 7.91919" stroke="#ffffff" stroke-width="0.1" stroke-miterlimit="1" stroke-linecap="square" stroke-dasharray="6.56 6.56"/>
<path d="M20.7511 7.53297L20.8839 6.82075L20.4614 6.22925" stroke="#ffffff" stroke-width="0.1" stroke-miterlimit="1" stroke-linecap="square"/>
<path d="M19.6287 5.04608L18.5544 3.54922L9.65771 2.04028" stroke="#ffffff" stroke-width="0.1" stroke-miterlimit="1" stroke-linecap="square" stroke-dasharray="12 12"/>
<path d="M8.94475 1.91954L8.23253 1.79883L8.11182 2.52312" stroke="#ffffff" stroke-width="0.1" stroke-miterlimit="1" stroke-linecap="square"/>
<path d="M7.85849 4.177L6.95312 9.98337" stroke="#ffffff" stroke-width="0.1" stroke-miterlimit="1" stroke-linecap="square" stroke-dasharray="13.9 13.9"/>
<path d="M6.82056 10.804L6.71191 11.5282L7.35171 11.8421" stroke="#ffffff" stroke-width="0.1" stroke-miterlimit="1" stroke-linecap="square"/>
<path d="M8.84814 12.6028L11.1055 13.7254" stroke="#ffffff" stroke-width="0.1" stroke-miterlimit="1" stroke-linecap="square" stroke-dasharray="13.9 13.9"/>
<path d="M12.5061 16.1882C12.3733 16.1882 12.2526 16.1641 12.1319 16.1037L11.8301 15.9468" stroke="#ffffff" stroke-width="0.1" stroke-miterlimit="1" stroke-linecap="square"/>
<path d="M10.5509 15.3068L5.42056 12.7356C5.09463 12.5787 4.91356 12.2165 4.97392 11.8664L6.71221 0.712409C6.74842 0.495123 6.86914 0.289908 7.05021 0.169193C7.23128 0.0364071 7.46064 -0.0118787 7.67792 0.0243357L19.17 1.96784C19.3872 2.00406 19.5804 2.12477 19.7132 2.30584L22.4413 6.14457C22.5741 6.32564 22.6224 6.555 22.5862 6.78436L21.7532 11.2991C21.705 11.5526 21.536 11.7819 21.3066 11.8906L13.8223 15.6327" stroke="#ffffff" stroke-width="0.1" stroke-miterlimit="1" stroke-linecap="square" stroke-dasharray="11.86 11.86"/>
<path d="M13.1819 15.9468L12.8801 16.1037C12.7594 16.1641 12.6386 16.1882 12.5059 16.1882" stroke="#ffffff" stroke-width="0.1" stroke-miterlimit="1" stroke-linecap="square"/>
<path d="M17.5643 7.53258C17.516 7.53258 17.4677 7.53258 17.4195 7.5205L9.85065 6.24093C9.39193 6.1685 9.09015 5.73393 9.16258 5.27521C9.235 4.81649 9.65751 4.51471 10.1283 4.58714L17.6971 5.86671C18.1558 5.93914 18.4576 6.37371 18.3852 6.83243C18.3127 7.24286 17.9627 7.53258 17.5643 7.53258Z" fill="#ffffff"/>
<path d="M17.5641 7.53272C17.5158 7.53272 17.4676 7.53272 17.4193 7.52065L16.8398 7.42407" stroke="#ffffff" stroke-width="0.1" stroke-miterlimit="1" stroke-linecap="square"/>
<path d="M15.3915 7.17043L9.85065 6.24093C9.39193 6.1685 9.09015 5.73393 9.16258 5.27521C9.235 4.81649 9.65751 4.51471 10.1283 4.58714L17.6971 5.86671C18.0472 5.92707 18.3127 6.20471 18.3731 6.53064" stroke="#ffffff" stroke-width="0.1" stroke-miterlimit="1" stroke-linecap="square" stroke-dasharray="12.19 12.19"/>
<path d="M18.192 7.23096C18.0351 7.41202 17.8057 7.53274 17.5522 7.53274" stroke="#ffffff" stroke-width="0.1" stroke-miterlimit="1" stroke-linecap="square"/>
<path d="M16.7313 10.8644C16.683 10.8644 16.6347 10.8644 16.5865 10.8523L9.01764 9.57272C8.55893 9.50029 8.25714 9.06571 8.32957 8.607C8.402 8.14828 8.8245 7.84649 9.29529 7.91892L16.8641 9.1985C17.3228 9.27093 17.6246 9.7055 17.5522 10.1642C17.4798 10.5746 17.1297 10.8644 16.7313 10.8644Z" fill="#ffffff"/>
<path d="M16.7311 10.8643C16.6828 10.8643 16.6346 10.8643 16.5863 10.8522L16.0068 10.7556" stroke="#ffffff" stroke-width="0.1" stroke-miterlimit="1" stroke-linecap="square"/>
<path d="M14.5584 10.5022L9.01764 9.57272C8.55892 9.50029 8.25714 9.06571 8.32957 8.607C8.402 8.14828 8.8245 7.84649 9.29528 7.91892L16.8641 9.1985C17.2142 9.25886 17.4797 9.5365 17.5401 9.86243" stroke="#ffffff" stroke-width="0.1" stroke-miterlimit="1" stroke-linecap="square" stroke-dasharray="12.19 12.19"/>
<path d="M17.359 10.5627C17.2021 10.7438 16.9727 10.8645 16.7192 10.8645" stroke="#ffffff" stroke-width="0.1" stroke-miterlimit="1" stroke-linecap="square"/>
</g>
<defs>
<clipPath id="clip0_3313_512">
<rect width="25" height="25.3621" fill="white"/>
</clipPath>
</defs>
</svg>
