<svg width="40" height="40" viewBox="0 0 40 40" fill="none" xmlns="http://www.w3.org/2000/svg">
<circle cx="20" cy="20" r="20" fill="#FBA72A"/>
<path d="M13.2863 11.4287C12.3391 11.4287 11.4307 11.805 10.7609 12.4748C10.0911 13.1445 9.71484 14.0529 9.71484 15.0001V25.0001C9.71484 25.9473 10.0911 26.8557 10.7609 27.5255C11.4307 28.1953 12.3391 28.5716 13.2863 28.5716H23.2863C24.2335 28.5716 25.1419 28.1953 25.8117 27.5255C26.4814 26.8557 26.8577 25.9473 26.8577 25.0001V23.5716L30.2863 26.143C30.4985 26.3022 30.7509 26.3991 31.0151 26.4229C31.2794 26.4468 31.545 26.3965 31.7823 26.2779C32.0196 26.1592 32.2192 25.9769 32.3586 25.7512C32.4981 25.5255 32.572 25.2654 32.572 25.0001V15.0001C32.572 14.7348 32.4981 14.4748 32.3586 14.2491C32.2192 14.0234 32.0196 13.841 31.7823 13.7224C31.545 13.6037 31.2794 13.5535 31.0151 13.5773C30.7509 13.6012 30.4985 13.6981 30.2863 13.8573L26.8577 16.4287V15.0001C26.8577 14.0529 26.4814 13.1445 25.8117 12.4748C25.1419 11.805 24.2335 11.4287 23.2863 11.4287H13.2863ZM26.8577 18.2144L31.1434 15.0001V25.0001L26.8577 21.7859V18.2144ZM25.4291 15.0001V25.0001C25.4291 25.5685 25.2034 26.1135 24.8015 26.5154C24.3996 26.9172 23.8546 27.143 23.2863 27.143H13.2863C12.718 27.143 12.1729 26.9172 11.771 26.5154C11.3692 26.1135 11.1434 25.5685 11.1434 25.0001V15.0001C11.1434 14.4318 11.3692 13.8868 11.771 13.4849C12.1729 13.083 12.718 12.8573 13.2863 12.8573H23.2863C23.8546 12.8573 24.3996 13.083 24.8015 13.4849C25.2034 13.8868 25.4291 14.4318 25.4291 15.0001Z" fill="white"/>
</svg>
