<svg width="23" height="20" viewBox="0 0 23 20" fill="none" xmlns="http://www.w3.org/2000/svg">
<path d="M11.4041 20C11.1474 19.9998 10.9012 19.8976 10.7198 19.7159L1.97872 10.949C0.795856 9.74226 0.133301 8.11981 0.133301 6.43C0.133301 4.74019 0.795856 3.11773 1.97872 1.91097C3.17729 0.712526 4.80282 0.0392591 6.49775 0.0392591C8.19269 0.0392591 9.81822 0.712526 11.0168 1.91097L11.4041 2.24667L11.7657 1.88514C12.3583 1.28605 13.0641 0.810847 13.8422 0.487213C14.6203 0.163579 15.4549 -0.00201848 16.2976 6.37636e-05C17.1394 -0.00370766 17.9735 0.159858 18.7515 0.481255C19.5295 0.802652 20.2359 1.27547 20.8295 1.87223C22.0124 3.079 22.675 4.70145 22.675 6.39126C22.675 8.08108 22.0124 9.70353 20.8295 10.9103L12.0884 19.6772C12.0019 19.7742 11.8967 19.8527 11.7791 19.9082C11.6615 19.9637 11.534 19.9949 11.4041 20ZM6.51067 1.92388C5.92426 1.91961 5.34282 2.03151 4.79989 2.25311C4.25695 2.47472 3.76328 2.80165 3.34735 3.21503C2.50922 4.05706 2.0387 5.19676 2.0387 6.38481C2.0387 7.57286 2.50922 8.71255 3.34735 9.55458L11.4041 17.663L19.448 9.58041C19.8646 9.16431 20.195 8.67019 20.4205 8.1263C20.6459 7.5824 20.762 6.9994 20.762 6.41063C20.762 5.82186 20.6459 5.23886 20.4205 4.69497C20.195 4.15107 19.8646 3.65695 19.448 3.24085C19.0353 2.82669 18.5441 2.49914 18.0031 2.27742C17.4621 2.0557 16.8822 1.94428 16.2976 1.9497C15.7112 1.94543 15.1297 2.05733 14.5868 2.27894C14.0439 2.50054 13.5502 2.82747 13.1343 3.24085L12.0884 4.28669C11.9037 4.46196 11.6588 4.55967 11.4041 4.55967C11.1495 4.55967 10.9045 4.46196 10.7198 4.28669L9.67399 3.24085C9.26019 2.82281 8.76747 2.49112 8.22444 2.26504C7.68141 2.03896 7.09888 1.923 6.51067 1.92388Z" fill="white"/>
</svg>
