<svg width="27" height="20" viewBox="0 0 27 20" fill="none" xmlns="http://www.w3.org/2000/svg">
<path d="M25.9698 9.5556C25.7921 9.17041 21.7328 6.29391e-06 13.0957 6.29391e-06C12.2687 -0.000864151 11.444 0.0885546 10.6364 0.266674C10.3704 0.349018 10.145 0.528246 10.0049 0.768871C9.86472 1.0095 9.82003 1.29398 9.87965 1.56598C9.93927 1.83799 10.0988 2.0777 10.3268 2.23765C10.5547 2.39759 10.8344 2.46611 11.1105 2.42965C11.7635 2.29318 12.4286 2.22368 13.0957 2.22224C19.2883 2.22224 22.8439 8.29634 23.718 10C23.1851 11.0412 22.5604 12.0328 21.8513 12.963C21.7239 13.127 21.6451 13.3234 21.6237 13.5299C21.6023 13.7365 21.6392 13.9449 21.7302 14.1315C21.8212 14.3181 21.9626 14.4755 22.1385 14.5858C22.3144 14.6961 22.5177 14.755 22.7254 14.7556C22.8941 14.7551 23.0605 14.7161 23.212 14.6417C23.3634 14.5672 23.496 14.4593 23.5995 14.326C24.5326 13.141 25.3278 11.8537 25.9698 10.4889C26.0347 10.3419 26.0683 10.183 26.0683 10.0223C26.0683 9.86156 26.0347 9.70262 25.9698 9.5556V9.5556Z" fill="black"/>
<path d="M4.99209 0.326531C4.78146 0.130264 4.50288 0.0234146 4.21502 0.0284934C3.92717 0.0335723 3.65252 0.150183 3.44894 0.353758C3.24537 0.557334 3.12876 0.83198 3.12368 1.11983C3.1186 1.40769 3.22545 1.68628 3.42172 1.89691L4.78469 3.25988C2.85473 5.03531 1.30278 7.18184 0.221704 9.57101C0.163438 9.70935 0.133423 9.85795 0.133423 10.0081C0.133423 10.1582 0.163438 10.3068 0.221704 10.4451C0.399482 10.8303 4.45876 20.0007 13.0958 20.0007C15.4059 20.0121 17.6682 19.3422 19.5996 18.0748L21.1996 19.6748C21.4079 19.8828 21.6903 19.9997 21.9848 19.9997C22.2792 19.9997 22.5616 19.8828 22.7699 19.6748C22.978 19.4664 23.0949 19.184 23.0949 18.8896C23.0949 18.5951 22.978 18.3127 22.7699 18.1044L4.99209 0.326531ZM10.6662 9.21546L13.9403 12.5044C13.4814 12.6565 12.99 12.6817 12.5179 12.5774C12.0459 12.4731 11.6108 12.2431 11.2588 11.9118C10.9003 11.5583 10.6531 11.1076 10.5478 10.6153C10.4425 10.123 10.4836 9.61058 10.6662 9.14138V9.21546ZM13.0958 17.7785C6.8884 17.7785 3.34764 11.6895 2.47357 10.0006C3.44051 8.05443 4.75609 6.30199 6.35506 4.83025L9.00693 7.48212C8.43778 8.40199 8.19603 9.48714 8.32086 10.5616C8.4457 11.6361 8.9298 12.6369 9.69469 13.4018C10.4596 14.1667 11.4604 14.6508 12.5349 14.7756C13.6093 14.9004 14.6945 14.6587 15.6144 14.0896L17.9996 16.4747C16.5109 17.3399 14.8176 17.7901 13.0958 17.7785V17.7785Z" fill="black"/>
</svg>
