<svg width="23" height="10" viewBox="0 0 23 10" fill="none" xmlns="http://www.w3.org/2000/svg">
<g clip-path="url(#clip0_3329_1337)">
<path d="M19.1689 9.20691H13.0385C10.9284 9.20691 9.20703 7.48552 9.20703 5.37543C9.20703 4.85346 9.30698 4.3537 9.50689 3.88726C9.67347 3.49856 10.1177 3.32086 10.5064 3.47635C10.8951 3.64293 11.0728 4.08716 10.9173 4.47586C10.7952 4.75351 10.7396 5.06447 10.7396 5.37543C10.7396 6.64148 11.7725 7.67432 13.0385 7.67432H19.1689C20.4349 7.67432 21.4678 6.64148 21.4678 5.37543C21.4678 4.10937 20.4349 3.07654 19.1689 3.07654H15.3374C14.9154 3.07654 14.5711 2.73226 14.5711 2.31024C14.5711 1.88822 14.9154 1.54395 15.3374 1.54395H19.1689C21.279 1.54395 23.0004 3.26534 23.0004 5.37543C23.0004 7.48552 21.279 9.20691 19.1689 9.20691Z" fill="#54565B"/>
<path d="M19.1688 9.20679H18.5024" stroke="#54565B" stroke-width="0.1" stroke-miterlimit="1" stroke-linecap="square"/>
<path d="M17.1698 9.20691H13.0385C10.9284 9.20691 9.20703 7.48552 9.20703 5.37543C9.20703 4.85346 9.30698 4.3537 9.50689 3.88726C9.67347 3.49856 10.1177 3.32086 10.5064 3.47635C10.8951 3.64293 11.0728 4.08716 10.9173 4.47586C10.7952 4.75351 10.7396 5.06447 10.7396 5.37543C10.7396 6.64148 11.7725 7.67432 13.0385 7.67432H19.1689C20.4349 7.67432 21.4678 6.64148 21.4678 5.37543C21.4678 4.10937 20.4349 3.07654 19.1689 3.07654H15.3374C14.9154 3.07654 14.5711 2.73226 14.5711 2.31024C14.5711 1.88822 14.9154 1.54395 15.3374 1.54395H19.1689C21.279 1.54395 23.0004 3.26534 23.0004 5.37543C23.0004 7.03018 21.9453 8.44061 20.4794 8.97369" stroke="#54565B" stroke-width="0.1" stroke-miterlimit="1" stroke-linecap="square" stroke-dasharray="12.02 12.02"/>
<path d="M19.8348 9.15137C19.6238 9.18468 19.4017 9.2069 19.1685 9.2069" stroke="#54565B" stroke-width="0.1" stroke-miterlimit="1" stroke-linecap="square"/>
<path d="M7.67408 7.67346H3.84259C1.72139 7.67346 0 5.95207 0 3.84198C0 1.73189 1.72139 0.010498 3.83149 0.010498H9.96186C12.072 0.010498 13.7933 1.73189 13.7933 3.84198C13.7933 4.41948 13.6712 4.97477 13.4158 5.49674C13.227 5.87433 12.7716 6.04092 12.394 5.85212C12.0164 5.67443 11.8498 5.20799 12.0386 4.83039C12.183 4.51943 12.2608 4.18626 12.2608 3.84198C12.2608 2.57593 11.2279 1.54309 9.96186 1.54309H3.84259C2.57653 1.54309 1.5437 2.57593 1.5437 3.84198C1.5437 5.10804 2.57653 6.14087 3.84259 6.14087H7.67408C8.0961 6.14087 8.44037 6.48515 8.44037 6.90717C8.44037 7.32919 8.0961 7.67346 7.67408 7.67346Z" fill="#54565B"/>
<path d="M7.67367 7.67407H7.00732" stroke="#54565B" stroke-width="0.1" stroke-miterlimit="1" stroke-linecap="square"/>
<path d="M5.66308 7.67346H3.84174C1.73164 7.67346 0.0102539 5.95207 0.0102539 3.84198C0.0102539 1.73189 1.73164 0.010498 3.84174 0.010498H9.97211C12.0822 0.010498 13.8036 1.73189 13.8036 3.84198C13.8036 4.41948 13.6814 4.97477 13.426 5.49674C13.2372 5.87433 12.7819 6.04092 12.4043 5.85212C12.0267 5.67443 11.8601 5.20799 12.0489 4.83039C12.1933 4.51943 12.271 4.18626 12.271 3.84198C12.271 2.57593 11.2382 1.54309 9.97211 1.54309H3.84174C2.57568 1.54309 1.54285 2.57593 1.54285 3.84198C1.54285 5.10804 2.57568 6.14087 3.84174 6.14087H7.67322C8.05082 6.14087 8.36178 6.41851 8.42841 6.7739" stroke="#54565B" stroke-width="0.1" stroke-miterlimit="1" stroke-linecap="square" stroke-dasharray="12.08 12.08"/>
<path d="M8.25169 7.39624C8.10732 7.56283 7.89631 7.67388 7.66309 7.67388" stroke="#54565B" stroke-width="0.1" stroke-miterlimit="1" stroke-linecap="square"/>
</g>
<defs>
<clipPath id="clip0_3329_1337">
<rect width="23" height="9.20666" fill="white"/>
</clipPath>
</defs>
</svg>
