<svg width="19" height="19" viewBox="0 0 19 19" fill="none" xmlns="http://www.w3.org/2000/svg">
<path d="M9.23389 18.167C4.23389 18.167 0.233887 14.167 0.233887 9.16699C0.233887 4.16699 4.23389 0.166992 9.23389 0.166992C10.3339 0.166992 11.3339 0.366992 12.3339 0.766992C12.8339 0.966992 13.1339 1.56699 12.9339 2.06699C12.7339 2.56699 12.1339 2.86699 11.6339 2.66699C10.9339 2.26699 10.0339 2.16699 9.23389 2.16699C5.33389 2.16699 2.23389 5.26699 2.23389 9.16699C2.23389 13.067 5.33389 16.167 9.23389 16.167C13.1339 16.167 16.2339 13.067 16.2339 9.16699C16.2339 8.56699 16.6339 8.16699 17.2339 8.16699C17.8339 8.16699 18.2339 8.56699 18.2339 9.16699C18.2339 14.167 14.2339 18.167 9.23389 18.167Z" fill="white"/>
<path d="M9.23388 13.3669C9.03388 13.3669 8.73388 13.2669 8.53388 13.0669L5.03388 9.86686C4.63388 9.46686 4.63388 8.86686 4.93388 8.46686C5.33388 8.06686 5.93388 8.06686 6.33388 8.36686L9.03388 10.7669L16.3339 0.466862C16.6339 0.0668621 17.2339 -0.133138 17.7339 0.266862C18.1339 0.566862 18.3339 1.16686 17.9339 1.66686L9.93388 12.8669C9.73388 13.0669 9.53388 13.2669 9.23388 13.2669C9.33388 13.3669 9.23388 13.3669 9.23388 13.3669Z" fill="white"/>
</svg>
