<svg width="138" height="175" viewBox="0 0 138 175" fill="none" xmlns="http://www.w3.org/2000/svg">
<path d="M130 20H8L14.0747 6H124.432L130 20Z" fill="#39AFF2"/>
<g filter="url(#filter0_d_3462_1612)">
<path d="M14 7H124V134C124 145.046 115.046 154 104 154H34C22.9543 154 14 145.046 14 134V7Z" fill="white"/>
</g>
<path d="M33.249 86.0879V98.8848H31.5615V87.4766H25.251V98.8848H23.5547V86.0879H33.249ZM37.7051 91.2031V102.541H36.0703V89.375H37.5645L37.7051 91.2031ZM44.1123 94.0508V94.2354C44.1123 94.9268 44.0303 95.5684 43.8662 96.1602C43.7021 96.7461 43.4619 97.2559 43.1455 97.6895C42.835 98.123 42.4512 98.46 41.9941 98.7002C41.5371 98.9404 41.0127 99.0605 40.4209 99.0605C39.8174 99.0605 39.2842 98.9609 38.8213 98.7617C38.3584 98.5625 37.9658 98.2725 37.6436 97.8916C37.3213 97.5107 37.0635 97.0537 36.8701 96.5205C36.6826 95.9873 36.5537 95.3867 36.4834 94.7188V93.7344C36.5537 93.0312 36.6855 92.4014 36.8789 91.8447C37.0723 91.2881 37.3271 90.8135 37.6436 90.4209C37.9658 90.0225 38.3555 89.7207 38.8125 89.5156C39.2695 89.3047 39.7969 89.1992 40.3945 89.1992C40.9922 89.1992 41.5225 89.3164 41.9854 89.5508C42.4482 89.7793 42.8379 90.1074 43.1543 90.5352C43.4707 90.9629 43.708 91.4756 43.8662 92.0732C44.0303 92.665 44.1123 93.3242 44.1123 94.0508ZM42.4775 94.2354V94.0508C42.4775 93.5762 42.4277 93.1309 42.3281 92.7148C42.2285 92.293 42.0732 91.9238 41.8623 91.6074C41.6572 91.2852 41.3936 91.0332 41.0713 90.8516C40.749 90.6641 40.3652 90.5703 39.9199 90.5703C39.5098 90.5703 39.1523 90.6406 38.8477 90.7812C38.5488 90.9219 38.2939 91.1123 38.083 91.3525C37.8721 91.5869 37.6992 91.8564 37.5645 92.1611C37.4355 92.46 37.3389 92.7705 37.2744 93.0928V95.3691C37.3916 95.7793 37.5557 96.166 37.7666 96.5293C37.9775 96.8867 38.2588 97.1768 38.6104 97.3994C38.9619 97.6162 39.4043 97.7246 39.9375 97.7246C40.377 97.7246 40.7549 97.6338 41.0713 97.4521C41.3936 97.2646 41.6572 97.0098 41.8623 96.6875C42.0732 96.3652 42.2285 95.9961 42.3281 95.5801C42.4277 95.1582 42.4775 94.71 42.4775 94.2354ZM45.7559 94.2354V94.0332C45.7559 93.3477 45.8555 92.7119 46.0547 92.126C46.2539 91.5342 46.541 91.0215 46.916 90.5879C47.291 90.1484 47.7451 89.8086 48.2783 89.5684C48.8115 89.3223 49.4092 89.1992 50.0713 89.1992C50.7393 89.1992 51.3398 89.3223 51.873 89.5684C52.4121 89.8086 52.8691 90.1484 53.2441 90.5879C53.625 91.0215 53.915 91.5342 54.1143 92.126C54.3135 92.7119 54.4131 93.3477 54.4131 94.0332V94.2354C54.4131 94.9209 54.3135 95.5566 54.1143 96.1426C53.915 96.7285 53.625 97.2412 53.2441 97.6807C52.8691 98.1143 52.415 98.4541 51.8818 98.7002C51.3545 98.9404 50.7568 99.0605 50.0889 99.0605C49.4209 99.0605 48.8203 98.9404 48.2871 98.7002C47.7539 98.4541 47.2969 98.1143 46.916 97.6807C46.541 97.2412 46.2539 96.7285 46.0547 96.1426C45.8555 95.5566 45.7559 94.9209 45.7559 94.2354ZM47.3818 94.0332V94.2354C47.3818 94.71 47.4375 95.1582 47.5488 95.5801C47.6602 95.9961 47.8271 96.3652 48.0498 96.6875C48.2783 97.0098 48.5625 97.2646 48.9023 97.4521C49.2422 97.6338 49.6377 97.7246 50.0889 97.7246C50.5342 97.7246 50.9238 97.6338 51.2578 97.4521C51.5977 97.2646 51.8789 97.0098 52.1016 96.6875C52.3242 96.3652 52.4912 95.9961 52.6025 95.5801C52.7197 95.1582 52.7783 94.71 52.7783 94.2354V94.0332C52.7783 93.5645 52.7197 93.1221 52.6025 92.7061C52.4912 92.2842 52.3213 91.9121 52.0928 91.5898C51.8701 91.2617 51.5889 91.0039 51.249 90.8164C50.915 90.6289 50.5225 90.5352 50.0713 90.5352C49.626 90.5352 49.2334 90.6289 48.8936 90.8164C48.5596 91.0039 48.2783 91.2617 48.0498 91.5898C47.8271 91.9121 47.6602 92.2842 47.5488 92.7061C47.4375 93.1221 47.3818 93.5645 47.3818 94.0332ZM60.917 94.7012H57.7969L57.7793 93.4004H60.3281C60.832 93.4004 61.251 93.3506 61.585 93.251C61.9248 93.1514 62.1797 93.002 62.3496 92.8027C62.5195 92.6035 62.6045 92.3574 62.6045 92.0645C62.6045 91.8359 62.5547 91.6367 62.4551 91.4668C62.3613 91.291 62.2178 91.1475 62.0244 91.0361C61.8311 90.9189 61.5908 90.834 61.3037 90.7812C61.0225 90.7227 60.6914 90.6934 60.3105 90.6934H58.2275V98.8848H56.6016V89.375H60.3105C60.9141 89.375 61.4561 89.4277 61.9365 89.5332C62.4229 89.6387 62.8359 89.7998 63.1758 90.0166C63.5215 90.2275 63.7852 90.4971 63.9668 90.8252C64.1484 91.1533 64.2393 91.54 64.2393 91.9854C64.2393 92.2725 64.1807 92.5449 64.0635 92.8027C63.9463 93.0605 63.7734 93.2891 63.5449 93.4883C63.3164 93.6875 63.0352 93.8516 62.7012 93.9805C62.3672 94.1035 61.9834 94.1826 61.5498 94.2178L60.917 94.7012ZM60.917 98.8848H57.208L58.0166 97.5664H60.917C61.3682 97.5664 61.7432 97.5107 62.042 97.3994C62.3408 97.2822 62.5635 97.1182 62.71 96.9072C62.8623 96.6904 62.9385 96.4326 62.9385 96.1338C62.9385 95.835 62.8623 95.5801 62.71 95.3691C62.5635 95.1523 62.3408 94.9883 62.042 94.877C61.7432 94.7598 61.3682 94.7012 60.917 94.7012H58.4473L58.4648 93.4004H61.5498L62.1387 93.8926C62.6602 93.9336 63.1025 94.0625 63.4658 94.2793C63.8291 94.4961 64.1045 94.7715 64.292 95.1055C64.4795 95.4336 64.5732 95.791 64.5732 96.1777C64.5732 96.623 64.4883 97.0156 64.3184 97.3555C64.1543 97.6953 63.9141 97.9795 63.5977 98.208C63.2812 98.4307 62.8975 98.6006 62.4463 98.7178C61.9951 98.8291 61.4854 98.8848 60.917 98.8848ZM70.6992 99.0605C70.0371 99.0605 69.4365 98.9492 68.8975 98.7266C68.3643 98.498 67.9043 98.1787 67.5176 97.7686C67.1367 97.3584 66.8438 96.8721 66.6387 96.3096C66.4336 95.7471 66.3311 95.1318 66.3311 94.4639V94.0947C66.3311 93.3213 66.4453 92.6328 66.6738 92.0293C66.9023 91.4199 67.2129 90.9043 67.6055 90.4824C67.998 90.0605 68.4434 89.7412 68.9414 89.5244C69.4395 89.3076 69.9551 89.1992 70.4883 89.1992C71.168 89.1992 71.7539 89.3164 72.2461 89.5508C72.7441 89.7852 73.1514 90.1133 73.4678 90.5352C73.7842 90.9512 74.0186 91.4434 74.1709 92.0117C74.3232 92.5742 74.3994 93.1895 74.3994 93.8574V94.5869H67.2979V93.2598H72.7734V93.1367C72.75 92.7148 72.6621 92.3047 72.5098 91.9062C72.3633 91.5078 72.1289 91.1797 71.8066 90.9219C71.4844 90.6641 71.0449 90.5352 70.4883 90.5352C70.1191 90.5352 69.7793 90.6143 69.4688 90.7725C69.1582 90.9248 68.8916 91.1533 68.6689 91.458C68.4463 91.7627 68.2734 92.1348 68.1504 92.5742C68.0273 93.0137 67.9658 93.5205 67.9658 94.0947V94.4639C67.9658 94.915 68.0273 95.3398 68.1504 95.7383C68.2793 96.1309 68.4639 96.4766 68.7041 96.7754C68.9502 97.0742 69.2461 97.3086 69.5918 97.4785C69.9434 97.6484 70.3418 97.7334 70.7871 97.7334C71.3613 97.7334 71.8477 97.6162 72.2461 97.3818C72.6445 97.1475 72.9932 96.834 73.292 96.4414L74.2764 97.2236C74.0713 97.5342 73.8105 97.8301 73.4941 98.1113C73.1777 98.3926 72.7881 98.6211 72.3252 98.7969C71.8682 98.9727 71.3262 99.0605 70.6992 99.0605ZM77.9238 91.2031V102.541H76.2891V89.375H77.7832L77.9238 91.2031ZM84.3311 94.0508V94.2354C84.3311 94.9268 84.249 95.5684 84.085 96.1602C83.9209 96.7461 83.6807 97.2559 83.3643 97.6895C83.0537 98.123 82.6699 98.46 82.2129 98.7002C81.7559 98.9404 81.2314 99.0605 80.6396 99.0605C80.0361 99.0605 79.5029 98.9609 79.04 98.7617C78.5771 98.5625 78.1846 98.2725 77.8623 97.8916C77.54 97.5107 77.2822 97.0537 77.0889 96.5205C76.9014 95.9873 76.7725 95.3867 76.7021 94.7188V93.7344C76.7725 93.0312 76.9043 92.4014 77.0977 91.8447C77.291 91.2881 77.5459 90.8135 77.8623 90.4209C78.1846 90.0225 78.5742 89.7207 79.0312 89.5156C79.4883 89.3047 80.0156 89.1992 80.6133 89.1992C81.2109 89.1992 81.7412 89.3164 82.2041 89.5508C82.667 89.7793 83.0566 90.1074 83.373 90.5352C83.6895 90.9629 83.9268 91.4756 84.085 92.0732C84.249 92.665 84.3311 93.3242 84.3311 94.0508ZM82.6963 94.2354V94.0508C82.6963 93.5762 82.6465 93.1309 82.5469 92.7148C82.4473 92.293 82.292 91.9238 82.0811 91.6074C81.876 91.2852 81.6123 91.0332 81.29 90.8516C80.9678 90.6641 80.584 90.5703 80.1387 90.5703C79.7285 90.5703 79.3711 90.6406 79.0664 90.7812C78.7676 90.9219 78.5127 91.1123 78.3018 91.3525C78.0908 91.5869 77.918 91.8564 77.7832 92.1611C77.6543 92.46 77.5576 92.7705 77.4932 93.0928V95.3691C77.6104 95.7793 77.7744 96.166 77.9854 96.5293C78.1963 96.8867 78.4775 97.1768 78.8291 97.3994C79.1807 97.6162 79.623 97.7246 80.1562 97.7246C80.5957 97.7246 80.9736 97.6338 81.29 97.4521C81.6123 97.2646 81.876 97.0098 82.0811 96.6875C82.292 96.3652 82.4473 95.9961 82.5469 95.5801C82.6465 95.1582 82.6963 94.71 82.6963 94.2354ZM90.3516 99.0605C89.6895 99.0605 89.0889 98.9492 88.5498 98.7266C88.0166 98.498 87.5566 98.1787 87.1699 97.7686C86.7891 97.3584 86.4961 96.8721 86.291 96.3096C86.0859 95.7471 85.9834 95.1318 85.9834 94.4639V94.0947C85.9834 93.3213 86.0977 92.6328 86.3262 92.0293C86.5547 91.4199 86.8652 90.9043 87.2578 90.4824C87.6504 90.0605 88.0957 89.7412 88.5938 89.5244C89.0918 89.3076 89.6074 89.1992 90.1406 89.1992C90.8203 89.1992 91.4062 89.3164 91.8984 89.5508C92.3965 89.7852 92.8037 90.1133 93.1201 90.5352C93.4365 90.9512 93.6709 91.4434 93.8232 92.0117C93.9756 92.5742 94.0518 93.1895 94.0518 93.8574V94.5869H86.9502V93.2598H92.4258V93.1367C92.4023 92.7148 92.3145 92.3047 92.1621 91.9062C92.0156 91.5078 91.7812 91.1797 91.459 90.9219C91.1367 90.6641 90.6973 90.5352 90.1406 90.5352C89.7715 90.5352 89.4316 90.6143 89.1211 90.7725C88.8105 90.9248 88.5439 91.1533 88.3213 91.458C88.0986 91.7627 87.9258 92.1348 87.8027 92.5742C87.6797 93.0137 87.6182 93.5205 87.6182 94.0947V94.4639C87.6182 94.915 87.6797 95.3398 87.8027 95.7383C87.9316 96.1309 88.1162 96.4766 88.3564 96.7754C88.6025 97.0742 88.8984 97.3086 89.2441 97.4785C89.5957 97.6484 89.9941 97.7334 90.4395 97.7334C91.0137 97.7334 91.5 97.6162 91.8984 97.3818C92.2969 97.1475 92.6455 96.834 92.9443 96.4414L93.9287 97.2236C93.7236 97.5342 93.4629 97.8301 93.1465 98.1113C92.8301 98.3926 92.4404 98.6211 91.9775 98.7969C91.5205 98.9727 90.9785 99.0605 90.3516 99.0605ZM102.401 93.4971V94.8154H97.374V93.4971H102.401ZM97.7168 89.375V98.8848H96.0908V89.375H97.7168ZM103.72 89.375V98.8848H102.085V89.375H103.72ZM105.908 94.2354V94.0332C105.908 93.3477 106.008 92.7119 106.207 92.126C106.406 91.5342 106.693 91.0215 107.068 90.5879C107.443 90.1484 107.897 89.8086 108.431 89.5684C108.964 89.3223 109.562 89.1992 110.224 89.1992C110.892 89.1992 111.492 89.3223 112.025 89.5684C112.564 89.8086 113.021 90.1484 113.396 90.5879C113.777 91.0215 114.067 91.5342 114.267 92.126C114.466 92.7119 114.565 93.3477 114.565 94.0332V94.2354C114.565 94.9209 114.466 95.5566 114.267 96.1426C114.067 96.7285 113.777 97.2412 113.396 97.6807C113.021 98.1143 112.567 98.4541 112.034 98.7002C111.507 98.9404 110.909 99.0605 110.241 99.0605C109.573 99.0605 108.973 98.9404 108.439 98.7002C107.906 98.4541 107.449 98.1143 107.068 97.6807C106.693 97.2412 106.406 96.7285 106.207 96.1426C106.008 95.5566 105.908 94.9209 105.908 94.2354ZM107.534 94.0332V94.2354C107.534 94.71 107.59 95.1582 107.701 95.5801C107.812 95.9961 107.979 96.3652 108.202 96.6875C108.431 97.0098 108.715 97.2646 109.055 97.4521C109.395 97.6338 109.79 97.7246 110.241 97.7246C110.687 97.7246 111.076 97.6338 111.41 97.4521C111.75 97.2646 112.031 97.0098 112.254 96.6875C112.477 96.3652 112.644 95.9961 112.755 95.5801C112.872 95.1582 112.931 94.71 112.931 94.2354V94.0332C112.931 93.5645 112.872 93.1221 112.755 92.7061C112.644 92.2842 112.474 91.9121 112.245 91.5898C112.022 91.2617 111.741 91.0039 111.401 90.8164C111.067 90.6289 110.675 90.5352 110.224 90.5352C109.778 90.5352 109.386 90.6289 109.046 90.8164C108.712 91.0039 108.431 91.2617 108.202 91.5898C107.979 91.9121 107.812 92.2842 107.701 92.7061C107.59 93.1221 107.534 93.5645 107.534 94.0332Z" fill="#39AEC7"/>
<path d="M54.7486 34.6348H46.0004C45.3376 34.6317 44.6939 34.8561 44.1768 35.2707C43.6597 35.6852 43.3006 36.2647 43.1595 36.9122C41.3727 44.875 41.3141 53.1282 42.9877 61.1155L43.1635 61.958C43.3018 62.612 43.6601 63.1988 44.1787 63.6207C44.6973 64.0425 45.3448 64.2738 46.0132 64.276H54.7492C55.5209 64.2751 56.2607 63.9681 56.8064 63.4224C57.352 62.8768 57.6589 62.1369 57.6598 61.3653V37.5454C57.6589 36.7736 57.3519 36.0337 56.8061 35.488C56.2604 34.9424 55.5204 34.6355 54.7486 34.6348V34.6348ZM53.9092 60.526H46.6953L46.6591 60.3517C45.1408 53.1075 45.1471 45.6265 46.6776 38.3848H53.9092V60.526Z" fill="#39AEC7"/>
<path d="M97.8277 43.3785L95.239 36.4754C95.0347 35.9359 94.6715 35.471 94.1973 35.1423C93.7231 34.8137 93.1603 34.6367 92.5833 34.6349H78.7895V31.1738L79.9114 28.6894C80.4728 27.446 80.7824 26.1038 80.8221 24.7401C80.8618 23.3764 80.6309 22.0184 80.1427 20.7445C79.6545 19.4706 78.9188 18.306 77.9779 17.3181C77.0371 16.3302 75.9098 15.5385 74.6612 14.9888C73.9785 14.6915 73.2065 14.6734 72.5107 14.9385C71.8148 15.2035 71.2505 15.7306 70.9385 16.4067L61.527 37.0097V39.9468H64.308L73.9497 18.8392C75.3107 19.6782 76.3197 20.9841 76.7879 22.5129C77.2562 24.0417 77.1517 25.6887 76.4939 27.146L75.2059 29.9985L75.0395 30.77V36.5099L76.9145 38.3849H91.9497L94.2583 44.5405V45.6271L86.2909 59.6298H71.6493L61.527 53.6919V58.0396L69.9653 62.9897C70.4006 63.245 70.8962 63.3797 71.4008 63.3798H86.8227C87.3235 63.3793 87.8152 63.2464 88.2481 62.9946C88.681 62.7428 89.0397 62.3811 89.2878 61.9461L97.6374 47.271C97.8802 46.8434 98.008 46.3601 98.0083 45.8684V44.3745C98.0084 44.0343 97.9473 43.6969 97.8277 43.3785Z" fill="#39AEC7"/>
<path d="M30.916 121.52C30.916 121.227 30.8704 120.966 30.7793 120.738C30.6947 120.51 30.5417 120.302 30.3203 120.113C30.099 119.924 29.7865 119.742 29.3828 119.566C28.9857 119.384 28.4779 119.199 27.8594 119.01C27.1823 118.801 26.5573 118.57 25.9844 118.316C25.418 118.056 24.9232 117.757 24.5 117.418C24.0768 117.073 23.748 116.679 23.5137 116.236C23.2793 115.787 23.1621 115.27 23.1621 114.684C23.1621 114.104 23.2826 113.577 23.5234 113.102C23.7708 112.626 24.1191 112.216 24.5684 111.871C25.0241 111.52 25.5612 111.249 26.1797 111.061C26.7982 110.865 27.4818 110.768 28.2305 110.768C29.2852 110.768 30.1934 110.963 30.9551 111.354C31.7233 111.744 32.3125 112.268 32.7227 112.926C33.1393 113.583 33.3477 114.309 33.3477 115.104H30.916C30.916 114.635 30.8151 114.221 30.6133 113.863C30.418 113.499 30.1185 113.212 29.7148 113.004C29.3177 112.796 28.8132 112.691 28.2012 112.691C27.6217 112.691 27.14 112.779 26.7559 112.955C26.3717 113.131 26.0853 113.368 25.8965 113.668C25.7077 113.967 25.6133 114.306 25.6133 114.684C25.6133 114.951 25.6751 115.195 25.7988 115.416C25.9225 115.631 26.1113 115.833 26.3652 116.021C26.6191 116.204 26.9382 116.376 27.3223 116.539C27.7064 116.702 28.1589 116.858 28.6797 117.008C29.4674 117.242 30.1543 117.503 30.7402 117.789C31.3262 118.069 31.8145 118.388 32.2051 118.746C32.5957 119.104 32.8887 119.511 33.084 119.967C33.2793 120.416 33.377 120.927 33.377 121.5C33.377 122.099 33.2565 122.639 33.0156 123.121C32.7747 123.596 32.4297 124.003 31.9805 124.342C31.5378 124.674 31.0039 124.931 30.3789 125.113C29.7604 125.289 29.0703 125.377 28.3086 125.377C27.625 125.377 26.9512 125.286 26.2871 125.104C25.6296 124.921 25.0306 124.645 24.4902 124.273C23.9499 123.896 23.5202 123.427 23.2012 122.867C22.8822 122.301 22.7227 121.64 22.7227 120.885H25.1738C25.1738 121.347 25.252 121.741 25.4082 122.066C25.571 122.392 25.7956 122.659 26.082 122.867C26.3685 123.069 26.7005 123.219 27.0781 123.316C27.4622 123.414 27.8724 123.463 28.3086 123.463C28.8815 123.463 29.36 123.382 29.7441 123.219C30.1348 123.056 30.4277 122.828 30.623 122.535C30.8184 122.242 30.916 121.904 30.916 121.52ZM40.1543 114.615V116.334H34.1973V114.615H40.1543ZM35.916 112.027H38.2695V122.262C38.2695 122.587 38.3151 122.838 38.4062 123.014C38.5039 123.183 38.6374 123.297 38.8066 123.355C38.9759 123.414 39.1745 123.443 39.4023 123.443C39.5651 123.443 39.7214 123.434 39.8711 123.414C40.0208 123.395 40.1413 123.375 40.2324 123.355L40.2422 125.152C40.0469 125.211 39.819 125.263 39.5586 125.309C39.3047 125.354 39.0117 125.377 38.6797 125.377C38.1393 125.377 37.6608 125.283 37.2441 125.094C36.8275 124.898 36.502 124.583 36.2676 124.146C36.0332 123.71 35.916 123.131 35.916 122.408V112.027ZM47.9277 123.062V118.023C47.9277 117.646 47.8594 117.32 47.7227 117.047C47.5859 116.773 47.3776 116.562 47.0977 116.412C46.8242 116.262 46.4792 116.188 46.0625 116.188C45.6784 116.188 45.3464 116.253 45.0664 116.383C44.7865 116.513 44.5684 116.689 44.4121 116.91C44.2559 117.132 44.1777 117.382 44.1777 117.662H41.834C41.834 117.245 41.9349 116.842 42.1367 116.451C42.3385 116.061 42.6315 115.712 43.0156 115.406C43.3997 115.1 43.8587 114.859 44.3926 114.684C44.9264 114.508 45.5254 114.42 46.1895 114.42C46.9837 114.42 47.6868 114.553 48.2988 114.82C48.9173 115.087 49.4023 115.491 49.7539 116.031C50.112 116.565 50.291 117.236 50.291 118.043V122.74C50.291 123.222 50.3236 123.655 50.3887 124.039C50.4603 124.417 50.5612 124.745 50.6914 125.025V125.182H48.2793C48.1686 124.928 48.0807 124.605 48.0156 124.215C47.957 123.818 47.9277 123.434 47.9277 123.062ZM48.2695 118.756L48.2891 120.211H46.5996C46.1634 120.211 45.7793 120.253 45.4473 120.338C45.1152 120.416 44.8385 120.533 44.6172 120.689C44.3958 120.846 44.2298 121.035 44.1191 121.256C44.0085 121.477 43.9531 121.728 43.9531 122.008C43.9531 122.288 44.0182 122.545 44.1484 122.779C44.2786 123.007 44.4674 123.186 44.7148 123.316C44.9688 123.447 45.2747 123.512 45.6328 123.512C46.1146 123.512 46.5345 123.414 46.8926 123.219C47.2572 123.017 47.5436 122.773 47.752 122.486C47.9603 122.193 48.071 121.917 48.084 121.656L48.8457 122.701C48.7676 122.968 48.6341 123.255 48.4453 123.561C48.2565 123.867 48.0091 124.16 47.7031 124.439C47.4036 124.713 47.0423 124.938 46.6191 125.113C46.2025 125.289 45.7207 125.377 45.1738 125.377C44.4837 125.377 43.8685 125.24 43.3281 124.967C42.7878 124.687 42.3646 124.312 42.0586 123.844C41.7526 123.368 41.5996 122.831 41.5996 122.232C41.5996 121.673 41.7038 121.178 41.9121 120.748C42.127 120.312 42.4395 119.947 42.8496 119.654C43.2663 119.361 43.7741 119.14 44.373 118.99C44.972 118.834 45.6556 118.756 46.4238 118.756H48.2695ZM55.9355 125.182H53.582V113.6C53.582 112.812 53.7285 112.151 54.0215 111.617C54.321 111.077 54.7474 110.67 55.3008 110.396C55.8542 110.117 56.5085 109.977 57.2637 109.977C57.498 109.977 57.7292 109.993 57.957 110.025C58.1849 110.051 58.4062 110.094 58.6211 110.152L58.5625 111.969C58.4323 111.936 58.2891 111.913 58.1328 111.9C57.9831 111.887 57.8203 111.881 57.6445 111.881C57.2865 111.881 56.9772 111.949 56.7168 112.086C56.4629 112.216 56.2676 112.408 56.1309 112.662C56.0007 112.916 55.9355 113.229 55.9355 113.6V125.182ZM58.1133 114.615V116.334H51.9609V114.615H58.1133ZM63.0059 125.182H60.6523V113.6C60.6523 112.812 60.7988 112.151 61.0918 111.617C61.3913 111.077 61.8177 110.67 62.3711 110.396C62.9245 110.117 63.5788 109.977 64.334 109.977C64.5684 109.977 64.7995 109.993 65.0273 110.025C65.2552 110.051 65.4766 110.094 65.6914 110.152L65.6328 111.969C65.5026 111.936 65.3594 111.913 65.2031 111.9C65.0534 111.887 64.8906 111.881 64.7148 111.881C64.3568 111.881 64.0475 111.949 63.7871 112.086C63.5332 112.216 63.3379 112.408 63.2012 112.662C63.071 112.916 63.0059 113.229 63.0059 113.6V125.182ZM65.1836 114.615V116.334H59.0312V114.615H65.1836ZM81.2676 123.307V125.182H71.7363V123.57L76.3652 118.521C76.873 117.949 77.2734 117.454 77.5664 117.037C77.8594 116.62 78.0645 116.246 78.1816 115.914C78.3053 115.576 78.3672 115.247 78.3672 114.928C78.3672 114.479 78.2826 114.085 78.1133 113.746C77.9505 113.401 77.7096 113.131 77.3906 112.936C77.0716 112.734 76.6842 112.633 76.2285 112.633C75.7012 112.633 75.2585 112.747 74.9004 112.975C74.5423 113.202 74.2721 113.518 74.0898 113.922C73.9076 114.319 73.8164 114.775 73.8164 115.289H71.4629C71.4629 114.462 71.6517 113.707 72.0293 113.023C72.4069 112.333 72.9538 111.786 73.6699 111.383C74.3861 110.973 75.2487 110.768 76.2578 110.768C77.2083 110.768 78.0156 110.927 78.6797 111.246C79.3438 111.565 79.8483 112.018 80.1934 112.604C80.5449 113.189 80.7207 113.883 80.7207 114.684C80.7207 115.126 80.6491 115.566 80.5059 116.002C80.3626 116.438 80.1576 116.874 79.8906 117.311C79.6302 117.74 79.321 118.173 78.9629 118.609C78.6048 119.039 78.2109 119.475 77.7812 119.918L74.7051 123.307H81.2676ZM99.373 117.916V123.346C99.1712 123.613 98.8555 123.906 98.4258 124.225C98.0026 124.537 97.4395 124.807 96.7363 125.035C96.0332 125.263 95.1576 125.377 94.1094 125.377C93.2174 125.377 92.4004 125.227 91.6582 124.928C90.916 124.622 90.2747 124.176 89.7344 123.59C89.2005 123.004 88.7871 122.291 88.4941 121.451C88.2012 120.605 88.0547 119.641 88.0547 118.561V117.574C88.0547 116.5 88.1882 115.543 88.4551 114.703C88.7285 113.857 89.1191 113.141 89.627 112.555C90.1348 111.969 90.7467 111.526 91.4629 111.227C92.1855 110.921 93.0026 110.768 93.9141 110.768C95.0794 110.768 96.043 110.963 96.8047 111.354C97.5729 111.738 98.1654 112.271 98.582 112.955C98.9987 113.639 99.2624 114.42 99.373 115.299H96.9707C96.8926 114.804 96.7396 114.361 96.5117 113.971C96.2904 113.58 95.9714 113.274 95.5547 113.053C95.1445 112.825 94.6107 112.711 93.9531 112.711C93.3867 112.711 92.8887 112.818 92.459 113.033C92.0293 113.248 91.6712 113.564 91.3848 113.98C91.1048 114.397 90.8932 114.905 90.75 115.504C90.6068 116.103 90.5352 116.786 90.5352 117.555V118.561C90.5352 119.342 90.6165 120.035 90.7793 120.641C90.9486 121.246 91.1895 121.757 91.502 122.174C91.821 122.59 92.2083 122.906 92.6641 123.121C93.1198 123.329 93.6341 123.434 94.207 123.434C94.7669 123.434 95.2259 123.388 95.584 123.297C95.9421 123.199 96.2253 123.085 96.4336 122.955C96.6484 122.818 96.8145 122.688 96.9316 122.564V119.742H93.9727V117.916H99.373ZM101.404 120.016V119.791C101.404 119.029 101.515 118.323 101.736 117.672C101.958 117.014 102.277 116.445 102.693 115.963C103.117 115.475 103.631 115.097 104.236 114.83C104.848 114.557 105.538 114.42 106.307 114.42C107.081 114.42 107.771 114.557 108.377 114.83C108.989 115.097 109.507 115.475 109.93 115.963C110.353 116.445 110.675 117.014 110.896 117.672C111.118 118.323 111.229 119.029 111.229 119.791V120.016C111.229 120.777 111.118 121.484 110.896 122.135C110.675 122.786 110.353 123.355 109.93 123.844C109.507 124.326 108.992 124.703 108.387 124.977C107.781 125.243 107.094 125.377 106.326 125.377C105.551 125.377 104.858 125.243 104.246 124.977C103.641 124.703 103.126 124.326 102.703 123.844C102.28 123.355 101.958 122.786 101.736 122.135C101.515 121.484 101.404 120.777 101.404 120.016ZM103.758 119.791V120.016C103.758 120.491 103.807 120.94 103.904 121.363C104.002 121.786 104.155 122.158 104.363 122.477C104.572 122.796 104.839 123.046 105.164 123.229C105.49 123.411 105.877 123.502 106.326 123.502C106.762 123.502 107.14 123.411 107.459 123.229C107.785 123.046 108.051 122.796 108.26 122.477C108.468 122.158 108.621 121.786 108.719 121.363C108.823 120.94 108.875 120.491 108.875 120.016V119.791C108.875 119.322 108.823 118.88 108.719 118.463C108.621 118.04 108.465 117.665 108.25 117.34C108.042 117.014 107.775 116.76 107.449 116.578C107.13 116.389 106.749 116.295 106.307 116.295C105.864 116.295 105.48 116.389 105.154 116.578C104.835 116.76 104.572 117.014 104.363 117.34C104.155 117.665 104.002 118.04 103.904 118.463C103.807 118.88 103.758 119.322 103.758 119.791Z" fill="#39AEC7"/>
<defs>
<filter id="filter0_d_3462_1612" x="0" y="0" width="138" height="175" filterUnits="userSpaceOnUse" color-interpolation-filters="sRGB">
<feFlood flood-opacity="0" result="BackgroundImageFix"/>
<feColorMatrix in="SourceAlpha" type="matrix" values="0 0 0 0 0 0 0 0 0 0 0 0 0 0 0 0 0 0 127 0" result="hardAlpha"/>
<feOffset dy="7"/>
<feGaussianBlur stdDeviation="7"/>
<feComposite in2="hardAlpha" operator="out"/>
<feColorMatrix type="matrix" values="0 0 0 0 0 0 0 0 0 0 0 0 0 0 0 0 0 0 0.2 0"/>
<feBlend mode="normal" in2="BackgroundImageFix" result="effect1_dropShadow_3462_1612"/>
<feBlend mode="normal" in="SourceGraphic" in2="effect1_dropShadow_3462_1612" result="shape"/>
</filter>
</defs>
</svg>
