<svg width="25" height="22" viewBox="0 0 25 22" fill="none" xmlns="http://www.w3.org/2000/svg">
<path d="M7.99091 0.512471L7.99119 0.512476C10.5573 0.557693 12.65 2.674 12.65 5.25005V16.0751C12.65 17.8637 14.0989 19.3126 15.8875 19.3126C17.6761 19.3126 19.125 17.8637 19.125 16.0751V8.72505C19.125 8.3137 19.4636 7.97505 19.875 7.97505C20.2864 7.97505 20.625 8.3137 20.625 8.72505V16.0737C20.6132 18.6751 18.4974 20.8001 15.8875 20.8001C13.2761 20.8001 11.15 18.6739 11.15 16.0626V5.23755C11.15 3.48101 9.73674 2.03426 7.97916 2.00027C7.07697 1.95764 6.25992 2.32158 5.64858 2.93187C5.02586 3.54091 4.6875 4.37019 4.6875 5.23755V10.3626C4.6875 10.7739 4.34886 11.1126 3.9375 11.1126C3.52614 11.1126 3.1875 10.7739 3.1875 10.3626V5.23755C3.1875 3.95783 3.68451 2.76251 4.59911 1.8705C5.51694 0.975324 6.75084 0.489924 7.99091 0.512471Z" fill="#136c81" stroke="#136c81"/>
<path d="M3.9375 20.7998C2.03864 20.7998 0.5 19.2612 0.5 17.3623C0.5 15.4634 2.03864 13.9248 3.9375 13.9248C5.83636 13.9248 7.375 15.4634 7.375 17.3623C7.375 19.2612 5.83636 20.7998 3.9375 20.7998ZM3.9375 15.4248C2.87386 15.4248 2 16.2987 2 17.3623C2 18.4259 2.87386 19.2998 3.9375 19.2998C5.00114 19.2998 5.875 18.4259 5.875 17.3623C5.875 16.3015 5.01647 15.4248 3.9375 15.4248Z" fill="#136c81" stroke="#136c81"/>
<path d="M22.9009 6.95675L22.901 6.95674L22.8982 6.95268L20.2732 3.16518L19.8629 2.57322L19.4517 3.16455L16.8284 6.93711C16.5857 7.27625 16.1211 7.356 15.7864 7.12784C15.4401 6.87918 15.3634 6.41498 15.5947 6.08976L15.5947 6.08978L15.5976 6.08562L19.2586 0.825246C19.2588 0.824936 19.259 0.824627 19.2593 0.824317C19.4058 0.616732 19.6298 0.5 19.8747 0.5C20.1195 0.5 20.3434 0.616625 20.4899 0.824032C20.4902 0.824436 20.4905 0.824841 20.4908 0.825246L24.1379 6.08365C24.1381 6.08384 24.1382 6.08404 24.1383 6.08423C24.3718 6.4238 24.284 6.89813 23.9536 7.12575L23.9535 7.12564L23.9445 7.13216C23.8061 7.23207 23.6589 7.275 23.5122 7.275C23.2679 7.275 23.0399 7.16155 22.9009 6.95675Z" fill="#136c81" stroke="#136c81"/>
</svg>
