<?xml version="1.0" encoding="utf-8"?>
<!-- Generator: Adobe Illustrator 24.3.0, SVG Export Plug-In . SVG Version: 6.00 Build 0)  -->
<svg version="1.1" id="Слой_1" xmlns="http://www.w3.org/2000/svg" xmlns:xlink="http://www.w3.org/1999/xlink" x="0px" y="0px"
	 viewBox="0 0 24 24" style="enable-background:new 0 0 24 24;" xml:space="preserve">
<style type="text/css">
	.st0{fill:#76C100;}
</style>
<path class="st0" d="M12.9,3c-0.4-0.7-1.3-0.7-1.7,0L8.4,7.7C8.2,8,7.9,8.2,7.5,8.3L2.4,9.1C1.6,9.2,1.3,10.3,2,10.8l3.8,3.1
	c0.4,0.3,0.5,0.7,0.4,1.2l-1,5.2c-0.2,0.8,0.7,1.5,1.4,1.1l4.8-2.5c0.4-0.2,0.8-0.2,1.2,0l4.8,2.5c0.7,0.4,1.6-0.2,1.4-1.1l-1-5.2
	c-0.1-0.4,0.1-0.9,0.4-1.2l3.8-3.1c0.7-0.6,0.4-1.6-0.5-1.8l-5.1-0.8c-0.4-0.1-0.7-0.3-0.9-0.6L12.9,3z"/>
</svg>
