<svg width="19" height="28" viewBox="0 0 19 28" fill="none" xmlns="http://www.w3.org/2000/svg">
<path d="M14.1774 3.09943C14.1774 3.833 13.886 4.53653 13.3673 5.05524C12.8485 5.57396 12.145 5.86537 11.4114 5.86537C10.6779 5.86537 9.97435 5.57396 9.45563 5.05524C8.93692 4.53653 8.64551 3.833 8.64551 3.09943C8.64551 2.36586 8.93692 1.66233 9.45563 1.14362C9.97435 0.624906 10.6779 0.333496 11.4114 0.333496C12.145 0.333496 12.8485 0.624906 13.3673 1.14362C13.886 1.66233 14.1774 2.36586 14.1774 3.09943Z" fill="#39AFF2"/>
<path d="M10.3346 17.2039L13.9255 20.747C14.0631 20.8829 14.1708 21.0462 14.2415 21.2262L16.1562 26.1047C16.2902 26.4461 16.2832 26.8269 16.1365 27.1631C15.9898 27.4994 15.7156 27.7636 15.3741 27.8977C15.0326 28.0317 14.6519 28.0247 14.3156 27.878C13.9794 27.7313 13.7152 27.4571 13.5811 27.1156L11.7736 22.5096L5.59999 16.4177C5.45081 16.2706 5.337 16.0915 5.26717 15.8939C5.19733 15.6964 5.17329 15.4856 5.19685 15.2774L5.69126 10.9072C4.49915 12.0924 3.57947 13.7582 2.87485 15.9661C2.82217 16.1421 2.73494 16.3059 2.61827 16.4478C2.5016 16.5897 2.35782 16.707 2.19533 16.7927C2.03285 16.8784 1.8549 16.9309 1.6719 16.9471C1.48889 16.9633 1.30449 16.9429 1.12947 16.8871C0.954446 16.8312 0.792307 16.741 0.652522 16.6218C0.512737 16.5026 0.398108 16.3567 0.315329 16.1927C0.232549 16.0287 0.183279 15.8498 0.170397 15.6665C0.157514 15.4833 0.181276 15.2993 0.240296 15.1253C1.53337 11.0732 3.68043 8.04034 7.28306 6.64977L7.29896 6.64354C8.21656 6.30264 9.17081 6.3303 10.0213 6.76939C10.838 7.19189 11.4195 7.92141 11.8005 8.73874C11.9609 9.0831 12.1089 9.40464 12.2486 9.70682C12.5861 10.4384 12.8696 11.0552 13.1427 11.596C13.5251 12.3566 13.8328 12.8614 14.137 13.2147C14.4192 13.5432 14.6992 13.7451 15.0567 13.8848C15.4412 14.0348 15.9799 14.1385 16.8117 14.1634C16.9944 14.1671 17.1746 14.2069 17.3419 14.2807C17.5091 14.3544 17.6601 14.4605 17.7861 14.593C17.9121 14.7254 18.0105 14.8815 18.0758 15.0522C18.1411 15.2229 18.1719 15.4049 18.1664 15.5876C18.1609 15.7703 18.1192 15.9501 18.0438 16.1166C17.9685 16.2831 17.8608 16.433 17.7271 16.5576C17.5934 16.6823 17.4364 16.7792 17.265 16.8428C17.0936 16.9063 16.9114 16.9353 16.7287 16.928C15.7295 16.8982 14.8424 16.7703 14.0506 16.4612C13.2326 16.1418 12.5874 15.6557 12.0384 15.016C11.6927 14.6136 11.3884 14.1537 11.1049 13.6538L10.3346 17.2039Z" fill="#39AFF2"/>
<path d="M5.1961 18.4644L7.48837 20.6633L6.43317 24.2223C6.35156 24.4977 6.18626 24.7408 5.96019 24.918L2.41011 27.6998C2.26709 27.8118 2.10341 27.8946 1.92841 27.9433C1.75341 27.9921 1.57052 28.0059 1.39019 27.9839C1.20986 27.962 1.03561 27.9048 0.87739 27.8155C0.719174 27.7263 0.58009 27.6067 0.46808 27.4637C0.35607 27.3207 0.273326 27.157 0.224574 26.982C0.175822 26.807 0.162015 26.6241 0.183943 26.4437C0.20587 26.2634 0.263103 26.0892 0.352373 25.9309C0.441643 25.7727 0.561201 25.6336 0.704222 25.5216L3.90718 23.0129L4.8718 19.756L5.1961 18.4644Z" fill="#39AFF2"/>
</svg>
