<svg width="25" height="20" viewBox="0 0 25 20" fill="none" xmlns="http://www.w3.org/2000/svg">
<path d="M10.2904 9.82939C9.31839 9.82939 8.36819 9.54115 7.55997 9.00111C6.75175 8.46108 6.12182 7.69351 5.74984 6.79547C5.37786 5.89742 5.28053 4.90924 5.47017 3.95589C5.6598 3.00253 6.12788 2.12681 6.81521 1.43948C7.50255 0.75215 8.37826 0.284071 9.33162 0.0944367C10.285 -0.0951978 11.2732 0.00212947 12.1712 0.374111C13.0692 0.746092 13.8368 1.37602 14.3768 2.18424C14.9169 2.99245 15.2051 3.94266 15.2051 4.91469C15.2017 6.21709 14.6828 7.46515 13.7618 8.38609C12.8409 9.30702 11.5928 9.82593 10.2904 9.82939V9.82939ZM10.2904 1.96588C9.70721 1.96588 9.13708 2.13882 8.65215 2.46284C8.16722 2.78686 7.78927 3.24741 7.56608 3.78623C7.34289 4.32506 7.28449 4.91797 7.39827 5.48998C7.51205 6.06199 7.7929 6.58742 8.2053 6.99982C8.6177 7.41222 9.14313 7.69307 9.71514 7.80685C10.2872 7.92063 10.8801 7.86223 11.4189 7.63904C11.9577 7.41586 12.4183 7.0379 12.7423 6.55297C13.0663 6.06804 13.2392 5.49791 13.2392 4.91469C13.2392 4.13262 12.9286 3.38258 12.3756 2.82957C11.8225 2.27656 11.0725 1.96588 10.2904 1.96588V1.96588Z" fill="black"/>
<path d="M1.11624 19.0031C0.855548 19.0031 0.605534 18.8996 0.421197 18.7152C0.23686 18.5309 0.133301 18.2809 0.133301 18.0202C0.133301 11.7949 7.24978 11.7949 10.2903 11.7949C11.234 11.7949 12.0727 11.7949 12.8329 11.8867C13.0914 11.9068 13.3316 12.0283 13.5009 12.2247C13.6703 12.421 13.7552 12.6764 13.7372 12.9351C13.7138 13.1948 13.5895 13.435 13.391 13.6041C13.1926 13.7731 12.9357 13.8576 12.6756 13.8394C11.9679 13.8394 11.1815 13.7608 10.2903 13.7608C3.5015 13.7608 2.09918 15.4646 2.09918 18.0202C2.10094 18.1498 2.07672 18.2784 2.02795 18.3984C1.97917 18.5185 1.90684 18.6275 1.81521 18.7192C1.72358 18.8108 1.61452 18.8831 1.49447 18.9319C1.37442 18.9807 1.24581 19.0049 1.11624 19.0031V19.0031Z" fill="black"/>
<path d="M13.0556 20.0001C12.795 19.9999 12.5452 19.8962 12.361 19.7118C12.2575 19.6132 12.1778 19.4923 12.1278 19.3584C12.0779 19.2244 12.059 19.0809 12.0727 18.9386L12.2824 16.4222C12.2986 16.1909 12.3961 15.9727 12.5576 15.8063L19.792 8.57184C20.2911 8.10944 20.9464 7.85254 21.6268 7.85254C22.3072 7.85254 22.9625 8.10944 23.4617 8.57184C23.7077 8.81987 23.9018 9.1146 24.0323 9.4387C24.1628 9.7628 24.2273 10.1097 24.2218 10.4591C24.2269 10.7811 24.1681 11.101 24.0489 11.4001C23.9297 11.6993 23.7524 11.9719 23.5272 12.2022L16.2928 19.4366C16.1323 19.6011 15.9187 19.7033 15.6899 19.7249L13.1474 19.9608L13.0556 20.0001ZM14.2089 16.9334L14.1303 17.9294L15.1525 17.8377L22.138 10.8523C22.2205 10.7534 22.2626 10.627 22.2559 10.4984C22.2554 10.3159 22.1904 10.1395 22.0724 10.0004C21.9436 9.90463 21.7874 9.85293 21.6268 9.85293C21.4663 9.85293 21.3101 9.90463 21.1812 10.0004L14.2089 16.9334Z" fill="black"/>
</svg>
